<svg xmlns="http://www.w3.org/2000/svg" xmlns:xlink="http://www.w3.org/1999/xlink" width="307.365" height="427.519" viewBox="0 0 230.524 320.639"><path stroke-width="1.68" stroke-linecap="round" stroke-linejoin="round" fill="none" stroke="#000" d="m28.724 18.181 4.8 1.68zM33.524 19.861l3.6 1.92zM37.124 21.781l1.92 1.2zM39.044 22.981h.24zM39.284 22.981l.24.24zM39.524 23.221l.48.24zM40.004 23.461l.96.48zM40.964 23.941l1.92 1.2zM42.884 25.141l3.6 2.16zM46.484 27.301l5.28 3.6zM51.764 30.901l.24.24zM52.004 31.141l.48.24zM52.484 31.381l.96.96zM53.444 32.341l2.16 1.44zM55.604 33.781l3.84 3.12zM59.444 36.901l2.88 2.64zM62.324 39.541l1.68 1.2zM64.004 40.741l.72.72zM64.724 41.461h.24zM64.964 41.461l.48.48zM65.444 41.941l.96.96zM66.404 42.901l1.68 1.44zM68.084 44.341l2.64 2.4zM70.724 46.741l3.84 3.36zM74.564 50.101l2.4 2.16zM76.964 52.261l.24.24zM77.204 52.501l.48.48zM77.684 52.981l.96.96zM78.644 53.941l1.92 1.68zM80.564 55.621l3.6 3.84zM84.164 59.461l4.08 4.56zM88.244 64.021l.24.48zM88.484 64.501l.48.48zM88.964 64.981l.96 1.2zM89.924 66.181l1.92 2.4zM91.844 68.581l3.84 4.8zM95.684 73.381l5.04 6.96zM100.724 80.341l.72.96zM101.444 81.301l.24.24zM101.684 81.541l.48.96zM102.164 82.501l1.2 1.44zM103.364 83.941l2.16 3.36zM105.524 87.301l4.32 6.48zM109.844 93.781l6.24 9.6zM116.084 103.381l.24.72zM116.324 104.101l.72.96zM117.044 105.061l1.2 1.92zM118.244 106.981l2.4 4.08zM120.644 111.061l4.32 8.4zM124.964 119.461l6 12zM130.964 131.461l.24.72zM131.204 132.181l.72.96zM131.924 133.141l.96 2.4zM132.884 135.541l2.16 4.8zM135.044 140.341l3.84 9.36zM138.884 149.701l4.08 11.28zM142.964 160.981l.24.48zM143.204 161.461l.48 1.2zM143.684 162.661l.72 2.64zM144.404 165.301l1.44 4.8zM145.844 170.101l2.88 9.84zM148.724 179.941l2.64 10.32zM151.364 190.261l.48 1.2zM151.844 191.461v.72zM151.844 192.181l.48 1.2zM152.324 193.381l.48 2.64zM152.804 196.021l1.2 5.04zM154.004 201.061l2.4 10.08zM156.404 211.141l2.4 11.76zM158.804 222.901v.72zM158.804 223.621l.48 1.68zM159.284 225.301l.48 3.36zM159.764 228.661l1.2 6.72zM160.964 235.381l1.68 13.68zM162.644 249.061l1.68 18.48zM164.324 267.541l.24 7.2zM104.324 145.141l.24-.24zM118.004 172.501h.24zM104.324 145.141l.24-.24zM26.564 22.021l2.64 2.88zM29.204 24.901l1.44 1.44zM30.644 26.341l.48.72zM31.124 27.061l.48.48zM31.604 27.541l.24.24zM31.844 27.781l.24.24zM32.084 28.021l.24.24zM32.324 28.261l.24.48zM32.564 28.741v.24zM32.564 28.981h.24zM32.804 28.981l.24.48zM33.044 29.461l.72.72zM33.764 30.181l1.2 1.44zM34.964 31.621l.96 1.2zM35.924 32.821l.72.72zM36.644 33.541l.72.96zM37.364 34.501l.72.96zM38.084 35.461l1.2 1.44zM39.284 36.901l1.68 2.16zM40.964 39.061l.24.48zM41.204 39.541l.24.24zM41.444 39.781l.24.24zM41.684 40.021l.72.96zM42.404 40.981l1.44 1.92zM43.844 42.901l2.4 3.36zM46.244 46.261l.96 1.92zM47.204 48.181l.72.72zM47.924 48.901l.24.48zM48.164 49.381l.24.48zM48.404 49.861l.24.24zM48.644 50.101l.48.48zM49.124 50.581l.48.72zM49.604 51.301l.48.96zM50.084 52.261l.24.24zM50.324 52.501l.24.48zM50.564 52.981l.72 1.2zM51.284 54.181l1.2 1.44zM52.484 55.621l.48.96zM52.964 56.581l.48.48zM53.444 57.061l.48.72zM53.924 57.781l.48.72zM54.404 58.501l.72.96zM55.124 59.461l.96 1.44zM56.084 60.901l1.44 2.4zM57.524 63.301l1.2 1.92zM58.724 65.221l.24.24zM58.964 65.461l.48.48zM59.444 65.941l.48.96zM59.924 66.901l1.44 2.16zM61.364 69.061l2.64 4.32zM64.004 73.381l1.68 2.64zM65.684 76.021l.72 1.2zM66.404 77.221l.48.72zM66.884 77.941l.96 1.68zM67.844 79.621l1.92 2.88zM69.764 82.501l1.44 2.88zM71.204 85.381l2.64 4.08zM73.844 89.461l3.6 6zM77.444 95.461l.24.48zM77.684 95.941l.24.48zM77.924 96.421l.48.72zM78.404 97.141l.96 1.68zM79.364 98.821l1.68 3.12zM81.044 101.941l3.84 6.72zM84.884 108.661l3.36 6.24zM88.244 114.901l1.68 3.12zM89.924 118.021l2.64 4.56zM92.564 122.581l2.64 4.56zM95.204 127.141l3.84 7.2zM99.044 134.341l5.76 10.8zM104.804 145.141l.24.72zM105.044 145.861l.48.96zM105.524 146.821l1.2 2.4zM106.724 149.221l2.16 4.32zM108.884 153.541l4.56 8.88zM113.444 162.421l4.8 10.32zM118.244 172.741l.24.48zM118.484 173.221l.72 1.2zM119.204 174.421l.96 2.16zM120.164 176.581l2.16 4.56zM122.324 181.141l4.08 9.12zM126.404 190.261l4.8 10.32zM131.204 200.581l.24.72zM131.444 201.301l.48.96zM131.924 202.261l.96 2.4zM132.884 204.661l1.92 4.56zM134.804 209.221l2.88 6.96zM137.684 216.181l1.44 3.36zM139.124 219.541l3.36 8.16zM142.484 227.701l5.76 13.92zM148.244 241.621l1.92 4.32zM150.164 245.941l2.4 6.24zM152.564 252.181l3.84 9.36zM156.404 261.541l5.04 13.68zM26.564 22.021l-.72-1.2zM25.844 20.821l.24-1.44zM26.084 19.381l.96-1.2zM27.044 18.181h1.44zM28.484 18.181h.24zM161.444 275.221l.72.96zM162.164 276.181l1.2.24zM163.364 276.421l.96-.72zM164.324 275.701l.24-.96z"/><path stroke-width=".48" stroke-linecap="round" stroke-linejoin="round" fill="none" stroke="#000" d="m26.564 22.021 2.16-3.84zM31.124 27.061l6.24-5.28zM41.204 39.301l10.56-8.4zM50.084 52.261l14.4-11.04zM58.724 64.981l18-12.96zM66.884 78.181l21.12-14.16zM75.044 91.381l23.28-14.4zM89.924 118.021l25.92-14.88zM104.564 144.901l26.4-13.68zM118.244 172.501l24.72-11.76zM130.964 200.341l20.64-9.12zM142.964 228.661l15.6-6.48zM154.724 257.221l8.4-3.36zM161.444 275.221l3.12-.48zM163.364 276.421l-2.64-12.48zM160.724 263.941l-3.12-13.68zM157.604 250.261l-3.12-11.76zM153.284 234.421l-.96-3.6zM152.324 230.821l-.24-.48zM150.884 226.261v-.72zM150.884 225.541l-.24-.48zM150.644 225.061l-.24-.72zM150.404 224.341l-.48-1.44zM149.924 222.901l-.96-3.36zM148.964 219.541l-1.92-6.24zM147.044 213.301l-4.08-12.72zM142.964 200.581l-1.68-5.04zM141.284 195.541l-.24-.72zM141.044 194.821l-.48-1.2zM140.564 193.621l-.72-2.4zM139.844 191.221l-.72-2.16zM137.684 184.981l-1.44-3.84zM134.564 177.061l-4.08-10.8zM130.484 166.261l-.24-.72zM130.244 165.541l-.48-.96zM129.764 164.581l-.96-2.4zM128.804 162.181l-2.16-4.56zM126.644 157.621l-4.08-9.36zM122.564 148.261l-3.36-6.96zM117.284 137.461v-.24zM117.284 137.221l-.48-1.2zM116.804 136.021l-1.2-2.16zM115.604 133.861v-.24zM113.444 130.021l-.24-.72zM113.204 129.301l-4.8-8.88zM108.404 120.421l-5.52-10.08zM102.884 110.341l-.24-.48zM102.644 109.861l-.72-.96zM101.924 108.901l-1.2-1.92zM100.724 106.981l-2.4-4.08zM98.324 102.901l-4.08-6.96zM91.844 92.341l-2.16-3.36zM87.284 85.381l-1.92-3.12zM85.364 82.261l-4.32-6.48zM81.044 75.781l-3.6-4.8zM77.444 70.981l-.24-.48zM77.204 70.501l-.48-.48zM76.724 70.021l-.96-1.2zM75.764 68.821l-1.68-2.4zM74.084 66.421l-3.6-4.8zM70.484 61.621l-2.88-3.12zM67.604 58.501l-.24-.24zM67.364 58.261l-.24-.48zM67.124 57.781l-.96-.96zM66.164 56.821l-1.68-1.92zM64.484 54.901l-.48-.72zM61.124 51.061v-.24zM61.124 50.821l-2.64-2.88zM58.484 47.941l-.24-.24zM55.364 44.581l-.72-.72zM54.644 43.861l-.96-1.2zM53.684 42.661l-1.44-1.44zM52.244 41.221l-2.16-2.16zM50.084 39.061l-2.88-3.36zM47.204 35.701l-.96-.72zM46.244 34.981l-.24-.24zM46.004 34.741l-.72-.72zM45.284 34.021l-.96-.96zM44.324 33.061l-1.68-1.68zM42.644 31.381l-1.92-1.68zM40.724 29.701l-3.12-2.64zM37.604 27.061l-5.28-3.84zM32.324 23.221l-5.76-3.84zM26.564 19.381l-.48-.24z"/><symbol id="a"><path d="M.049.26V.025A.025.025 0 0 0 .042.006.026.026 0 0 0 .024 0a.053.053 0 0 0-.017.006C.002.01 0 .016 0 .024V.66c0 .005.002.01.007.016s.01.009.017.009A.026.026 0 0 0 .041.677.022.022 0 0 0 .049.66V.342l.25.332c.004.007.01.01.018.01A.025.025 0 0 0 .334.676.022.022 0 0 0 .343.66.023.023 0 0 0 .337.645L.164.414.34.034.34.029.342.023A.023.023 0 0 0 .334.007.026.026 0 0 0 .317 0L.306.003l-.01.011L.13.37.05.26z"/></symbol><symbol id="b"><path d="M.244.195H.098c-.027 0-.05.01-.07.029A.095.095 0 0 0 0 .293v.366c0 .005.002.01.007.016s.01.009.017.009A.026.026 0 0 0 .041.677.022.022 0 0 0 .049.66V.293c0-.014.005-.025.014-.035A.05.05 0 0 1 .098.244h.146v.415c0 .005.003.01.007.016.005.006.011.009.018.009A.026.026 0 0 0 .285.677.022.022 0 0 0 .293.66V.098c0-.027-.01-.05-.028-.07A.092.092 0 0 0 .195 0H.05A.039.039 0 0 0 .03.007a.027.027 0 0 0-.007.017L.03.042C.034.046.04.049.05.049h.147C.209.049.22.054.23.063c.01.01.014.021.014.035v.097z"/></symbol><symbol id="c"><path d="M.049.244h.147c.012 0 .024.005.033.014.01.01.015.022.015.035v.293A.047.047 0 0 1 .23.621a.047.047 0 0 1-.034.014H.049V.244m0-.05v-.17A.023.023 0 0 0 .04.008.023.023 0 0 0 .024 0a.026.026 0 0 0-.016.006A.022.022 0 0 0 0 .024V.66c0 .016.008.025.024.025h.172c.026 0 .049-.01.068-.029A.092.092 0 0 0 .293.586V.293c0-.027-.01-.05-.028-.07a.092.092 0 0 0-.07-.028H.05z"/></symbol><symbol id="d"><path d="M.269 0H.098C.07 0 .048.01.028.028A.094.094 0 0 0 0 .098V.39c0 .024.01.046.028.067a.09.09 0 0 0 .07.03h.17A.023.023 0 0 0 .286.48.023.023 0 0 0 .293.464.026.026 0 0 0 .287.447.022.022 0 0 0 .269.44H.098A.047.047 0 0 1 .063.425.047.047 0 0 1 .049.391V.098c0-.014.005-.026.014-.035A.047.047 0 0 1 .098.049h.17A.023.023 0 0 0 .286.04.023.023 0 0 0 .293.024.026.026 0 0 0 .287.008.022.022 0 0 0 .269 0z"/></symbol><symbol id="e"><path d="M.293.098c0-.028-.01-.05-.028-.07A.094.094 0 0 0 .195 0H.098C.07 0 .048.01.028.028A.094.094 0 0 0 0 .098V.39c0 .024.01.046.028.067a.09.09 0 0 0 .07.03h.097c.027 0 .05-.01.07-.028A.092.092 0 0 0 .292.39V.099m-.049 0V.39A.047.047 0 0 1 .23.425.047.047 0 0 1 .195.44H.098A.047.047 0 0 1 .063.425.047.047 0 0 1 .049.391V.098c0-.014.005-.026.014-.035A.047.047 0 0 1 .098.049h.097C.21.049.221.054.23.063c.01.01.014.021.014.035z"/></symbol><symbol id="f"><path d="m.049.488.037.026c.01.007.025.02.042.036a.052.052 0 0 1 .018.038.042.042 0 0 1-.014.034.048.048 0 0 1-.034.013.05.05 0 0 1-.035-.013C.053.614.049.602.049.586V.488m.195-.39V.39A.047.047 0 0 1 .23.425.048.048 0 0 1 .195.44H.098A.048.048 0 0 1 .063.425.047.047 0 0 1 .049.39V.098a.048.048 0 0 1 .05-.049h.096c.013 0 .025.005.034.014.01.01.015.021.015.035m-.116.39h.067c.027 0 .05-.01.07-.028A.092.092 0 0 0 .292.39V.099c0-.027-.01-.05-.028-.07A.093.093 0 0 0 .195 0H.098c-.027 0-.05.01-.07.029A.094.094 0 0 0 0 .098v.488c0 .03.01.055.03.073a.1.1 0 0 0 .068.024A.098.098 0 0 0 .165.66.089.089 0 0 0 .195.6C.196.569.19.545.174.528A.19.19 0 0 0 .156.51L.128.488z"/></symbol><symbol id="g"><path d="M.195.635H.098A.024.024 0 0 0 .08.642a.027.027 0 0 0-.006.017.03.03 0 0 0 .006.015.02.02 0 0 0 .018.01h.097A.023.023 0 0 0 .21.676.023.023 0 0 0 .22.659.026.026 0 0 0 .213.643.022.022 0 0 0 .195.635m.098-.61C.293.007.285 0 .269 0h-.17C.07 0 .047.01.028.029A.094.094 0 0 0 0 .098v.366c0 .005.002.01.007.016s.01.008.017.008A.026.026 0 0 0 .041.482.022.022 0 0 0 .049.464V.098a.048.048 0 0 1 .05-.049h.145v.415c0 .005.003.01.007.016.005.006.011.008.018.008A.026.026 0 0 0 .285.482.022.022 0 0 0 .293.464v-.44z"/></symbol><use xlink:href="#a" transform="matrix(-29.16288 0 -10.61532 29.16288 -300.84 -731.16)"/><use xlink:href="#b" transform="matrix(-29.16288 0 -10.61532 29.16288 -311.372 -736.841)"/><use xlink:href="#c" transform="matrix(-29.16288 0 -10.61532 29.16288 -322.39 -736.855)"/><use xlink:href="#d" transform="matrix(-29.16288 0 -10.61532 29.16288 -335.488 -731.16)"/><use xlink:href="#e" transform="matrix(-29.16288 0 -10.61532 29.16288 -346.51 -731.16)"/><use xlink:href="#f" transform="matrix(-29.16288 0 -10.61532 29.16288 -357.536 -731.16)"/><use xlink:href="#e" transform="matrix(-29.16288 0 -10.61532 29.16288 -368.559 -731.16)"/><use xlink:href="#g" transform="matrix(-29.16288 0 -10.61532 29.16288 -379.584 -731.16)"/><symbol id="h"><path d="M0 0z"/></symbol><use xlink:href="#h" transform="matrix(-29.16288 0 -10.61532 29.16288 -389.196 -731.16)"/><symbol id="i"><path d="M.293.024A.025.025 0 0 0 .286.006.026.026 0 0 0 .27 0 .053.053 0 0 0 .25.006C.247.01.244.016.244.024v.367A.047.047 0 0 1 .23.425.047.047 0 0 1 .195.44H.05V.024A.025.025 0 0 0 .042.006.026.026 0 0 0 .024 0a.053.053 0 0 0-.017.006C.002.01 0 .016 0 .024v.44C0 .48.008.488.024.488h.171c.027 0 .05-.01.07-.028A.092.092 0 0 0 .292.39V.025z"/></symbol><symbol id="j"><path d="M.049.269h.195V.39A.047.047 0 0 1 .23.425.047.047 0 0 1 .195.44H.098A.047.047 0 0 1 .063.425.047.047 0 0 1 .049.391V.269m0-.05V.099c0-.014.005-.026.014-.035A.047.047 0 0 1 .098.049h.17A.023.023 0 0 0 .286.04.023.023 0 0 0 .293.024.026.026 0 0 0 .287.008.022.022 0 0 0 .269 0H.098C.07 0 .048.01.028.028A.094.094 0 0 0 0 .098V.39c0 .024.01.046.028.067a.09.09 0 0 0 .07.03h.097c.027 0 .05-.01.07-.028A.092.092 0 0 0 .292.39V.245C.293.228.285.22.269.22h-.22z"/></symbol><symbol id="k"><path d="M.136.28.289.038.293.024A.025.025 0 0 0 .268 0C.263 0 .26 0 .257.002a.028.028 0 0 0-.009.01l-.146.23L.05.183V.024A.025.025 0 0 0 .042.006.026.026 0 0 0 .024 0a.053.053 0 0 0-.017.006C.002.01 0 .016 0 .024v.44c0 .005.002.01.007.016s.01.008.017.008A.026.026 0 0 0 .041.482.022.022 0 0 0 .049.464V.256L.25.48a.025.025 0 0 0 .018.008A.023.023 0 0 0 .286.48.023.023 0 0 0 .294.462.024.024 0 0 0 .287.445L.136.28z"/></symbol><symbol id="l"><path d="M.195.44H.05V.023A.025.025 0 0 0 .042.006.026.026 0 0 0 .024 0a.053.053 0 0 0-.017.006C.002.01 0 .016 0 .024v.44C0 .48.008.488.024.488h.318C.369.488.392.478.41.46A.092.092 0 0 0 .439.39V.025A.025.025 0 0 0 .433.006.026.026 0 0 0 .415 0a.053.053 0 0 0-.017.006C.393.01.39.016.39.024v.367a.047.047 0 0 1-.015.034.047.047 0 0 1-.034.014H.244V.024A.025.025 0 0 0 .237.006.026.026 0 0 0 .22 0a.053.053 0 0 0-.017.006C.198.01.195.016.195.024V.44z"/></symbol><use xlink:href="#i" transform="matrix(-29.16288 0 -10.61532 29.16288 -399.026 -731.16)"/><use xlink:href="#c" transform="matrix(-29.16288 0 -10.61532 29.16288 -407.978 -736.855)"/><use xlink:href="#e" transform="matrix(-29.16288 0 -10.61532 29.16288 -421.074 -731.16)"/><use xlink:href="#j" transform="matrix(-29.16288 0 -10.61532 29.16288 -432.1 -731.16)"/><use xlink:href="#k" transform="matrix(-29.16288 0 -10.61532 29.16288 -443.136 -731.16)"/><use xlink:href="#l" transform="matrix(-29.16288 0 -10.61532 29.16288 -454.147 -731.16)"/><symbol id="m"><path d="M.293.024C.293.008.285 0 .269 0H.098C.07 0 .048.01.028.028A.094.094 0 0 0 0 .098v.366c0 .005.002.01.007.016s.01.008.017.008A.026.026 0 0 0 .041.482.022.022 0 0 0 .049.464V.098c0-.014.005-.026.014-.035A.047.047 0 0 1 .098.049h.146v.415c0 .005.003.01.007.016.005.006.011.008.018.008A.026.026 0 0 0 .285.482.022.022 0 0 0 .293.464v-.44z"/></symbol><symbol id="n"><path d="M.244.1v.34H.098A.047.047 0 0 1 .063.428.047.047 0 0 1 .049.392V.1c0-.014.005-.025.014-.035A.047.047 0 0 1 .098.05h.097C.21.05.221.055.23.064.24.074.244.085.244.1M.326.05C.338.043.344.036.344.024A.025.025 0 0 0 .337.007.02.02 0 0 0 .32 0L.312.001a.064.064 0 0 0-.024.014.127.127 0 0 0-.02.02A.093.093 0 0 0 .196 0H.098c-.028 0-.05.01-.07.029A.094.094 0 0 0 0 .1v.292C0 .417.01.44.028.46a.09.09 0 0 0 .07.03h.17C.286.49.294.483.294.466V.1c0-.01.003-.02.009-.03a.062.062 0 0 1 .024-.02z"/></symbol><symbol id="o"><path d="M.293.024A.025.025 0 0 0 .286.006.026.026 0 0 0 .27 0 .053.053 0 0 0 .25.006C.247.01.244.016.244.024V.44H.142L.048.02C.045.006.038 0 .025 0a.028.028 0 0 0-.018.006A.023.023 0 0 0 0 .024V.03l.098.44C.101.481.11.487.122.487H.27C.285.488.293.48.293.464v-.44z"/></symbol><symbol id="p"><path d="M.293.537V.195h.049c.037 0 .071.014.101.043C.473.266.49.3.49.342V.39a.14.14 0 0 1-.043.103.14.14 0 0 1-.104.043H.293M.245.195v.342h-.05A.143.143 0 0 1 .093.494.155.155 0 0 1 .06.447L.052.421.05.406.049.39V.34c0-.04.014-.075.043-.103A.144.144 0 0 1 .196.195h.049m0-.049h-.05A.194.194 0 0 0 0 .341l.001.05a.197.197 0 0 0 .196.195h.049v.073c0 .005.002.01.007.016s.01.009.017.009A.026.026 0 0 0 .286.677.022.022 0 0 0 .293.66V.586h.049A.19.19 0 0 0 .48.529.188.188 0 0 0 .538.391V.34A.19.19 0 0 0 .48.205.204.204 0 0 0 .362.147a.188.188 0 0 0-.02 0H.293V.023A.025.025 0 0 0 .287.006.026.026 0 0 0 .269 0a.053.053 0 0 0-.017.006C.247.01.245.016.245.024v.122z"/></symbol><symbol id="q"><path d="M.342.024A.025.025 0 0 0 .335.006.026.026 0 0 0 .317 0 .053.053 0 0 0 .3.006C.295.01.293.016.293.024v.359L.191.23C.186.221.18.216.171.216S.157.221.15.23L.048.383V.024A.025.025 0 0 0 .042.006.026.026 0 0 0 .024 0a.053.053 0 0 0-.017.006C.002.01 0 .016 0 .024v.44C0 .47.002.477.007.48.012.486.018.49.025.49a.024.024 0 0 0 .01-.003C.04.485.042.482.045.478L.17.288l.126.19a.025.025 0 0 0 .02.011C.322.49.327.487.333.482a.021.021 0 0 0 .01-.018v-.44z"/></symbol><use xlink:href="#a" transform="matrix(14.40576 0 5.24376 -14.40576 1516.615 926.598)"/><use xlink:href="#e" transform="matrix(14.40576 0 5.24376 -14.40576 1522.914 926.598)"/><use xlink:href="#i" transform="matrix(14.40576 0 5.24376 -14.40576 1528.426 926.598)"/><use xlink:href="#m" transform="matrix(14.40576 0 5.24376 -14.40576 1533.938 926.598)"/><use xlink:href="#c" transform="matrix(14.40576 0 5.24376 -14.40576 1538.426 929.412)"/><use xlink:href="#e" transform="matrix(14.40576 0 5.24376 -14.40576 1544.962 926.598)"/><use xlink:href="#f" transform="matrix(14.40576 0 5.24376 -14.40576 1550.474 926.598)"/><use xlink:href="#n" transform="matrix(14.40576 0 5.24376 -14.40576 1555.978 926.62)"/><use xlink:href="#o" transform="matrix(14.40576 0 5.24376 -14.40576 1561.498 926.598)"/><use xlink:href="#p" transform="matrix(14.40576 0 5.24376 -14.40576 1715.031 926.598)"/><use xlink:href="#e" transform="matrix(14.40576 0 5.24376 -14.40576 1724.225 926.598)"/><use xlink:href="#c" transform="matrix(14.40576 0 5.24376 -14.40576 1728.713 929.412)"/><use xlink:href="#q" transform="matrix(14.40576 0 5.24376 -14.40576 1735.249 926.598)"/><use xlink:href="#n" transform="matrix(14.40576 0 5.24376 -14.40576 1741.54 926.62)"/><use xlink:href="#l" transform="matrix(14.40576 0 5.24376 -14.40576 1747.06 926.598)"/><symbol id="r"><path d="M.096.195.048.018A.02.02 0 0 0 .04.005.023.023 0 0 0 .025 0a.027.027 0 0 0-.018.006A.023.023 0 0 0 0 .024L.001.03l.17.63c.005.014.013.022.024.022C.207.683.215.675.22.66l.17-.63.002-.008A.025.025 0 0 0 .383.006.027.027 0 0 0 .352.004a.027.027 0 0 0-.01.014L.296.195h-.2m.187.05-.087.32L.11.246h.173z"/></symbol><symbol id="s"><path d="M.195.024A.025.025 0 0 0 .188.006.026.026 0 0 0 .17 0a.053.053 0 0 0-.017.006C.148.01.146.016.146.024v.577L.042.496A.023.023 0 0 0 .025.488a.024.024 0 0 0-.018.008A.024.024 0 0 0 0 .513C0 .516.002.521.007.53l.146.146c.005.005.01.007.017.007A.024.024 0 0 0 .187.676.02.02 0 0 0 .195.66V.024z"/></symbol><use xlink:href="#r" transform="matrix(14.40576 0 5.24376 -14.40576 1771.715 926.591)"/><use xlink:href="#s" transform="matrix(14.40576 0 5.24376 -14.40576 1778.82 926.598)"/><symbol id="t"><path d="M.293.39v.27c0 .015.009.024.025.024S.342.675.342.659V.024C.342.008.334 0 .318 0S.293.008.293.024v.317H.05V.024C.049.008.04 0 .024 0 .008 0 0 .008 0 .024V.66c0 .016.008.025.024.025C.041.684.05.675.05.659V.39h.244z"/></symbol><symbol id="u"><path d="M.049.268h.195V.39A.046.046 0 0 1 .23.424.046.046 0 0 1 .195.44H.097A.046.046 0 0 1 .063.424.047.047 0 0 1 .049.39V.268m0-.048V.098a.048.048 0 0 1 .048-.05h.171C.284.049.292.042.292.025.292.008.284 0 .268 0h-.17C.07 0 .047.01.027.028A.095.095 0 0 0 0 .098V.39C0 .417.01.44.028.46c.02.02.042.029.07.029h.097c.027 0 .05-.01.07-.029A.093.093 0 0 0 .292.39V.244C.293.228.285.22.268.22h-.22z"/></symbol><use xlink:href="#t" transform="matrix(13.68547 0 4.98155 -14.40576 -520.113 926.532)"/><use xlink:href="#u" transform="matrix(13.68547 0 4.98155 -14.40576 -515.002 926.532)"/><symbol id="v"><path d="M0 0z"/></symbol><use xlink:href="#v" transform="matrix(13.68547 0 4.98155 -14.40576 -511.228 926.532)"/><symbol id="w"><path d="M.293.098c0-.027-.01-.05-.029-.07A.093.093 0 0 0 .194 0H.099c-.027 0-.05.01-.07.029A.095.095 0 0 0 0 .098V.39c0 .027.01.05.028.068.02.02.043.03.07.03h.146v.097A.046.046 0 0 1 .23.62a.047.047 0 0 1-.034.014h-.17C.007.635 0 .643 0 .659s.008.025.024.025h.17c.028 0 .051-.01.07-.03A.094.094 0 0 0 .293.587V.098m-.049 0v.341H.098A.048.048 0 0 1 .063.425.047.047 0 0 1 .049.39V.098a.048.048 0 0 1 .05-.05h.096c.013 0 .025.006.034.015.01.01.015.021.015.035z"/></symbol><symbol id="x"><path d="M.293.024C.293.008.285 0 .269 0 .252 0 .244.008.244.024V.44H.142L.048.02C.045.006.038 0 .025 0 .008 0 0 .008 0 .023V.03l.098.44C.101.481.11.487.122.487H.27C.285.488.293.48.293.464v-.44z"/></symbol><symbol id="y"><path d="M.245.269v.17H.098A.047.047 0 0 1 .063.425.047.047 0 0 1 .05.39V.317A.048.048 0 0 1 .1.27h.146M.293.024C.293.008.285 0 .27 0S.245.008.245.024V.22H.16L.046.013C.042.004.035 0 .026 0 .009 0 0 .008 0 .024l.003.012.102.184H.098c-.027 0-.05.01-.07.028A.095.095 0 0 0 0 .318V.39C0 .417.01.44.03.459c.019.02.042.03.07.03h.17C.285.488.293.48.293.463v-.44z"/></symbol><symbol id="z"><path d="M.294.462A.025.025 0 0 0 .287.445L.136.28.289.038A.025.025 0 0 0 .293.024.023.023 0 0 0 .285.007.026.026 0 0 0 .268 0a.022.022 0 0 0-.02.011L.102.242.05.183V.024C.049.008.04 0 .024 0 .008 0 0 .008 0 .024v.44C0 .48.008.488.024.488.041.488.05.48.05.464V.256L.25.48a.024.024 0 0 0 .018.008.023.023 0 0 0 .017-.008.023.023 0 0 0 .008-.017z"/></symbol><symbol id="A"><path d="M.293.098c0-.027-.01-.05-.029-.07A.094.094 0 0 0 .195 0H.098C.07 0 .048.01.028.028A.095.095 0 0 0 0 .098V.39c0 .026.01.05.029.068.019.02.042.03.069.03h.097c.027 0 .05-.01.07-.03A.094.094 0 0 0 .292.391V.098m-.049 0V.39A.046.046 0 0 1 .23.425a.046.046 0 0 1-.034.014H.098A.047.047 0 0 1 .063.425.047.047 0 0 1 .049.39V.098a.048.048 0 0 1 .049-.05h.097C.21.049.22.055.23.064c.01.01.015.021.015.035z"/></symbol><symbol id="B"><path d="M.342.024C.342.008.334 0 .317 0 .301 0 .293.008.293.024v.359L.191.23C.185.221.178.216.171.216.163.216.157.221.15.23L.048.383V.024C.049.008.04 0 .024 0 .008 0 0 .008 0 .024v.44C0 .48.008.489.024.489a.023.023 0 0 0 .02-.011l.127-.19.126.19a.024.024 0 0 0 .02.011C.334.49.342.481.342.464v-.44z"/></symbol><symbol id="C"><path d="M.049.244h.147a.048.048 0 0 1 .048.05v.292A.045.045 0 0 1 .23.62a.045.045 0 0 1-.033.015H.049V.244m0-.05v-.17C.049.008.04 0 .024 0 .008 0 0 .008 0 .024V.66c0 .016.008.025.024.025h.172c.026 0 .05-.01.068-.03A.092.092 0 0 0 .293.587V.293c0-.027-.01-.05-.029-.07A.092.092 0 0 0 .196.196H.049z"/></symbol><symbol id="D"><path d="M.293.024C.293.008.285 0 .269 0 .252 0 .244.008.244.024V.22H.098C.07.22.048.23.028.248A.095.095 0 0 0 0 .318v.146C0 .48.008.488.024.488.041.488.05.48.05.464V.317A.048.048 0 0 1 .098.27h.146v.195c0 .016.008.024.025.024C.285.488.293.48.293.464v-.44z"/></symbol><symbol id="E"><path d="M.269 0H.098C.07 0 .048.01.028.028A.095.095 0 0 0 0 .098V.39c0 .026.01.05.029.068.019.02.042.03.069.03h.17C.286.488.294.48.294.463S.285.439.269.439H.098A.047.047 0 0 1 .063.425.047.047 0 0 1 .049.39V.098a.048.048 0 0 1 .049-.05h.17C.286.049.294.042.294.025.293.008.285 0 .269 0z"/></symbol><symbol id="F"><path d="M.297.074c0-.003 0-.006-.002-.01A.107.107 0 0 0 .197 0L.1.001a.093.093 0 0 0-.071.03A.097.097 0 0 0 .002.1c0 .027.01.05.03.07l.2.186c.01.01.015.021.015.035a.048.048 0 0 1-.015.034.045.045 0 0 1-.035.015H.1A.06.06 0 0 1 .068.43a.047.047 0 0 1-.02-.023C.044.396.036.39.025.39.008.39 0 .398 0 .414c0 .003 0 .006.002.01.007.018.02.034.039.046A.105.105 0 0 0 .1.488h.097C.226.488.25.478.27.458A.098.098 0 0 0 .265.32l-.2-.187A.046.046 0 0 1 .052.1C.05.085.055.074.064.064A.046.046 0 0 1 .1.05h.097c.027 0 .044.01.053.033.004.01.011.016.022.016C.289.098.297.09.297.074z"/></symbol><use xlink:href="#w" transform="matrix(13.68547 0 4.98155 -14.40576 -507.222 926.532)"/><use xlink:href="#x" transform="matrix(13.68547 0 4.98155 -14.40576 -502.778 926.532)"/><use xlink:href="#y" transform="matrix(13.68547 0 4.98155 -14.40576 -498.34 926.532)"/><use xlink:href="#z" transform="matrix(13.68547 0 4.98155 -14.40576 -490.548 926.532)"/><use xlink:href="#A" transform="matrix(13.68547 0 4.98155 -14.40576 -486.11 926.532)"/><use xlink:href="#B" transform="matrix(13.68547 0 4.98155 -14.40576 -481.666 926.532)"/><use xlink:href="#B" transform="matrix(13.68547 0 4.98155 -14.40576 -476.554 926.532)"/><use xlink:href="#u" transform="matrix(13.68547 0 4.98155 -14.40576 -471.444 926.532)"/><use xlink:href="#C" transform="matrix(13.68547 0 4.98155 -14.40576 -467.972 929.346)"/><use xlink:href="#D" transform="matrix(13.68547 0 4.98155 -14.40576 -462.554 926.532)"/><use xlink:href="#u" transform="matrix(13.68547 0 4.98155 -14.40576 -458.11 926.532)"/><use xlink:href="#E" transform="matrix(13.68547 0 4.98155 -14.40576 -453.665 926.532)"/><use xlink:href="#z" transform="matrix(13.68547 0 4.98155 -14.40576 -449.214 926.532)"/><use xlink:href="#A" transform="matrix(13.68547 0 4.98155 -14.40576 -444.776 926.532)"/><use xlink:href="#F" transform="matrix(13.68547 0 4.98155 -14.40576 -440.358 926.532)"/><use xlink:href="#A" transform="matrix(13.68547 0 4.98155 -14.40576 -435.886 926.532)"/><use xlink:href="#v" transform="matrix(13.68547 0 4.98155 -14.40576 -432.106 926.532)"/><symbol id="G"><path d="M.293.024C.293.008.285 0 .269 0H.098C.07 0 .048.01.028.028A.095.095 0 0 0 0 .098v.366C0 .48.008.488.024.488.041.488.05.48.05.464V.098a.048.048 0 0 1 .049-.05h.146v.416c0 .016.008.024.025.024C.285.488.293.48.293.464v-.44z"/></symbol><symbol id="H"><path d="M.293.024C.293.008.285 0 .269 0 .252 0 .244.008.244.024v.367A.046.046 0 0 1 .23.425a.046.046 0 0 1-.034.014H.05V.024C.049.008.04 0 .024 0 .008 0 0 .008 0 .024v.44C0 .48.008.488.024.488h.171c.027 0 .05-.01.07-.029A.094.094 0 0 0 .292.391V.024z"/></symbol><symbol id="I"><path d="M.293.098c0-.027-.01-.05-.029-.07A.094.094 0 0 0 .195 0h-.17C.007 0 0 .008 0 .024v.44C0 .48.008.488.024.488.041.488.05.48.05.464V.269h.146c.027 0 .05-.01.07-.03A.094.094 0 0 0 .292.172V.098m-.049 0V.17A.046.046 0 0 1 .23.205.046.046 0 0 1 .195.22H.05V.049h.146C.21.049.22.054.23.063c.01.01.015.021.015.035z"/></symbol><symbol id="J"><path d="M.27.098a.09.09 0 0 0-.03-.07A.102.102 0 0 0 .166 0H.094c-.02 0-.04.006-.057.019a.094.094 0 0 0-.036.048.028.028 0 0 0-.001.01C0 .091.008.1.025.1.037.1.045.094.048.082.055.06.07.049.094.049h.073c.014 0 .027.005.038.014.011.01.017.022.017.035V.17a.044.044 0 0 1-.017.034.055.055 0 0 1-.038.015H.12C.102.22.094.228.094.244S.102.27.12.27h.048c.014 0 .027.004.038.014s.017.021.017.034v.074a.044.044 0 0 1-.017.034.055.055 0 0 1-.038.014H.12C.095.44.079.43.072.406.07.395.062.389.05.389.033.39.025.397.025.413L.026.42A.096.096 0 0 0 .12.488h.048A.1.1 0 0 0 .24.46.09.09 0 0 0 .271.391V.317A.092.092 0 0 0 .237.244.094.094 0 0 0 .271.171V.098z"/></symbol><symbol id="K"><path d="M.293.098c0-.027-.01-.05-.029-.07A.093.093 0 0 0 .194 0H.099c-.027 0-.05.01-.07.029A.095.095 0 0 0 0 .098v.488c0 .03.01.055.03.073.019.016.04.024.067.024A.092.092 0 0 0 .195.586a.09.09 0 0 0-.022-.06A3.89 3.89 0 0 1 .128.487h.067c.027 0 .05-.01.07-.029A.093.093 0 0 0 .292.391V.098M.146.586a.045.045 0 0 1-.014.036.05.05 0 0 1-.034.013.049.049 0 0 1-.034-.012.046.046 0 0 1-.015-.037V.488C.082.51.109.53.129.55.14.562.145.574.145.586M.244.098V.39A.046.046 0 0 1 .23.425a.046.046 0 0 1-.034.014H.098A.048.048 0 0 1 .063.425.047.047 0 0 1 .049.39V.098a.048.048 0 0 1 .05-.05h.096c.013 0 .025.006.034.015.01.01.015.021.015.035z"/></symbol><symbol id="L"><path d="M.244.1v.34H.098A.047.047 0 0 1 .063.427.047.047 0 0 1 .049.392V.1A.048.048 0 0 1 .098.05h.097C.21.05.22.055.23.064.24.074.244.086.244.1m.1-.074C.344.008.336 0 .32 0 .306 0 .289.011.269.034A.093.093 0 0 0 .195.001H.098c-.027 0-.05.01-.07.029A.095.095 0 0 0 0 .1v.292c0 .027.01.05.029.069C.048.48.07.49.098.49h.17C.286.49.294.482.294.465V.098c0-.024.011-.04.033-.05C.338.044.344.036.344.025z"/></symbol><symbol id="M"><path d="M.293.024C.293.008.285 0 .269 0 .252 0 .244.008.244.024V.22H.05V.024C.049.008.04 0 .024 0 .008 0 0 .008 0 .024v.44C0 .48.008.488.024.488.041.488.05.48.05.464V.269h.195v.195c0 .016.008.024.025.024C.285.488.293.48.293.464v-.44z"/></symbol><use xlink:href="#G" transform="matrix(13.68547 0 4.98155 -14.40576 -428.1 926.532)"/><use xlink:href="#E" transform="matrix(13.68547 0 4.98155 -14.40576 -423.656 926.532)"/><use xlink:href="#H" transform="matrix(13.68547 0 4.98155 -14.40576 -419.212 926.532)"/><use xlink:href="#A" transform="matrix(13.68547 0 4.98155 -14.40576 -414.767 926.532)"/><use xlink:href="#x" transform="matrix(13.68547 0 4.98155 -14.40576 -410.322 926.532)"/><use xlink:href="#I" transform="matrix(13.68547 0 4.98155 -14.40576 -405.878 926.532)"/><use xlink:href="#J" transform="matrix(13.68547 0 4.98155 -14.40576 -401.46 926.532)"/><use xlink:href="#A" transform="matrix(13.68547 0 4.98155 -14.40576 -397.211 926.532)"/><use xlink:href="#K" transform="matrix(13.68547 0 4.98155 -14.40576 -392.766 926.532)"/><use xlink:href="#L" transform="matrix(13.68547 0 4.98155 -14.40576 -388.402 926.553)"/><use xlink:href="#M" transform="matrix(13.68547 0 4.98155 -14.40576 -383.877 926.532)"/><use xlink:href="#G" transform="matrix(13.68547 0 4.98155 -14.40576 -379.432 926.532)"/><use xlink:href="#y" transform="matrix(13.68547 0 4.98155 -14.40576 -374.994 926.532)"/><symbol id="N"><path d="M.049.26V.025C.049.008.04 0 .024 0 .008 0 0 .008 0 .024V.66c0 .016.008.025.024.025C.041.684.05.675.05.659V.342l.25.332c.004.007.01.01.018.01A.024.024 0 0 0 .335.676.023.023 0 0 0 .337.645L.164.414.34.034a.027.027 0 0 0 .002-.01C.342.007.334 0 .317 0 .307 0 .3.005.296.014L.13.37.05.26z"/></symbol><symbol id="O"><path d="M.342.146A.142.142 0 0 0 .3.042.142.142 0 0 0 .195 0H.146a.141.141 0 0 0-.103.043A.141.141 0 0 0 0 .146v.391c0 .04.014.075.043.104a.141.141 0 0 0 .103.043h.05C.235.684.27.669.298.64A.14.14 0 0 0 .342.537v-.39m-.049 0v.39c0 .027-.01.05-.028.069a.095.095 0 0 1-.07.029H.146A.094.094 0 0 1 .078.606a.094.094 0 0 1-.03-.069v-.39c0-.027.01-.05.03-.07A.094.094 0 0 1 .146.05h.05c.026 0 .05.01.069.028.019.02.028.042.028.07z"/></symbol><symbol id="P"><path d="M.439.024C.439.008.431 0 .415 0 .398 0 .39.008.39.024v.547L.24.33C.234.319.227.313.22.313.21.313.203.32.197.33L.048.57V.024C.049.008.042 0 .025 0 .008 0 0 .008 0 .024v.634c0 .02.007.029.022.029C.032.687.039.68.045.67L.22.388.394.67C.4.68.408.687.417.687c.015 0 .022-.01.022-.029V.024z"/></symbol><symbol id="Q"><path d="M.342.024C.342.008.334 0 .318 0S.293.008.293.024v.61H.05v-.61C.049.008.04 0 .024 0 .008 0 0 .008 0 .024V.66c0 .016.008.025.024.025h.294C.334.684.342.675.342.659V.024z"/></symbol><symbol id="R"><path d="M.096.195.048.018C.045.006.037 0 .025 0 .008 0 0 .008 0 .023l.001.008.17.63c.005.014.013.022.024.022C.207.683.215.675.22.66l.17-.63A.03.03 0 0 0 .392.023C.39.008.382 0 .366 0 .354 0 .346.006.343.018L.295.195h-.2m.187.05-.087.32L.11.246h.173z"/></symbol><symbol id="S"><path d="M.269 0H.147a.142.142 0 0 0-.104.042A.142.142 0 0 0 0 .146v.391c0 .04.014.075.043.104a.142.142 0 0 0 .104.043h.122C.285.684.293.675.293.659S.285.635.269.635H.147a.095.095 0 0 1-.07-.029A.093.093 0 0 1 .05.537v-.39c0-.028.01-.05.029-.07A.095.095 0 0 1 .147.05h.122C.285.049.293.04.293.024.293.008.285 0 .269 0z"/></symbol><use xlink:href="#N" transform="matrix(0 -13.68547 -14.40576 -4.98155 -523.616 913.817)"/><use xlink:href="#O" transform="matrix(0 -13.68547 -14.40576 -4.98155 -523.616 908.705)"/><use xlink:href="#P" transform="matrix(0 -13.68547 -14.40576 -4.98155 -523.623 903.591)"/><use xlink:href="#Q" transform="matrix(0 -13.68547 -14.40576 -4.98155 -523.616 897.372)"/><use xlink:href="#R" transform="matrix(0 -13.68547 -14.40576 -4.98155 -523.623 892.271)"/><use xlink:href="#S" transform="matrix(0 -13.68547 -14.40576 -4.98155 -523.616 886.704)"/><symbol id="T"><path d="M.279 0H.02C.007 0 0 .007 0 .021c0 .015.007.022.021.022H.28C.293.043.3.036.3.021.3.007.293 0 .28 0z"/></symbol><symbol id="U"><path d="M.214.374A.143.143 0 0 0 .271.32.141.141 0 0 0 .293.244V.146A.142.142 0 0 0 .25.042.14.14 0 0 0 .146 0H.024C.008 0 0 .008 0 .024 0 .041.008.05.024.05h.122c.028 0 .05.01.07.028.019.02.028.042.028.07v.097c0 .027-.01.05-.029.069a.093.093 0 0 1-.069.029H.122C.106.342.098.35.098.366s.008.025.024.025C.15.39.172.4.191.419.21.439.22.46.22.489v.048c0 .027-.01.05-.03.069a.093.093 0 0 1-.068.029H.024C.008.635 0 .643 0 .659s.008.025.024.025h.098A.14.14 0 0 0 .226.64.14.14 0 0 0 .269.537V.488A.14.14 0 0 0 .214.374z"/></symbol><symbol id="V"><path d="M.342.146A.142.142 0 0 0 .3.042.142.142 0 0 0 .195 0h-.17C.007 0 0 .008 0 .024V.66c0 .016.008.025.024.025h.171C.236.684.271.669.3.64A.14.14 0 0 0 .342.537v-.39m-.049 0v.39c0 .027-.01.05-.028.069a.095.095 0 0 1-.07.029H.05V.049h.146c.027 0 .05.01.07.028.019.02.028.042.028.07z"/></symbol><symbol id="W"><path d="M.146 0C.135 0 .127.007.123.021L.001.458A.03.03 0 0 0 0 .466C0 .48.008.489.025.489.037.49.045.483.048.471L.146.12l.1.352C.247.483.255.49.267.49.285.49.293.481.293.466A.03.03 0 0 0 .292.458L.17.021C.166.007.158 0 .146 0z"/></symbol><symbol id="X"><path d="M.316 0H.024C.008 0 0 .009 0 .026 0 .03.001.035.003.038l.268.406a.127.127 0 0 1 .024.07A.11.11 0 0 1 .254.6a.134.134 0 0 1-.09.034C.115.634.08.607.055.551.051.541.043.535.033.535.016.535.008.543.008.56l.001.009c.028.077.078.116.152.116.047 0 .09-.016.127-.048a.154.154 0 0 0 .057-.12.179.179 0 0 0-.032-.1L.07.05h.246C.332.049.34.04.34.024.34.008.332 0 .316 0z"/></symbol><use xlink:href="#T" transform="matrix(0 -13.68547 -14.40576 -4.98155 -526.395 881.297)"/><use xlink:href="#U" transform="matrix(0 -13.68547 -14.40576 -4.98155 -523.616 877.813)"/><use xlink:href="#V" transform="matrix(0 -13.68547 -14.40576 -4.98155 -523.616 873.368)"/><use xlink:href="#v" transform="matrix(0 -13.68547 -14.40576 -4.98155 -523.616 868.925)"/><use xlink:href="#W" transform="matrix(0 -13.68547 -14.40576 -4.98155 -523.602 864.928)"/><use xlink:href="#X" transform="matrix(0 -13.68547 -14.40576 -4.98155 -523.616 860.472)"/><use xlink:href="#X" transform="matrix(0 -13.68547 -14.40576 -4.98155 -523.616 855.361)"/><symbol id="Y"><path d="M.293.293H.146a.142.142 0 0 0-.104.043A.142.142 0 0 0 0 .439v.22c0 .016.008.025.024.025C.041.684.05.675.05.659V.44c0-.026.01-.05.028-.068a.095.095 0 0 1 .07-.029h.146V.66c0 .016.009.025.025.025S.342.675.342.659V.146A.142.142 0 0 0 .3.042.142.142 0 0 0 .195 0H.073C.057 0 .05.008.05.024c0 .017.008.025.024.025h.122c.027 0 .05.01.07.028.019.02.028.042.028.07v.146z"/></symbol><symbol id="Z"><path d="M.248.098V.39a.046.046 0 0 1-.015.034.046.046 0 0 1-.035.014H.102A.048.048 0 0 1 .066.425.047.047 0 0 1 .052.39V.098a.048.048 0 0 1 .05-.05h.096c.014 0 .025.006.035.015.01.01.015.021.015.035m.048 0c0-.027-.01-.05-.028-.07A.093.093 0 0 0 .198 0H.102C.074 0 .05.01.032.029a.095.095 0 0 0-.029.069V.39c0 .027.01.05.029.068.019.02.042.03.07.03h.066L.011.641C.004.648 0 .656 0 .663c0 .014.01.02.028.02h.244C.288.684.296.676.296.66S.288.635.272.635H.088L.269.458A.092.092 0 0 0 .296.391V.098z"/></symbol><use xlink:href="#Y" transform="matrix(0 -13.68547 -14.40576 -4.98155 -523.616 846.922)"/><use xlink:href="#D" transform="matrix(0 -13.68547 -14.40576 -4.98155 -523.616 841.81)"/><use xlink:href="#u" transform="matrix(0 -13.68547 -14.40576 -4.98155 -523.616 837.366)"/><use xlink:href="#Z" transform="matrix(0 -13.68547 -14.40576 -4.98155 -523.616 832.968)"/><use xlink:href="#M" transform="matrix(0 -13.68547 -14.40576 -4.98155 -523.616 828.477)"/><use xlink:href="#L" transform="matrix(0 -13.68547 -14.40576 -4.98155 -523.595 824.113)"/><use xlink:href="#y" transform="matrix(0 -13.68547 -14.40576 -4.98155 -523.616 819.594)"/><use xlink:href="#v" transform="matrix(0 -13.68547 -14.40576 -4.98155 -523.616 815.807)"/><use xlink:href="#K" transform="matrix(0 -13.68547 -14.40576 -4.98155 -523.616 811.802)"/><use xlink:href="#u" transform="matrix(0 -13.68547 -14.40576 -4.98155 -523.616 807.357)"/><use xlink:href="#C" transform="matrix(0 -13.68547 -14.40576 -4.98155 -520.803 803.885)"/><use xlink:href="#E" transform="matrix(0 -13.68547 -14.40576 -4.98155 -523.616 798.468)"/><use xlink:href="#G" transform="matrix(0 -13.68547 -14.40576 -4.98155 -523.616 794.023)"/><use xlink:href="#y" transform="matrix(0 -13.68547 -14.40576 -4.98155 -523.616 789.585)"/><symbol id="aa"><path d="M.289.397A.074.074 0 0 1 .234.375.074.074 0 0 1 .212.321V.256C.212.234.22.216.234.2A.072.072 0 0 1 .29.178h.066C.37.178.377.171.377.156.377.14.37.133.355.133H.289A.12.12 0 0 0 .2.168a.119.119 0 0 0-.035.088V.32C.166.356.177.385.2.41A.119.119 0 0 0 .29.444h.066C.37.444.377.437.377.421S.37.397.355.397H.289m0 .134A.233.233 0 0 1 .117.46a.236.236 0 0 1-.07-.172c0-.066.023-.123.07-.17A.233.233 0 0 1 .29.046C.356.046.413.07.46.117c.047.047.07.104.07.171A.236.236 0 0 1 .46.46a.233.233 0 0 1-.171.07m0 .047c.08 0 .148-.028.204-.084A.278.278 0 0 0 .577.288.278.278 0 0 0 .492.084.278.278 0 0 0 .29 0a.278.278 0 0 0-.205.085A.277.277 0 0 0 0 .288c0 .08.028.148.084.204A.278.278 0 0 0 .29.577z"/></symbol><symbol id="ab"><path d="M.342.146A.142.142 0 0 0 .3.042.142.142 0 0 0 .195 0H.146a.141.141 0 0 0-.103.043A.141.141 0 0 0 0 .146v.391c0 .04.014.075.043.104a.141.141 0 0 0 .103.043h.05C.235.684.27.669.298.64A.14.14 0 0 0 .342.537v-.39m-.049 0v.39c0 .027-.01.05-.028.069a.095.095 0 0 1-.07.029H.146A.094.094 0 0 1 .078.606a.094.094 0 0 1-.03-.069v-.39c0-.027.01-.05.03-.07A.094.094 0 0 1 .146.05h.05c.026 0 .05.01.069.028.019.02.028.042.028.07z"/></symbol><use xlink:href="#v" transform="matrix(0 -13.68547 -14.40576 -4.98155 -523.616 785.8)"/><use xlink:href="#aa" transform="matrix(0 -13.68547 -14.40576 -4.98155 -525.241 781.21)"/><use xlink:href="#X" transform="matrix(0 -13.68547 -14.40576 -4.98155 -523.616 770.68)"/><use xlink:href="#ab" transform="matrix(0 -13.68547 -14.40576 -4.98155 -523.616 765.575)"/><use xlink:href="#X" transform="matrix(0 -13.68547 -14.40576 -4.98155 -523.616 760.458)"/><use xlink:href="#U" transform="matrix(0 -13.68547 -14.40576 -4.98155 -523.616 755.353)"/><use xlink:href="#O" transform="matrix(0 -13.68547 -14.40576 -4.98155 -523.616 747.572)"/><use xlink:href="#O" transform="matrix(0 -13.68547 -14.40576 -4.98155 -523.616 742.46)"/><use xlink:href="#O" transform="matrix(0 -13.68547 -14.40576 -4.98155 -523.616 737.349)"/><symbol id="ac"><path d="M.074.123a.227.227 0 0 0-.01-.051A3.207 3.207 0 0 1 .049.019C.046.006.038 0 .025 0 .008 0 0 .008 0 .023c0 .01.003.027.01.052l.015.052C.03.14.036.147.05.147.066.146.074.138.074.122m.098 0a.227.227 0 0 0-.01-.051A3.207 3.207 0 0 1 .146.019C.143.006.136 0 .123 0 .106 0 .098.008.098.023c0 .01.003.027.01.052l.015.052c.003.013.011.02.023.02.017 0 .026-.008.026-.024z"/></symbol><use xlink:href="#v" transform="matrix(0 -13.68547 -14.40576 -4.98155 -523.616 732.91)"/><use xlink:href="#ac" transform="matrix(0 -13.68547 -14.40576 -4.98155 -531.354 726.58)"/><use xlink:href="#R" transform="matrix(0 -13.68547 -14.40576 -4.98155 -523.623 726.026)"/><use xlink:href="#S" transform="matrix(0 -13.68547 -14.40576 -4.98155 -523.616 720.46)"/><use xlink:href="#N" transform="matrix(0 -13.68547 -14.40576 -4.98155 -523.616 716.015)"/><use xlink:href="#O" transform="matrix(0 -13.68547 -14.40576 -4.98155 -523.616 710.903)"/><use xlink:href="#t" transform="matrix(0 -13.68547 -14.40576 -4.98155 -523.616 705.793)"/><use xlink:href="#T" transform="matrix(0 -13.68547 -14.40576 -4.98155 -526.395 699.721)"/><symbol id="ad"><path d="M.195.44H.05V.023C.049.008.04 0 .024 0 .008 0 0 .008 0 .024v.44C0 .48.008.488.024.488h.318C.368.488.392.478.41.46A.094.094 0 0 0 .439.391V.024C.44.008.431 0 .415 0S.391.008.391.024v.367a.046.046 0 0 1-.015.034.046.046 0 0 1-.034.014H.244V.024C.244.008.236 0 .22 0 .203 0 .195.008.195.024V.44z"/></symbol><symbol id="ae"><path d="M.342.024C.342.008.334 0 .317 0 .301 0 .293.008.293.024v.44c0 .016.008.024.024.024C.334.488.342.48.342.464v-.44M.244.098c0-.027-.01-.05-.029-.07A.094.094 0 0 0 .146 0H.024C.008 0 0 .008 0 .024v.44C0 .48.008.488.024.488.041.488.05.48.05.464V.269h.097c.028 0 .05-.01.07-.03A.094.094 0 0 0 .243.172V.098m-.049 0V.17a.046.046 0 0 1-.014.034.046.046 0 0 1-.035.015H.05V.049h.097c.014 0 .025.005.035.014.01.01.014.021.014.035z"/></symbol><use xlink:href="#S" transform="matrix(0 -13.68547 -14.40576 -4.98155 -523.616 696.242)"/><use xlink:href="#G" transform="matrix(0 -13.68547 -14.40576 -4.98155 -523.616 691.797)"/><use xlink:href="#E" transform="matrix(0 -13.68547 -14.40576 -4.98155 -523.616 687.352)"/><use xlink:href="#ad" transform="matrix(0 -13.68547 -14.40576 -4.98155 -523.616 682.908)"/><use xlink:href="#u" transform="matrix(0 -13.68547 -14.40576 -4.98155 -523.616 676.685)"/><use xlink:href="#B" transform="matrix(0 -13.68547 -14.40576 -4.98155 -523.616 672.24)"/><use xlink:href="#ae" transform="matrix(0 -13.68547 -14.40576 -4.98155 -523.616 667.13)"/><use xlink:href="#v" transform="matrix(0 -13.68547 -14.40576 -4.98155 -523.616 662.687)"/><use xlink:href="#H" transform="matrix(0 -13.68547 -14.40576 -4.98155 -523.616 658.682)"/><use xlink:href="#C" transform="matrix(0 -13.68547 -14.40576 -4.98155 -520.803 655.21)"/><use xlink:href="#A" transform="matrix(0 -13.68547 -14.40576 -4.98155 -523.616 649.792)"/><use xlink:href="#u" transform="matrix(0 -13.68547 -14.40576 -4.98155 -523.616 645.348)"/><use xlink:href="#z" transform="matrix(0 -13.68547 -14.40576 -4.98155 -523.616 640.896)"/><use xlink:href="#ad" transform="matrix(0 -13.68547 -14.40576 -4.98155 -523.616 636.458)"/><use xlink:href="#G" transform="matrix(0 -13.68547 -14.40576 -4.98155 -523.616 630.236)"/><use xlink:href="#C" transform="matrix(0 -13.68547 -14.40576 -4.98155 -520.803 626.765)"/><use xlink:href="#A" transform="matrix(0 -13.68547 -14.40576 -4.98155 -523.616 621.347)"/><use xlink:href="#K" transform="matrix(0 -13.68547 -14.40576 -4.98155 -523.616 616.902)"/><use xlink:href="#L" transform="matrix(0 -13.68547 -14.40576 -4.98155 -523.595 612.538)"/><use xlink:href="#M" transform="matrix(0 -13.68547 -14.40576 -4.98155 -523.616 608.013)"/><use xlink:href="#G" transform="matrix(0 -13.68547 -14.40576 -4.98155 -523.616 603.568)"/><use xlink:href="#y" transform="matrix(0 -13.68547 -14.40576 -4.98155 -523.616 599.13)"/><symbol id="af"><path d="M.074.123.05.019C.046.006.038 0 .025 0 .008 0 0 .008 0 .023l.025.104C.03.14.036.147.05.147.066.146.074.138.074.122z"/></symbol><use xlink:href="#ac" transform="matrix(0 -13.68547 -14.40576 -4.98155 -531.354 592.348)"/><use xlink:href="#af" transform="matrix(0 -13.68547 -14.40576 -4.98155 -522.139 592.645)"/><use xlink:href="#v" transform="matrix(0 -13.68547 -14.40576 -4.98155 -523.616 590.677)"/><symbol id="ag"><path d="M.049.342h.146c.027 0 .05.01.07.028.019.019.028.042.028.068v.099c0 .026-.01.05-.029.068a.094.094 0 0 1-.069.029H.05V.342m0-.049V.024C.049.008.04 0 .024 0 .008 0 0 .008 0 .024v.634c0 .016.008.025.024.025h.171C.235.683.27.668.3.64A.139.139 0 0 0 .342.537V.438A.14.14 0 0 0 .3.335.142.142 0 0 0 .195.293H.05z"/></symbol><use xlink:href="#ag" transform="matrix(0 -13.68547 -14.40576 -4.98155 -523.623 586.671)"/><use xlink:href="#A" transform="matrix(0 -13.68547 -14.40576 -4.98155 -523.616 581.562)"/><use xlink:href="#E" transform="matrix(0 -13.68547 -14.40576 -4.98155 -523.616 577.118)"/><use xlink:href="#E" transform="matrix(0 -13.68547 -14.40576 -4.98155 -523.616 572.673)"/><use xlink:href="#G" transform="matrix(0 -13.68547 -14.40576 -4.98155 -523.616 568.228)"/><use xlink:href="#y" transform="matrix(0 -13.68547 -14.40576 -4.98155 -523.616 563.79)"/><symbol id="ah"><path d="M.024.049C.041.049.05.04.05.024.049.008.04 0 .024 0 .008 0 0 .008 0 .024 0 .041.008.05.024.05z"/></symbol><use xlink:href="#ah" transform="matrix(0 -13.68547 -14.40576 -4.98155 -523.616 559.34)"/><use xlink:href="#v" transform="matrix(0 -13.68547 -14.40576 -4.98155 -523.616 558.231)"/><symbol id="ai"><path d="M.049.39H.17C.198.39.22.4.24.42c.019.02.029.043.029.07v.048c0 .027-.01.05-.03.069a.094.094 0 0 1-.068.029H.049V.39m0-.341h.146c.027 0 .05.01.07.028.019.02.028.042.028.07v.097c0 .027-.01.05-.028.069a.095.095 0 0 1-.07.028H.05V.05M.024 0C.008 0 0 .008 0 .024V.66c0 .016.008.025.024.025h.147C.21.684.246.669.274.64A.141.141 0 0 0 .317.537V.488A.141.141 0 0 0 .263.374a.143.143 0 0 0 .08-.13V.146A.14.14 0 0 0 .297.044.14.14 0 0 0 .195 0h-.17z"/></symbol><use xlink:href="#ai" transform="matrix(0 -13.68547 -14.40576 -4.98155 -523.616 554.227)"/><use xlink:href="#E" transform="matrix(0 -13.68547 -14.40576 -4.98155 -523.616 549.115)"/><use xlink:href="#u" transform="matrix(0 -13.68547 -14.40576 -4.98155 -523.616 544.67)"/><use xlink:href="#H" transform="matrix(0 -13.68547 -14.40576 -4.98155 -523.616 536.893)"/><use xlink:href="#C" transform="matrix(0 -13.68547 -14.40576 -4.98155 -520.803 533.421)"/><use xlink:href="#L" transform="matrix(0 -13.68547 -14.40576 -4.98155 -523.595 528.084)"/><use xlink:href="#K" transform="matrix(0 -13.68547 -14.40576 -4.98155 -523.616 523.559)"/><use xlink:href="#L" transform="matrix(0 -13.68547 -14.40576 -4.98155 -523.595 519.195)"/><use xlink:href="#v" transform="matrix(0 -13.68547 -14.40576 -4.98155 -523.616 515.335)"/><symbol id="aj"><path d="M.489.024C.489.008.48 0 .464 0 .448 0 .44.008.44.024v.073H.098c-.027 0-.05.01-.07.028A.095.095 0 0 0 0 .195v.367c0 .016.008.024.024.024C.041.586.05.578.05.562V.195A.048.048 0 0 1 .098.146h.097v.416c0 .016.008.024.025.024.016 0 .024-.008.024-.024V.146h.147v.416c0 .016.008.024.025.024C.432.586.44.578.44.562V.146h.024C.481.146.49.138.49.122V.024z"/></symbol><use xlink:href="#J" transform="matrix(0 -13.68547 -14.40576 -4.98155 -523.616 511.356)"/><use xlink:href="#L" transform="matrix(0 -13.68547 -14.40576 -4.98155 -523.595 507.187)"/><use xlink:href="#aj" transform="matrix(0 -13.68547 -14.40576 -4.98155 -522.216 503.147)"/><use xlink:href="#G" transform="matrix(0 -13.68547 -14.40576 -4.98155 -523.616 495.995)"/><use xlink:href="#aj" transform="matrix(0 -13.68547 -14.40576 -4.98155 -522.216 492.034)"/><use xlink:href="#u" transform="matrix(0 -13.68547 -14.40576 -4.98155 -523.616 484.884)"/><use xlink:href="#M" transform="matrix(0 -13.68547 -14.40576 -4.98155 -523.616 480.44)"/><use xlink:href="#ae" transform="matrix(0 -13.68547 -14.40576 -4.98155 -523.616 475.994)"/><use xlink:href="#ah" transform="matrix(0 -13.68547 -14.40576 -4.98155 -523.616 470.88)"/></svg>