<svg xmlns="http://www.w3.org/2000/svg" width="338.56" height="775.04" viewBox="0 0 253.92 581.28"><g stroke-linecap="round" stroke-linejoin="round" fill="none" stroke="#000"><path stroke-width="1.68007" d="m118.596 142.78 4.525 2.501zM123.12 145.28l3.573 2.383zM126.693 147.662l1.786 1.191zM128.479 148.853l.208.268zM128.687 149.121l.447.298zM129.134 149.419l.893.595zM130.027 150.014l1.756 1.43zM131.783 151.443l3.304 2.59zM135.087 154.033l4.763 4.465zM139.85 158.498l.238.03zM140.088 158.528l.417.536zM140.505 159.064l1.102.863zM141.607 159.927l1.726 1.667zM143.333 161.594l3.394 3.81zM146.727 165.404l2.798 2.77zM149.525 168.173l1.28 1.37zM150.805 169.542l.625.804zM151.43 170.346l.208.268zM151.638 170.614l.417.536zM152.055 171.15l.864.833zM152.918 171.983l1.697 1.906zM154.615 173.888l2.114 2.442zM156.729 176.33l3.394 3.81zM160.122 180.14l2.114 2.441zM162.236 182.58l.208.269zM162.444 182.849l.417.536zM162.861 183.385l.834 1.071zM163.695 184.456l1.667 2.144zM165.362 186.6l3.096 4.257zM168.458 190.857l3.483 5.03zM171.94 195.887l.209.268zM172.149 196.155l.417.536zM172.566 196.691l.803 1.31zM173.37 198l1.607 2.62zM174.977 200.62l3.215 5.24zM178.192 205.86l4.138 7.532zM182.33 213.391l.595 1.042zM182.925 214.433l.178.506zM183.103 214.94l.387.773zM183.49 215.713l.983 1.816zM184.473 217.53l1.756 3.363zM186.23 220.893l3.72 6.996zM189.95 227.888l4.734 10.51zM194.683 238.397l.417.536zM195.1 238.933l.357 1.012zM195.457 239.945l.923 2.292zM196.38 242.237l1.876 4.346zM198.255 246.583l3.513 8.663zM201.768 255.246l4.198 12.86zM205.965 268.106l.417.535zM206.382 268.641l.328 1.25zM206.71 269.892l.655 2.5zM207.364 272.392l1.578 4.793zM208.942 277.185l2.62 10.003zM211.562 287.187l2.917 11.491zM214.479 298.678l-.09.714zM214.39 299.392l.327 1.25zM214.717 300.642l.417 2.471zM215.134 303.113l1.072 4.972zM216.206 308.085l1.369 10.33zM217.575 318.414l1.607 10.36zM219.182 328.774l.06 1.458zM219.242 330.232l.178.506zM219.42 330.738l.09 1.22zM219.51 331.959l.149 2.68zM219.659 334.638l.565 5.15zM220.224 339.788l1.131 10.3zM221.355 350.088l.923 11.967zM222.278 362.055l.12.982zM222.397 363.037l.03 1.697zM222.427 364.734l.06 3.394zM222.486 368.127l.358 6.818zM222.844 374.944v13.546zM222.844 388.49l-.626 18.546zM222.218 407.035l-.416 7.204zM188.045 306.983l.238.03zM188.045 306.983l.238.03zM115.976 146.323l2.5 3.215zM118.477 149.538l1.012 1.578zM119.489 151.116l.595 1.041zM120.084 152.157l.208.268zM120.292 152.425l.179.506zM120.471 152.931l.208.268zM120.68 153.2l.208.267zM120.888 153.467l.178.506zM121.066 153.973l.239.03zM121.305 154.003l-.03.238zM121.275 154.241l.208.268zM121.483 154.51l.625.803zM122.108 155.313l1.012 1.578zM123.12 156.89l.804 1.31zM123.924 158.2l.596 1.042zM124.52 159.242l.625.804zM125.145 160.046l.803 1.31zM125.948 161.356l.774 1.548zM126.722 162.904l1.4 2.352zM128.121 165.256l.209.268zM128.33 165.523l.208.268zM128.538 165.791l.417.536zM128.955 166.327l.595 1.042zM129.55 167.37l.953 2.053zM130.503 169.423l1.965 3.632zM132.468 173.055l.982 1.816zM133.45 174.87l.387.775zM133.837 175.645l.179.506zM134.016 176.15l.416.537zM134.432 176.687l.179.506zM134.61 177.193l.18.506zM134.79 177.699l.387.774zM135.177 178.473l.387.774zM135.564 179.247l.178.506zM135.742 179.753l.417.536zM136.159 180.289l.595 1.042zM136.754 181.33l.744 1.787zM137.498 183.117l.626.803zM138.124 183.92l.178.506zM138.302 184.426l.357 1.013zM138.66 185.439l.386.774zM139.046 186.213l.596 1.042zM139.642 187.254l.774 1.548zM140.416 188.802l1.16 2.322zM141.577 191.124l1.19 2.084zM142.767 193.208l.209.268zM142.976 193.476l.178.506zM143.154 193.982l.566 1.28zM143.72 195.262l.923 2.292zM144.643 197.554l2.352 4.406zM146.994 201.96l1.102 2.798zM148.096 204.758l.536 1.519zM148.632 206.276l.416.536zM149.048 206.812l.745 1.787zM149.793 208.598l1.518 3.335zM151.31 211.933l1.34 2.828zM152.65 214.76l1.876 4.347zM154.526 219.107l2.798 6.638zM157.324 225.745l.208.268zM157.532 226.013l.179.506zM157.711 226.519l.387.774zM158.098 227.293l.744 1.786zM158.842 229.08l1.489 3.571zM160.33 232.651l2.77 6.877zM163.099 239.528l2.798 6.638zM165.897 246.166l1.28 3.305zM167.177 249.47l1.816 4.823zM168.993 254.293l2.024 5.09zM171.017 259.383l2.918 7.621zM173.935 267.004l4.376 11.432zM178.31 278.435l.18.506zM178.49 278.941l.327 1.25zM178.817 280.192l.922 2.292zM179.74 282.484l1.607 4.554zM181.347 287.038l3.394 9.616zM184.74 296.653l3.751 10.628zM188.491 307.28l.15.745zM188.64 308.025l.357 1.012zM188.997 309.037l.655 2.5zM189.652 311.538l1.578 4.793zM191.23 316.33l3.155 9.586zM194.385 325.916l3.245 10.806zM197.63 336.722l.179.506zM197.809 337.228l.327 1.25zM198.136 338.478l.685 2.263zM198.82 340.74l1.34 4.764zM200.16 345.503l1.995 7.264zM202.155 352.767l1.012 3.513zM203.167 356.28l2.322 8.514zM205.489 364.793l4.197 14.796zM209.686 379.588l1.161 4.257zM210.847 383.845l1.608 6.49zM212.454 390.335l2.65 9.764zM215.104 400.099l3.274 14.438zM115.976 146.323l-.566-1.28zM115.41 145.043l.417-1.4zM115.827 143.644l1.31-.804zM117.137 142.84l1.459-.06zM218.378 414.536l.596 1.042zM218.974 415.578l1.429.179zM220.403 415.757l1.041-.596zM221.444 415.161l.358-.922z"/><path stroke-width=".48002" d="m115.976 146.323 2.62-3.543zM120.084 152.157l6.609-4.495zM128.33 165.523l11.55-7.263zM135.564 179.247l15.867-8.902zM142.559 192.94l19.47-10.628zM149.257 207.08l22.714-11.431zM155.478 221.16l24.888-11.401zM167.177 249.47l27.329-11.58zM178.102 278.167l27.895-10.3zM188.283 307.013l25.989-8.604zM197.451 336.216l21.613-6.49zM205.846 365.805l16.492-4.227zM213.973 395.604l8.96-2.025zM218.378 414.536l3.424-.297zM220.075 414.507l-1.459-17.356zM218.616 397.152l-2.381-19.649zM216.235 377.504l-.327-1.25zM215.223 372.057l-.447-4.168zM214.092 363.692l-.209-.268zM213.883 363.424l-.148-.744zM213.735 362.68l-.268-1.727zM213.467 360.953l-.566-3.215zM212.901 357.738l-1.101-6.668zM211.8 351.07l-2.471-13.128zM209.329 337.942l-1.042-5.21zM208.287 332.733l-.179-.506zM208.108 332.227l-.327-1.25zM207.781 330.976l-.417-2.47zM207.364 328.506l-.625-2.74zM205.816 321.54l-.952-3.99zM203.941 313.324l-2.739-10.985zM201.202 302.34l-.178-.507zM201.024 301.833l-.328-1.25zM200.696 300.583l-.655-2.5zM200.041 298.082l-1.34-4.763zM198.702 293.32l-3.156-9.586zM195.546 283.734l-2.232-7.294zM191.885 272.392l-.179-.506zM191.706 271.886l-.357-1.012zM191.35 270.874l-.894-2.53zM189.027 264.295l-.178-.506zM188.849 263.79l-3.662-9.408zM185.187 254.382l-4.465-10.717zM180.722 243.666l-.149-.745zM180.573 242.921l-.595-1.041zM179.978 241.88l-.715-2.025zM179.263 239.855l-1.875-4.346zM177.388 235.51l-3.037-6.67zM172.417 224.971l-1.697-3.84zM168.785 217.261l-.179-.506zM168.606 216.755l-1.756-3.364zM166.85 213.391l-3.513-6.728zM163.337 206.664l-2.947-5.448zM160.39 201.216l-.208-.268zM160.182 200.948l-.387-.774zM159.795 200.174l-.566-1.28zM159.23 198.894l-1.608-2.62zM157.622 196.274l-3.007-4.971zM154.615 191.303l-2.203-3.662zM152.412 187.641l-.208-.267zM152.204 187.374l-.417-.536zM151.787 186.838l-.833-1.072zM150.954 185.766l-.983-1.816zM147.5 180.497l-.833-1.072zM146.667 179.425l-1.637-2.381zM142.56 173.59l-.18-.505zM142.38 173.085l-.625-.804zM141.755 172.28l-1.012-1.577zM140.743 170.703l-1.458-1.875zM139.285 168.828l-2.263-3.186zM137.022 165.643l-3.126-4.02zM133.897 161.624l-.209-.268zM133.688 161.356l-.417-.536zM133.271 160.82l-1.042-1.34zM132.23 159.48l-2.114-2.44zM130.116 157.04l-4.466-4.913zM125.65 152.128l-6.936-6.43zM118.715 145.698l-1.31-1.132z"/></g></svg>