<svg xmlns="http://www.w3.org/2000/svg" width="296.32" height="775.04" viewBox="0 0 222.24 581.28"><g stroke-linecap="round" stroke-linejoin="round" fill="none" stroke="#000"><path stroke-width="1.68" d="m151.68 135.12 4.56 1.68zM156.24 136.8l3.84 2.16zM160.08 138.96l.72.48zM160.8 139.44l.24.24zM161.04 139.68l.48.24zM161.52 139.92l.72.48zM162.24 140.4l1.44.96zM163.68 141.36l3.12 2.16zM166.8 143.52l4.08 3.6zM170.88 147.12h.24zM171.12 147.12l.48.48zM171.6 147.6l.72.72zM172.32 148.32l1.44 1.44zM173.76 149.76l2.88 2.88zM176.64 152.64l1.44 1.44zM178.08 154.08l.48.72zM178.56 154.8l.48.24zM179.04 155.04l.24.24zM179.28 155.28l.24.24zM179.52 155.52l.24.48zM179.76 156l.48.48zM180.24 156.48l.48.48zM180.72 156.96l.24.24zM180.96 157.2l.48.48zM181.44 157.68l.24.24zM181.68 157.92l.24.24zM181.92 158.16l.24.24zM182.16 158.4l.24.24zM182.4 158.64l.48.48zM182.88 159.12l.72.72zM183.6 159.84l.96.96zM184.56 160.8l1.2 1.68zM185.76 162.48l2.16 2.16zM187.92 164.64l1.92 2.64zM189.84 167.28l.24.24zM190.08 167.52l.24.48zM190.32 168l.72.72zM191.04 168.72l1.2 1.92zM192.24 170.64l1.92 3.36zM194.16 174l.96 1.68zM195.12 175.68l.48.72zM195.6 176.4l.24.48zM195.84 176.88l.24.24zM196.08 177.12l.24.24zM196.32 177.36l.24.48zM196.56 177.84l.24.48zM196.8 178.32l.24.48zM197.04 178.8l.24.24zM197.28 179.04l.24.72zM197.52 179.76l.72.96zM198.24 180.72l.24.72zM198.48 181.44l.48.48zM198.96 181.92l.24.48zM199.2 182.4l.24.48zM199.44 182.88l.24.72zM199.68 183.6l.72.96zM200.4 184.56l.96 1.44zM201.36 186l1.2 2.4zM202.56 188.4l1.92 3.6zM204.48 192l1.2 2.16zM205.68 194.16v.48zM205.68 194.64l.48.72zM206.16 195.36l.72 1.44zM206.88 196.8l1.2 2.88zM208.08 199.68l2.16 6zM210.24 205.68l2.64 9.12zM212.88 214.8l.24.48zM213.12 215.28l.24.96zM213.36 216.24l.48 1.92zM213.84 218.16l.96 3.6zM214.8 221.76l1.68 7.44zM216.48 229.2l1.92 10.8zM218.4 240l.24.48zM218.64 240.48v.96zM218.64 241.44l.24 2.16zM218.88 243.6l.72 4.08zM219.6 247.68l.72 8.4zM220.32 256.08l.24 9.6zM220.56 265.68v.48zM220.56 266.16v.96zM220.56 267.12v2.16zM220.56 269.28l-.24 4.08zM220.32 273.36l-.48 8.4zM219.84 281.76l-.96 9.6zM218.88 291.36l-.24.48zM218.64 291.84v1.2zM218.64 293.04l-.24 1.92zM218.4 294.96l-.72 4.32zM217.68 299.28l-1.44 8.16zM216.24 307.44l-2.16 9.6zM214.08 317.04l-.24.72zM213.84 317.76l-.24 1.44zM213.6 319.2l-.72 2.64zM212.88 321.84l-1.44 5.28zM211.44 327.12l-3.12 10.56zM208.32 337.68l-4.8 13.68zM203.52 351.36l-2.4 5.76zM148.08 140.16l1.2 1.92zM149.28 142.08l.48.96zM149.76 143.04l.24.48zM150 143.52l.24.24zM150.24 143.76v.24zM150.24 144l.24.24zM150.48 144.24v.24zM150.48 144.48l.24.24zM150.72 144.72l.24.48zM150.96 145.2l.24.24zM151.2 145.44v.24zM151.2 145.68l.24.24zM151.44 145.92l.24.48zM151.68 146.4l.72 1.2zM152.4 147.6l.72.96zM153.12 148.56l.48.72zM153.6 149.28l.24.48zM153.84 149.76l.48.72zM154.32 150.48l.48.72zM154.8 151.2l.72 1.44zM155.52 152.64l1.2 1.68zM156.72 154.32v.48zM156.72 154.8l.24.24zM156.96 155.04l.24.24zM157.2 155.28l.24.96zM157.44 156.24l.96 1.68zM158.4 157.92l1.2 2.88zM159.6 160.8l.48 1.44zM160.08 162.24l.48.72zM160.56 162.96v.24zM160.56 163.2v.24zM160.56 163.44l.24.48zM160.8 163.92l.24.24zM161.04 164.16l.24.48zM161.28 164.64l.24.96zM161.52 165.6l.24.48zM161.76 166.08v.24zM161.76 166.32l.24.48zM162 166.8l.48.96zM162.48 167.76l.48 1.44zM162.96 169.2l.24.72zM163.2 169.92l.24.24zM163.44 170.16l.24.48zM163.68 170.64v.24zM163.68 170.88l.24.72zM163.92 171.6l.48.72zM164.4 172.32l.48 1.2zM164.88 173.52l.72 1.68zM165.6 175.2l.96 2.16zM166.56 177.36v.24zM166.56 177.6l.24.48zM166.8 178.08l.24.96zM167.04 179.04l.72 1.92zM167.76 180.96l.96 3.12zM168.72 184.08l.48 1.44zM169.2 185.52l.24.72zM169.44 186.24l.24.48zM169.68 186.72l.24.96zM169.92 187.68v.48zM169.92 188.16l.24.72zM170.16 188.88l.24.24zM170.4 189.12v.24zM170.4 189.36l.24.48zM170.64 189.84l.24 1.2zM170.88 191.04l.48 1.44zM171.36 192.48l.24.72zM171.6 193.2l.72 1.92zM172.32 195.12l.24.72zM172.56 195.84l.48 1.44zM173.04 197.28l.72 1.92zM173.76 199.2l.72 3.12zM174.48 202.32l.72 1.92zM175.2 204.24l.24.48zM175.44 204.72v.72zM175.44 205.44l.48 1.44zM175.92 206.88l.72 2.64zM176.64 209.52l1.44 5.76zM178.08 215.28l1.44 5.28zM179.52 220.56l.48 2.64zM180 223.2l.48 1.44zM180.48 224.64l.48 2.4zM180.96 227.04l1.2 5.28zM182.16 232.32l2.16 9.12zM184.32 241.44l1.2 5.52zM185.52 246.96v.48zM185.52 247.44l.24.96zM185.76 248.4l.48 1.92zM186.24 250.32l.72 3.84zM186.96 254.16l1.44 7.68zM188.4 261.84l1.44 8.64zM189.84 270.48v.48zM189.84 270.96v.96zM189.84 271.92l.48 1.92zM190.32 273.84l.48 3.84zM190.8 277.68l.96 7.68zM191.76 285.36l.96 8.88zM192.72 294.24v.48zM192.72 294.72v.96zM192.72 295.68l.24 1.92zM192.96 297.6l.24 4.08zM193.2 301.68l.72 6.48zM193.92 308.16l.48 8.16zM194.4 316.32l1.2 12.96zM195.6 329.28l.24 5.04zM195.84 334.32l.48 7.2zM196.32 341.52l.48 10.8zM196.8 352.32v3.84zM151.68 135.12l-1.68-.24zM150 134.88l-1.68.96zM148.32 135.84l-.96 1.44zM147.36 137.28v1.92zM147.36 139.2l.72.96zM196.8 356.16l.48 1.44zM197.28 357.6l1.2.72zM198.48 358.32h1.44zM199.92 358.32l1.2-.96zM201.12 357.36v-.24z"/><path stroke-width=".48" d="m148.08 140.16 3.6-5.04zM156.72 154.56l14.16-7.44zM150.24 144l9.12-5.52zM161.76 166.08l18.96-9.12zM166.32 177.36l23.52-10.32zM170.16 188.88l26.88-10.08zM174 200.4l29.76-9.84zM180.24 223.44l32.64-8.88zM185.52 246.72l32.88-6.96zM189.6 270.24l30.96-4.8zM192.48 294l26.4-2.88zM194.64 318l19.44-1.44zM196.32 342.24l10.8-.48zM196.8 356.16l4.32.96zM198.96 356.64l2.4-12zM201.36 344.64l1.68-13.92zM203.04 330.72l1.2-10.32zM204.48 316.08v-.96zM204.48 315.12l.24-2.64zM204.72 312.48V312zM204.96 307.68l.24-.48zM205.2 307.2l.48-10.32zM205.68 296.88v-4.56zM205.68 292.32v-.48zM205.68 291.84v-.96zM205.68 290.88v-2.16zM205.68 288.72v-3.84zM205.68 284.88v-8.16zM205.68 276.72l-.48-5.76zM204.96 266.88v-.72zM204.96 266.16l-.24-2.16zM204.72 264v-1.44zM204.24 258.24l-.96-6zM203.28 252.24l-1.44-9.36zM201.84 242.88v-.48zM201.84 242.4l-.24-.96zM201.6 241.44l-.48-1.92zM201.12 239.52l-.72-3.84zM200.4 235.68l-1.68-7.92zM198.72 227.76l-1.44-5.52zM196.32 218.16l-.24-.72zM196.08 217.44l-.48-1.68zM195.6 215.76l-.48-1.68zM193.92 210l-1.44-5.04zM192.48 204.96l-2.16-6zM190.32 198.96l-.24-.24zM190.08 198.72l-.24-.72zM189.84 198l-.48-1.44zM189.36 196.56l-1.2-2.88zM188.16 193.68l-1.44-3.36zM186.72 190.32l-.96-1.68zM185.76 188.64l-.24-.96zM185.52 187.68l-.24-.24zM185.28 187.44l-.48-1.2zM184.8 186.24l-.48-.72zM184.32 185.52l-.48-1.2zM183.84 184.32l-.24-.72zM183.6 183.6l-.24-.24zM183.36 183.36l-.24-.48zM183.12 182.88l-.24-.48zM182.88 182.4v-.24zM182.88 182.16l-.24-.72zM182.64 181.44l-.24-.24zM182.4 181.2l-.24-.72zM182.16 180.48l-.48-.96zM181.68 179.52l-.48-1.2zM181.2 178.32l-.96-1.92zM180.24 176.4l-.24-.24zM178.08 172.32v-.24zM178.08 172.08l-.24-.24zM177.84 171.84l-.24-.48zM177.6 171.36l-.48-.72zM177.12 170.64l-.96-1.92zM176.16 168.72h-.24zM173.76 165.12l-.48-.72zM173.28 164.4l-.72-.72zM172.56 163.68l-.24-.48zM172.32 163.2l-.24-.48zM172.08 162.72l-.24-.24zM171.84 162.48l-.24-.24zM171.6 162.24l-.24-.72zM171.36 161.52l-.24-.24zM171.12 161.28l-.24-.24zM170.88 161.04l-.24-.48zM170.64 160.56l-.48-.72zM170.16 159.84l-.24-.24zM169.92 159.6l-.24-.48zM169.68 159.12l-.24-.48zM169.44 158.64l-.48-.48zM168.96 158.16l-.48-.72zM168.48 157.44l-.72-.96zM167.76 156.48l-.96-1.68zM166.8 154.8l-1.68-2.4zM165.12 152.4l-1.44-1.68zM163.68 150.72l-.24-.24zM163.44 150.48l-.48-.72zM162.96 149.76l-.72-.96zM162.24 148.8l-1.68-1.92zM160.56 146.88l-3.6-3.84zM156.96 143.04l-5.52-4.32zM151.44 138.72l-1.68-1.2z"/></g></svg>