<svg xmlns="http://www.w3.org/2000/svg" width="452.8" height="775.04" viewBox="0 0 339.6 581.28"><g stroke-linecap="round" stroke-linejoin="round" fill="none" stroke="#000"><path stroke-width="1.68" d="m186 77.52 4.8 1.92zM190.8 79.44l3.6 1.68zM194.4 81.12l1.92 1.2zM196.32 82.32h.24zM196.56 82.32l.24.24zM196.8 82.56l.48.24zM197.28 82.8l.96.48zM198.24 83.28l1.92 1.2zM200.16 84.48l3.6 2.16zM203.76 86.64l5.28 3.6zM209.04 90.24l.24.24zM209.28 90.48l.48.48zM209.76 90.96l.96.72zM210.72 91.68l2.16 1.44zM212.88 93.12l3.84 3.12zM216.72 96.24l3.12 2.64zM219.84 98.88l1.44 1.2zM221.28 100.08l.72.72zM222 100.8l.24.24zM222.24 101.04l.48.24zM222.72 101.28l.96.96zM223.68 102.24l1.92 1.44zM225.6 103.68l2.4 2.4zM228 106.08l3.84 3.36zM231.84 109.44l2.4 2.16zM234.24 111.6l.24.24zM234.48 111.84l.48.48zM234.96 112.32l.96.96zM235.92 113.28l1.92 1.92zM237.84 115.2l3.6 3.6zM241.44 118.8l4.08 4.8zM245.52 123.6l.24.24zM245.76 123.84l.48.48zM246.24 124.32l.96 1.2zM247.2 125.52l1.92 2.4zM249.12 127.92l3.84 4.8zM252.96 132.72l5.04 6.96zM258 139.68l.72.96zM258.72 140.64l.24.24zM258.96 140.88l.48.96zM259.44 141.84l1.2 1.44zM260.64 143.28l2.16 3.36zM262.8 146.64l4.32 6.48zM267.12 153.12l6.24 9.84zM273.36 162.96l.24.48zM273.6 163.44l.72.96zM274.32 164.4l1.2 1.92zM275.52 166.32l2.4 4.08zM277.92 170.4l4.32 8.4zM282.24 178.8l6 12zM288.24 190.8l.24.72zM288.48 191.52l.72 1.2zM289.2 192.72l.96 2.16zM290.16 194.88l2.16 4.8zM292.32 199.68l3.84 9.36zM296.16 209.04l4.08 11.28zM300.24 220.32l.24.72zM300.48 221.04l.48 1.2zM300.96 222.24l.72 2.4zM301.68 224.64l1.68 4.8zM303.36 229.44l2.64 9.84zM306 239.28l2.64 10.32zM308.64 249.6l.48 1.2zM309.12 250.8v.72zM309.12 251.52l.48 1.2zM309.6 252.72l.48 2.64zM310.08 255.36l1.2 5.04zM311.28 260.4l2.4 10.08zM313.68 270.48l2.4 11.76zM316.08 282.24l.24.72zM316.32 282.96l.24 1.68zM316.56 284.64l.48 3.36zM317.04 288l1.2 6.72zM318.24 294.72l1.68 13.68zM319.92 308.4l1.68 18.48zM321.6 326.88l.48 7.2zM261.84 204.48v-.24zM275.28 231.84h.24zM183.84 81.36l2.88 2.88zM186.72 84.24l1.2 1.44zM187.92 85.68l.72.72zM188.64 86.4l.24.48zM188.88 86.88l.24.24zM189.12 87.12l.24.24zM189.36 87.36l.24.48zM189.6 87.84l.24.24zM189.84 88.08v.24zM189.84 88.32l.24.24zM190.08 88.56l.24.24zM190.32 88.8l.72.72zM191.04 89.52l1.2 1.44zM192.24 90.96l.96 1.2zM193.2 92.16l.72.96zM193.92 93.12l.72.72zM194.64 93.84l.72.96zM195.36 94.8l1.2 1.68zM196.56 96.48l1.68 1.92zM198.24 98.4l.24.48zM198.48 98.88l.24.24zM198.72 99.12l.24.48zM198.96 99.6l.72.96zM199.68 100.56l1.44 1.92zM201.12 102.48l2.4 3.36zM203.52 105.84l1.2 1.68zM204.72 107.52l.48.72zM205.2 108.24l.24.48zM205.44 108.72l.48.48zM205.92 109.2v.48zM205.92 109.68l.48.24zM206.4 109.92l.48.72zM206.88 110.64l.48.96zM207.36 111.6l.24.24zM207.6 111.84l.48.48zM208.08 112.32l.72 1.2zM208.8 113.52l.96 1.44zM209.76 114.96l.48.96zM210.24 115.92l.48.48zM210.72 116.4l.48.96zM211.2 117.36l.48.48zM211.68 117.84l.72 1.2zM212.4 119.04l.96 1.44zM213.36 120.48l1.44 2.16zM214.8 122.64l1.44 1.92zM216.24 124.56v.24zM216.24 124.8l.48.48zM216.72 125.28l.72.96zM217.44 126.24l1.2 2.16zM218.64 128.4l2.64 4.32zM221.28 132.72l1.68 2.64zM222.96 135.36l.72 1.2zM223.68 136.56l.48.72zM224.16 137.28l.96 1.68zM225.12 138.96l1.92 2.88zM227.04 141.84l1.68 2.88zM228.72 144.72l2.4 4.08zM231.12 148.8l3.6 6.24zM234.72 155.04l.24.24zM234.96 155.28l.24.48zM235.2 155.76l.48.72zM235.68 156.48l.96 1.68zM236.64 158.16l1.92 3.12zM238.56 161.28l3.6 6.72zM242.16 168l3.36 6.24zM245.52 174.24l1.92 3.12zM247.44 177.36l2.4 4.56zM249.84 181.92l2.64 4.8zM252.48 186.72l3.84 6.96zM256.32 193.68l5.76 11.04zM262.08 204.72l.24.48zM262.32 205.2l.48 1.2zM262.8 206.4l1.2 2.16zM264 208.56l2.16 4.32zM266.16 212.88l4.56 8.88zM270.72 221.76l4.8 10.32zM275.52 232.08l.24.48zM275.76 232.56l.72 1.2zM276.48 233.76l.96 2.4zM277.44 236.16l2.16 4.32zM279.6 240.48l4.08 9.12zM283.68 249.6l4.8 10.32zM288.48 259.92l.24.72zM288.72 260.64l.48.96zM289.2 261.6l.96 2.4zM290.16 264l1.92 4.56zM292.08 268.56l2.88 6.96zM294.96 275.52l1.44 3.36zM296.4 278.88l3.36 8.16zM299.76 287.04l6 14.16zM305.76 301.2l1.68 4.08zM307.44 305.28l2.4 6.24zM309.84 311.52l3.84 9.36zM313.68 320.88l5.04 13.92zM183.84 81.36l-.72-1.2zM183.12 80.16l.24-1.44zM183.36 78.72l1.2-.96zM184.56 77.76l1.44-.24zM318.72 334.8l.72.96zM319.44 335.76h1.2zM320.64 335.76l1.2-.72zM321.84 335.04l.24-.96z"/><path stroke-width=".48" d="m183.84 81.36 2.16-3.84zM188.64 86.4l6-5.04zM198.48 98.64l10.56-8.4zM207.36 111.6 222 100.56zM216 124.32l18-12.96zM224.16 137.52l21.36-14.16zM232.32 150.72l23.28-14.4zM247.44 177.36l25.68-14.88zM261.84 204.24l26.4-13.68zM275.52 231.84l24.72-11.76zM288.24 259.68l20.64-9.12zM300.24 288l15.6-6.48zM312 316.56l8.64-3.12zM318.72 334.8l3.36-.72zM320.4 334.32l-3.6-17.04zM316.8 317.28l-4.8-18.96zM312 298.32l-.48-1.44zM310.32 292.8l-1.2-4.08zM307.92 284.64l-.24-.96zM307.68 283.68l-.48-1.44zM307.2 282.24l-.96-3.36zM306.24 278.88l-1.92-6.24zM304.32 272.64l-4.08-12.72zM300.24 259.92l-1.68-5.04zM298.56 254.88l-.24-.72zM298.32 254.16l-.48-1.2zM297.84 252.96l-.72-2.4zM297.12 250.56l-.96-2.4zM294.72 244.08l-1.44-4.08zM291.84 236.16l-4.08-10.56zM287.76 225.6l-.24-.48zM287.52 225.12l-.48-1.2zM287.04 223.92l-.96-2.4zM286.08 221.52l-1.92-4.56zM284.16 216.96l-4.32-9.36zM279.84 207.6l-3.12-6.72zM274.8 197.04l-.24-.48zM274.56 196.56l-.48-1.2zM274.08 195.36l-1.2-2.16zM270.96 189.36l-.48-.72zM270.48 188.64l-4.56-8.88zM265.92 179.76l-5.76-10.08zM260.16 169.68l-.24-.48zM259.92 169.2l-.72-.96zM259.2 168.24l-1.2-1.92zM258 166.32l-2.16-4.08zM255.84 162.24 252 156zM249.6 152.4l-2.16-3.6zM245.04 145.2l-.24-.48zM244.8 144.72l-2.16-3.12zM242.64 141.6l-4.32-6.48zM238.32 135.12l-3.6-4.8zM234.72 130.32l-.24-.24zM234.48 130.08l-.48-.72zM234 129.36l-.72-1.2zM233.28 128.16l-1.92-2.4zM231.36 125.76l-3.6-4.56zM227.76 121.2l-2.88-3.36zM224.88 117.84v-.24zM224.88 117.6l-.48-.48zM224.4 117.12l-.96-.96zM223.44 116.16l-1.44-1.68zM219.36 111.36l-.96-.96zM218.4 110.4l-1.92-2.4zM213.6 104.88l-.24-.24zM213.36 104.64l-.96-.96zM212.4 103.68l-.96-1.2zM211.44 102.48l-1.68-1.92zM209.76 100.56l-2.64-2.64zM207.12 97.92l-3.6-3.6zM203.52 94.32l-.24-.24zM203.28 94.08l-.72-.72zM202.56 93.36l-.96-.96zM201.6 92.4l-2.4-2.4zM199.2 90l-5.04-4.08zM194.16 85.92l-7.68-5.52zM186.48 80.4l-1.44-.96z"/></g></svg>