<svg xmlns="http://www.w3.org/2000/svg" width="371.84" height="775.04" viewBox="0 0 278.88 581.28"><g stroke-linecap="round" stroke-linejoin="round" fill="none" stroke="#000"><path stroke-width="1.68" d="m14.878 126.057 4.253-.756zM19.131 125.3l4.936.343zM24.067 125.642l5.535.967zM29.602 126.609l2.767.483zM32.369 127.092l1.307.5zM33.676 127.591l.751.11zM34.427 127.701l.515.153zM34.942 127.854l.236-.042zM35.178 127.812l.515.152zM35.693 127.964l1.029.305zM36.722 128.269l1.544.457zM38.266 128.726l2.058.609zM40.324 129.335l3.046.677zM43.37 130.012l4.158 1.455zM47.528 131.467l2.295.567zM49.823 132.034l.278.194zM50.101 132.228l.751.11zM50.852 132.339l1.308.499zM52.16 132.838l2.336.803zM54.496 133.641l5.23 1.996zM59.726 135.637l5.745 2.148zM65.47 137.785l1.03.304zM66.5 138.09l.278.194zM66.778 138.284l.793.346zM67.571 138.63l1.308.5zM68.879 139.13l2.615.997zM71.494 140.127l5.508 2.19zM77.002 142.317l5.828 2.62zM82.83 144.937l.279.195zM83.109 145.132l.514.152zM83.623 145.284l1.35.735zM84.973 146.02l2.615.997zM87.588 147.017l5.077 2.51zM92.665 149.527l5.913 3.094zM98.578 152.62l.514.153zM99.092 152.773l.557.388zM99.649 153.161l1.628.93zM101.277 154.09l2.699 1.471zM103.976 155.561l5.954 3.33zM109.93 158.89l7.666 4.732zM117.596 163.622l1.114.777zM118.71 164.4l.514.152zM119.224 164.552l.835.583zM120.06 165.135l1.905 1.123zM121.965 166.258l3.576 2.29zM125.541 168.548l7.388 4.537zM132.929 173.085l10.255 6.953zM143.184 180.038l.556.389zM143.74 180.427l1.114.777zM144.854 181.204l1.99 1.596zM146.844 182.8l4.174 2.915zM151.018 185.715l8.197 6.343zM159.215 192.058l11.383 9.19zM170.598 201.248l.557.389zM171.155 201.637l1.155 1.013zM172.31 202.65l2.269 1.791zM174.579 204.441l4.3 3.623zM178.879 208.064l8.364 7.29zM187.244 215.353l9.603 8.775zM196.847 224.128l.557.389zM197.404 224.517l.919 1.055zM198.323 225.572l2.032 1.833zM200.355 227.405l4.106 3.902zM204.46 231.307l7.74 7.887zM212.2 239.194l8.979 9.374zM221.18 248.567l.362.667zM221.542 249.234l.918 1.056zM222.46 250.29l2.074 2.069zM224.534 252.359l3.676 4.222zM228.21 256.58l6.432 7.39zM234.642 263.97l3.119 3.833zM237.761 267.803l1.56 1.916zM239.32 269.72l2.159 2.541zM241.479 272.261l4.956 5.944zM246.435 278.205l4.637 5.514zM251.072 283.72l2.436 2.735zM253.508 286.455l3.44 4.264zM256.947 290.719l5.277 6.375zM262.224 297.094l7.561 9.626zM269.785 306.72l10.932 14.876zM14.878 126.057l4.395 1.413zM19.273 127.47l4.993 2.037zM24.267 129.507l3.533 2.054zM27.8 131.56l1.67 1.166zM29.47 132.726l.793.347zM30.263 133.073l.32.43zM30.583 133.504l.237-.042zM30.82 133.462l.278.194zM31.098 133.656l.278.194zM31.376 133.85l.278.194zM31.654 134.044l.279.195zM31.933 134.239l.556.388zM32.49 134.627l1.113.778zM33.603 135.405l1.906 1.123zM35.509 136.528l1.07.541zM36.58 137.07l.556.388zM37.136 137.458l1.072.54zM38.208 137.999l.556.388zM38.764 138.387l.835.583zM39.599 138.97l1.391.972zM40.99 139.942l1.907 1.124zM42.897 141.066l1.391.971zM44.288 142.037l.278.194zM44.566 142.231l.557.389zM45.123 142.62l1.071.54zM46.194 143.16l2.226 1.555zM48.42 144.715l4.411 2.873zM52.831 147.588l4.133 2.678zM56.964 150.266l1.67 1.166zM58.633 151.432l.279.194zM58.912 151.626l.556.389zM59.468 152.015l1.392.971zM60.86 152.986l2.226 1.555zM63.086 154.54l4.731 3.304zM67.817 157.844l9.42 6.37zM77.237 164.214l6.68 4.663zM83.916 168.877l2.825 2.18zM86.741 171.056l.515.153zM87.256 171.208l.556.39zM87.812 171.597l1.392.972zM89.204 172.569l2.546 1.985zM91.75 174.554l5.288 3.691zM97.038 178.245l10.617 7.62zM107.655 185.865l2.825 2.18zM110.48 188.044l5.608 4.123zM116.088 192.167l11.258 8.48zM127.346 200.648l.556.388zM127.902 201.036l.557.389zM128.46 201.425l1.112.777zM129.572 202.202l1.99 1.596zM131.562 203.798l4.175 2.915zM135.737 206.713l7.918 6.15zM143.655 212.862l16.35 12.451zM160.006 225.313l9.588 7.315zM169.594 232.628l8.475 6.538zM178.069 239.166l3.702 2.999zM181.77 242.165l.6.625zM182.37 242.79l1.112.777zM183.482 243.567l2.269 1.79zM185.75 245.357l4.26 3.388zM190.01 248.744l8.558 7.011zM198.568 255.755l4.579 3.818zM203.147 259.573l11.105 8.995zM214.252 268.568l22.531 18.422zM236.783 286.99l8.003 6.622zM244.786 293.612l11.788 10.093zM256.574 303.705l17.842 15.355zM274.416 319.06l11.079 10.219z"/><path stroke-width=".48" d="m29.706 132.684 2.705-5.355zM44.288 142.037l5.535-10.003zM58.633 151.432l7.631-13.3zM72.784 161.105l9.768-16.362zM86.7 170.82l11.6-18.394zM100.378 180.577l13.365-19.438zM127.86 200.8l15.046-20.956zM154.676 221.385 170.6 201.25zM181.492 241.97l15.035-18.272zM207.962 263.348l12.94-14.975zM234.237 285.005l9.4-10.202zM260.596 307.134l5.067-5.776zM285.453 329.042l-11.945-13.721zM273.508 315.32l-14.686-15.428zM258.821 299.893l-4.788-5zM251.082 292.005l-2.032-1.832zM249.05 290.173l-.961-1.292zM245.138 285.993l-.877-.82zM244.261 285.173l-5.944-6.012zM238.317 279.16l-8.254-8.04zM230.063 271.121l-3.828-3.707zM226.235 267.414l-5.902-5.777zM220.333 261.637l-6.18-5.97zM214.153 255.666l-.556-.388zM213.596 255.278l-.918-1.056zM212.678 254.222l-.877-.819zM208.613 250.557l-2.074-2.07zM206.54 248.488l-.877-.82zM202.475 244.823l-4.064-3.666zM198.411 241.157l-9.561-8.539zM188.85 232.619l-.557-.389zM188.293 232.23l-1.113-.777zM187.18 231.453l-2.032-1.833zM185.148 229.62l-4.3-3.623zM180.847 225.997l-8.558-7.011zM172.288 218.986l-5.371-4.164zM163.73 211.976l-1.392-.972zM162.338 211.004l-.556-.388zM161.782 210.616l-1.156-1.014zM160.626 209.602l-.278-.194zM156.967 206.84l-2.867-2.416zM154.1 204.424l-8.753-6.732zM145.346 197.692l-10.102-7.468zM135.244 190.225l-.557-.389zM134.687 189.836l-1.113-.777zM133.574 189.059l-1.948-1.36zM131.626 187.699l-4.216-3.151zM127.41 184.548l-7.987-5.162zM116.042 176.818l-3.576-2.29zM108.89 172.239l-.32-.43zM108.57 171.808l-3.576-2.29zM104.994 169.518l-7.152-4.579zM97.842 164.94l-5.482-3.414zM92.36 161.526l-.278-.194zM92.082 161.332l-.793-.347zM91.289 160.985l-1.391-.972zM89.898 160.013l-2.741-1.706zM87.157 158.307l-5.677-3.135zM81.48 155.172l-4.048-2.206zM77.432 152.966l-.278-.194zM77.154 152.772l-.557-.389zM76.597 152.383l-1.35-.735zM75.248 151.648l-2.421-1.276zM72.827 150.372l-3.77-2.012zM65.287 146.35l-2.978-1.666zM62.31 144.684l-.279-.194zM62.031 144.49l-.514-.152zM57.746 142.327l-.278-.195zM57.468 142.132l-4.285-2.163zM53.183 139.969l-6.385-3.01zM46.798 136.96l-.278-.195zM46.52 136.765l-.515-.152zM46.005 136.613l-1.35-.735zM44.656 135.878l-2.379-1.04zM42.277 134.838l-3.171-1.387zM39.106 133.451l-1.822-.65zM37.284 132.8l-1.35-.735zM35.934 132.065l-1.586-.693zM34.348 131.372l-1.307-.5zM33.04 130.873l-.277-.194zM32.763 130.679l-.515-.153zM32.248 130.526l-.515-.152zM31.733 130.374l-.556-.389zM31.177 129.985l-1.03-.304zM30.148 129.68l-1.586-.692zM28.562 128.988l-2.1-.846zM26.462 128.142l-3.366-1.108zM23.096 127.034l-5.257-.772zM17.84 126.262l-3.198-.163z"/><path stroke-width="1.68" d="m14.878 126.057-.236.042zM14.642 126.099l.236-.042z"/><path stroke-width=".48" d="m20.538 127.732 1.277-2.42z"/></g></svg>