<svg xmlns="http://www.w3.org/2000/svg" width="366.72" height="775.04" viewBox="0 0 275.04 581.28"><g stroke-linecap="round" stroke-linejoin="round" fill="none" stroke="#000"><path stroke-width="1.68" d="m13.519 141.558 4.532-.562zM18.05 140.996l4.895.106zM22.945 141.101l5.534.967zM28.48 142.068l2.808.72zM31.288 142.787l1.266.263zM32.554 143.05l.75.11zM33.305 143.16l.278.195zM33.583 143.355l.278.194zM33.861 143.549l.751.11zM34.612 143.66l1.03.304zM35.641 143.964l1.544.457zM37.185 144.42l2.017.374zM39.202 144.794l2.85.956zM42.053 145.75l4.353 1.176zM46.406 146.926l2.337.804zM48.743 147.73l.236-.043zM48.979 147.687l.793.347zM49.772 148.034l1.029.305zM50.8 148.339l2.616.998zM53.416 149.336l5.188 1.76zM58.604 151.096l5.744 2.148zM64.348 153.244l1.071.54zM65.42 153.785l.236-.042zM65.656 153.743l.793.346zM66.449 154.09l1.307.498zM67.756 154.588l2.615.998zM70.371 155.586l5.272 2.232zM75.643 157.818l6.065 2.579zM81.708 160.396l.278.195zM81.986 160.59l.557.39zM82.543 160.98l1.307.498zM83.85 161.478l2.657 1.234zM86.507 162.712l5.078 2.51zM91.585 165.223l5.87 2.857zM97.455 168.08l.279.194zM97.734 168.274l.834.583zM98.568 168.857l1.586.693zM100.154 169.55l2.741 1.707zM102.895 171.257l5.676 3.135zM108.571 174.392l7.903 4.69zM116.474 179.081l1.113.777zM117.587 179.858l.515.153zM118.102 180.01l.835.584zM118.937 180.594l1.906 1.123zM120.843 181.717l3.575 2.29zM124.418 184.007l7.152 4.58zM131.57 188.586l10.533 7.148zM142.103 195.733l.557.389zM142.66 196.122l1.071.54zM143.731 196.663l1.99 1.596zM145.721 198.26l4.216 3.15zM149.938 201.41l8.154 6.108zM158.092 207.517l11.384 9.19zM169.476 216.707l.598.625zM170.074 217.332l1.114.777zM171.188 218.11l2.268 1.79zM173.456 219.9l4.064 3.665zM177.52 223.565l8.6 7.247zM186.12 230.812l9.604 8.775zM195.725 239.587l.556.389zM196.281 239.976l.92 1.055zM197.2 241.031l2.032 1.833zM199.232 242.864l4.106 3.902zM203.338 246.766l7.782 8.123zM211.12 254.89l8.978 9.373zM220.099 264.263l.32.43zM220.419 264.693l.919 1.056zM221.338 265.749l1.838 2.11zM223.176 267.86l3.675 4.222zM226.851 272.082l6.71 7.583zM233.562 279.665l3.118 3.833zM236.68 283.498l1.56 1.917zM238.24 285.415l2.116 2.305zM240.356 287.72l4.957 5.944zM245.313 293.664l4.636 5.514zM249.95 299.178l2.435 2.736zM252.385 301.914l3.44 4.264zM255.825 306.178l5.276 6.375zM261.102 312.553l7.56 9.626zM268.663 322.178l10.973 15.114zM13.561 141.794l4.59 1.135zM18.15 142.929l5.036 2.274zM23.186 145.203l3.255 1.859zM26.441 147.062l1.907 1.123zM28.348 148.185l.834.583zM29.182 148.768l.279.195zM29.46 148.963l.279.194zM29.739 149.157l.278.194zM30.017 149.351l.279.194zM30.296 149.545l.278.195zM30.574 149.74l.278.194zM30.852 149.934l.515.152zM31.367 150.086l1.113.778zM32.48 150.864l1.906 1.123zM34.386 151.987l1.071.541zM35.457 152.528l.32.43zM35.778 152.959l1.113.777zM36.89 153.736l.794.347zM37.684 154.083l.834.583zM38.518 154.666l1.35.735zM39.868 155.4l1.948 1.36zM41.816 156.76l1.35.736zM43.165 157.496l.279.194zM43.444 157.69l.556.389zM44 158.079l1.114.777zM45.114 158.856l2.184 1.318zM47.298 160.174l4.41 2.873zM51.709 163.047l4.174 2.914zM55.883 165.961l1.67 1.166zM57.553 167.127l.278.194zM57.831 167.321l.557.39zM58.388 167.71l1.113.777zM59.5 168.487 61.965 170zM61.964 170l4.73 3.303zM66.695 173.303l9.461 6.606zM76.157 179.909l6.679 4.663zM82.836 184.572l2.783 1.943zM85.619 186.515l.278.194zM85.897 186.71l.835.582zM86.732 187.292l1.35.736zM88.081 188.028l2.547 1.985zM90.628 190.013l5.33 3.928zM95.958 193.94l10.617 7.62zM106.575 201.56l2.783 1.943zM109.358 203.503l5.607 4.123zM114.966 207.626l11.257 8.48zM126.223 216.107l.557.388zM126.78 216.495l.556.389zM127.336 216.884l1.114.777zM128.45 217.661l1.99 1.596zM130.44 219.257l3.938 2.957zM134.378 222.214l8.196 6.344zM142.574 228.557l16.31 12.215zM158.883 240.772l9.352 7.357zM168.235 248.13l8.753 6.732zM176.988 254.861l3.702 2.999zM180.69 257.86l.557.389zM181.247 258.248l1.113.778zM182.36 259.026l2.032 1.832zM184.392 260.858l4.495 3.346zM188.887 264.204l8.558 7.01zM197.446 271.214l4.578 3.818zM202.024 275.032l11.147 9.232zM213.172 284.264l22.294 18.464zM235.467 302.727l8.002 6.622zM243.469 309.349l12.024 10.051zM255.493 319.4l17.842 15.355zM273.335 334.755l11.037 9.983z"/><path stroke-width=".48" d="m28.39 148.422 2.898-5.634zM43.165 157.496l5.3-9.96zM57.51 166.89l7.631-13.3zM71.426 176.606l10.046-16.167zM85.577 186.279l11.642-18.157zM99.297 196.272l13.365-19.438zM126.502 216.3l15.045-20.955zM153.554 236.844l15.922-20.136zM180.412 257.666l15.035-18.273zM206.881 279.044l12.898-15.212zM233.156 300.7l9.358-10.438zM259.237 322.635l5.346-5.582zM284.373 344.738l-11.945-13.722zM272.427 331.016 257.7 315.351zM257.699 315.352l-4.747-4.763zM249.96 307.464l-2.033-1.832zM247.927 305.632l-1.155-1.014zM243.779 301.494l-.599-.625zM243.18 300.869l-6.18-5.971zM237 294.898l-8.017-8.082zM228.982 286.816l-3.87-3.943zM225.113 282.873l-5.86-5.54zM219.253 277.332l-6.222-6.207zM213.03 271.125l-.556-.388zM212.474 270.737l-.919-1.056zM211.555 269.681l-.877-.819zM207.49 266.016l-2.031-1.833zM205.459 264.183l-1.155-1.013zM201.353 260.282l-4.064-3.666zM197.289 256.616l-9.52-8.302zM187.769 248.314l-.599-.625zM187.17 247.689l-1.113-.777zM186.057 246.912l-2.032-1.833zM184.025 245.08l-4.3-3.624zM179.725 241.456l-8.559-7.011zM171.166 234.445l-5.372-4.164zM162.649 227.671l-1.433-1.208zM161.216 226.463l-.557-.388zM160.659 226.075l-1.113-.778zM159.546 225.297l-.32-.43zM155.844 222.299l-2.825-2.18zM153.019 220.12l-9.031-6.927zM143.988 213.193l-10.103-7.467zM133.885 205.726l-.557-.389zM133.328 205.337l-.876-.82zM132.452 204.518l-2.185-1.318zM130.267 203.2l-4.174-2.915zM126.093 200.285l-7.792-5.44zM114.961 192.513l-3.618-2.526zM107.767 187.698l-.278-.195zM107.489 187.503l-3.576-2.29zM103.913 185.214l-7.151-4.58zM96.762 180.635l-5.482-3.414zM91.28 177.221l-.32-.43zM90.96 176.79l-.794-.346zM90.166 176.444l-1.349-.735zM88.817 175.709l-2.74-1.707zM86.076 174.002l-5.718-3.371zM80.358 170.63l-4.049-2.205zM76.31 168.425l-.279-.194zM76.031 168.23l-.556-.388zM75.475 167.842l-1.35-.735zM74.125 167.107l-2.42-1.276zM71.704 165.83l-3.77-2.01zM64.164 161.808l-2.977-1.665zM61.187 160.143l-.278-.194zM60.909 159.95l-.515-.153zM56.624 157.786l-.236.042zM56.388 157.828l-4.327-2.4zM52.06 155.428l-6.384-3.01zM45.676 152.418l-.279-.194zM45.397 152.224l-.514-.152zM44.883 152.072l-1.308-.5zM43.575 151.573l-2.378-1.04zM41.197 150.533l-3.172-1.386zM38.025 149.147l-1.864-.888zM36.161 148.26l-1.586-.694zM34.575 147.566l-1.585-.693zM32.99 146.873l-1.072-.541zM31.918 146.332l-.514-.152zM31.404 146.18l-.279-.195zM31.125 145.985l-.514-.152zM30.61 145.833l-.792-.347zM29.818 145.486l-.793-.346zM29.025 145.14l-1.544-.457zM27.481 144.683 25.34 143.6zM25.339 143.601l-3.324-.872zM22.015 142.73l-5.298-1.01zM16.717 141.72l-3.198-.162z"/><path stroke-width="1.68" d="m13.519 141.558.042.236z"/><path stroke-width=".48" d="m19.458 143.427 1.04-2.378zM13.561 141.794l-.042-.236z"/></g></svg>