<svg xmlns="http://www.w3.org/2000/svg" width="303.68" height="775.04" viewBox="0 0 227.76 581.28"><g stroke-linecap="round" stroke-linejoin="round" fill="none" stroke="#000"><path stroke-width="1.68007" d="m89.767 167.023 4.515 2.518zM94.282 169.54l3.356 2.127zM97.638 171.667l1.75 1.436zM99.389 173.103l.238.03zM99.627 173.134l.207.268zM99.834 173.402l.445.3zM100.28 173.702l.89.598zM101.17 174.3l1.751 1.436zM102.921 175.736l3.294 2.603zM106.215 178.339l4.777 4.245zM110.992 182.584l.207.269zM111.199 182.853l.415.537zM111.614 183.39l.86.837zM112.474 184.227l1.958 1.705zM114.432 185.931l3.379 3.824zM117.81 189.755l2.55 2.748zM120.36 192.503l1.513 1.405zM121.873 193.908l.384.776zM122.257 194.684l.446.3zM122.702 194.983l.415.538zM123.117 195.52l.86.837zM123.977 196.357l1.452 1.881zM125.429 198.238l2.342 2.48zM127.77 200.718l3.38 3.824zM131.15 204.542l2.104 2.449zM133.254 206.99l.207.27zM133.461 207.26l.415.537zM133.876 207.797l.83 1.075zM134.705 208.872l1.421 2.119zM136.126 210.99l3.318 4.3zM139.444 215.29l3.463 5.045zM142.907 220.334l.207.27zM143.114 220.603l.415.538zM143.53 221.14l.798 1.313zM144.328 222.453l1.597 2.626zM145.925 225.08l3.195 5.25zM149.12 230.33l4.109 7.548zM153.229 237.878l.353 1.013zM153.582 238.891l.415.538zM153.997 239.429l.384.775zM154.38 240.204l.976 1.82zM155.356 242.024l1.743 3.37zM157.1 245.395l3.456 6.979zM160.555 252.374l4.931 10.557zM165.486 262.93l.177.507zM165.663 263.437l.591 1.045zM166.254 264.482l.914 2.295zM167.168 266.777l1.62 4.323zM168.789 271.1l3.48 8.676zM172.268 279.776l4.417 12.669zM176.685 292.445l.146.744zM176.83 293.19l.323 1.25zM177.153 294.44l.914 2.297zM178.067 296.737l1.529 5.036zM179.596 301.773l2.58 10.013zM182.177 311.786l2.635 11.47zM184.812 323.257l.146.744zM184.958 324.001l.322 1.252zM185.28 325.253l.408 2.472zM185.688 327.725l.814 4.945zM186.502 332.67l1.568 10.366zM188.07 343.035l1.33 10.335zM189.4 353.37l.053 1.459zM189.453 354.829l.177.507zM189.63 355.336l.085 1.22zM189.715 356.557l.376 2.71zM190.091 359.267l.546 5.152zM190.637 364.419l1.091 10.304zM191.728 374.723l.877 11.97zM192.605 386.693l-.123.953zM192.482 387.646l.262 1.727zM192.744 389.373l.046 3.394zM192.79 392.767l.331 6.818zM193.121 399.585l-.052 13.545zM193.069 413.13l-.697 18.543zM192.372 431.673l-.682 7.171zM148.514 302.606l.238.031zM167.64 360.728l.238.031zM158.584 331.49l.238.031zM87.134 170.555l2.25 3.194zM89.384 173.749l1.244 1.612zM90.628 175.361l.353 1.014zM90.981 176.375l.446.3zM91.427 176.674l.207.269zM91.634 176.943l-.03.238zM91.603 177.18l.177.508zM91.78 177.688l.415.537zM92.195 178.225l.207.269zM92.402 178.494l.207.269zM92.61 178.763l.622.806zM93.231 179.569l.769 1.55zM94 181.12l1.036 1.343zM95.036 182.463l.592 1.044zM95.628 183.507l.622.807zM96.25 184.314l.56 1.282zM96.81 185.596l1.006 1.581zM97.816 187.177l1.39 2.357zM99.206 189.534l.208.27zM99.414 189.803l.207.269zM99.621 190.072l.177.507zM99.798 190.579l.591 1.044zM100.39 191.623l1.182 2.088zM101.572 193.711l1.95 3.64zM103.522 197.35l.738 1.79zM104.26 199.14l.622.805zM104.882 199.945l.177.507zM105.058 200.452l.177.507zM105.235 200.959l.177.507zM105.412 201.466l.415.537zM105.827 202.003l.384.776zM106.21 202.779l.385.775zM106.595 203.554l.207.269zM106.802 203.823l.146.744zM106.948 204.567l.591 1.045zM107.54 205.612l.975 1.82zM108.515 207.431l.384.776zM108.899 208.207l.414.537zM109.313 208.744l.354 1.014zM109.667 209.758l.384.775zM110.05 210.533l.592 1.044zM110.642 211.577l.768 1.551zM111.41 213.128l1.152 2.327zM112.562 215.455l.945 2.057zM113.507 217.512l.207.269zM113.714 217.78l.415.538zM114.129 218.318l.322 1.252zM114.451 219.57l1.183 2.088zM115.634 221.658l2.066 4.622zM117.7 226.28l1.329 2.834zM119.029 229.113l.53 1.52zM119.559 230.634l.414.537zM119.973 231.171l.738 1.79zM120.71 232.96l1.268 3.31zM121.978 236.27l1.329 2.832zM123.307 239.102l2.096 4.385zM125.403 243.486l2.773 6.65zM128.176 250.135l.207.27zM128.383 250.404l.177.507zM128.56 250.91l.384.776zM128.944 251.686l.737 1.79zM129.681 253.475l1.237 3.548zM130.918 257.023l2.98 6.917zM133.898 263.94l2.535 6.619zM136.433 270.559l1.267 3.309zM137.7 273.868l2.035 4.86zM139.735 278.728l1.767 5.068zM141.502 283.795l3.126 7.663zM144.628 291.458l4.094 11.417zM148.722 302.875l.414.537zM149.136 303.412l.323 1.252zM149.459 304.664l.914 2.296zM150.373 306.96l1.59 4.56zM151.963 311.52l3.118 9.598zM155.081 321.118l3.71 10.642zM158.791 331.76l.146.744zM158.937 332.504l.354 1.014zM159.29 333.518l.884 2.533zM160.174 336.051l1.56 4.8zM161.733 340.85l2.911 9.33zM164.644 350.179l3.173 11.057zM167.817 361.235l.176.507zM167.993 361.742l.323 1.252zM168.316 362.993l.914 2.296zM169.23 365.29l1.321 4.767zM170.551 370.057l1.967 7.272zM172.518 377.328l.998 3.517zM173.516 380.845l2.29 8.523zM175.805 389.367l3.903 14.781zM179.708 404.148l1.144 4.261zM180.852 408.409l1.82 6.526zM182.673 414.935l2.374 9.744zM185.047 424.679l3.457 14.48zM87.134 170.555l-.56-1.282zM86.573 169.273l.422-1.398zM86.995 167.875l1.075-.829zM88.07 167.046l1.46-.054zM89.53 166.992l.237.03zM188.503 439.16l.592 1.044zM189.095 440.204l1.19.153zM190.285 440.357l1.044-.591zM191.33 439.766l.36-.922z"/><path stroke-width=".48002" d="m87.134 170.555 2.633-3.532zM90.981 176.375l6.864-4.44zM99.444 189.565l11.548-6.981zM106.595 203.554l15.663-8.87zM113.537 217.274l19.51-10.552zM119.943 231.41l22.757-11.345zM126.11 245.513l25.169-11.275zM137.7 273.868l27.61-11.444zM148.752 302.637l27.933-10.193zM158.822 331.521l26.021-8.503zM167.878 360.76l21.637-6.407zM176.159 390.38l16.27-4.194zM184.17 420.21l8.73-2.02zM188.503 439.16l3.187-.316zM190.285 440.357l-1.023-12.715zM189.262 427.642l-1.376-13.729zM187.886 413.913l-1.56-12.3zM185.658 397.413l-.492-3.693zM185.166 393.72l-.177-.507zM184.32 389.013l.062-.476zM184.382 388.537l-.177-.507zM184.205 388.03l-.146-.744zM184.06 387.286l-.262-1.728zM183.798 385.558l-.553-3.217zM183.245 382.34l-1.076-6.672zM182.169 375.669l-2.42-13.138zM179.749 362.531l-1.022-5.213zM178.727 357.318l-.177-.507zM178.55 356.811l-.322-1.251zM178.228 355.56l-.408-2.473zM177.82 353.087l-.676-2.265zM176.238 346.592l-.907-4.231zM174.394 338.369l.03-.238zM174.425 338.13l-2.666-11.233zM171.76 326.898l-.177-.507zM171.583 326.39l-.323-1.25zM171.26 325.14l-.645-2.504zM170.615 322.636l-1.56-4.799zM169.055 317.838l-2.88-9.568zM166.175 308.27l-2.412-7.57zM162.35 296.646l.03-.238zM162.38 296.408l-.353-1.013zM162.027 295.395l-.883-2.534zM161.144 292.861l-.238-.03zM159.493 288.776l-.177-.506zM159.316 288.27l-3.595-9.66zM155.721 278.61l-4.186-10.702zM151.535 267.908l-.414-.538zM151.12 267.37l-.353-1.013zM150.767 266.357l-.944-2.058zM149.823 264.3l-1.86-4.354zM147.964 259.946l-3.187-7.187zM142.857 248.882l-1.682-3.847zM139.255 241.158l-1.506-3.34zM137.75 237.818l-3.488-6.74zM134.263 231.077l-2.927-5.459zM131.337 225.618l-.208-.268zM131.13 225.35l-.385-.776zM130.745 224.574l-.799-1.313zM129.946 223.261l-1.359-2.595zM128.587 220.666l-3.225-5.013zM125.362 215.653l-2.19-3.67zM123.173 211.983l-.207-.269zM122.966 211.714l-.177-.507zM122.789 211.207l-.83-1.075zM121.96 210.132l-1.421-2.119zM120.539 208.013l-.384-.775zM117.697 203.775l-2.22-3.432zM115.478 200.343l-.238-.03zM112.782 196.85l-.622-.806zM112.16 196.044l-.798-1.313zM111.362 194.731l-1.214-1.85zM110.148 192.88l-1.866-2.418zM108.282 190.462 105.825 187zM105.825 187l-.83-1.075zM104.995 185.925l-.207-.269zM104.788 185.656l-.653-.568zM104.135 185.088l-.798-1.313zM103.337 183.775l-1.483-1.643zM101.854 182.132l-1.658-2.15zM100.196 179.982l-2.757-3.017zM97.439 176.965l-4.746-4.483zM92.693 172.482l-5.252-4.307zM87.44 168.175l-.445-.3z"/></g></svg>