<svg xmlns="http://www.w3.org/2000/svg" width="358.427" height="429.907" viewBox="0 0 268.82 322.43"><g stroke-linecap="round" stroke-linejoin="round" fill="none" stroke="#000"><path stroke-width="1.68" d="m37.59 17.85 3.84.48zM41.43 18.33l4.56 1.44zM45.99 19.77l4.56 2.16zM50.55 21.93l2.4 1.44zM52.95 23.37l1.68 1.2zM54.63 24.57l1.92 1.2zM56.55 25.77l.72.48zM57.27 26.25l.24.24zM57.51 26.49l.72.24zM58.23 26.73l1.2.72zM59.43 27.45l2.16 1.44zM61.59 28.89l1.92 1.44zM63.51 30.33l1.2.72zM64.71 31.05l.72.48zM65.43 31.53l.96.48zM66.39 32.01l.96.96zM67.35 32.97l1.68.96zM69.03 33.93l.48.24zM69.51 34.17l.24.24zM69.75 34.41l.48.48zM70.23 34.89l.96.72zM71.19 35.61l2.16 1.44zM73.35 37.05l4.08 3.12zM77.43 40.17l2.4 1.92zM79.83 42.09l1.44 1.2zM81.27 43.29l1.2.96zM82.47 44.25l.96.72zM83.43 44.97l.48.24zM83.91 45.21l.48.48zM84.39 45.69l1.2.96zM85.59 46.65l2.16 1.92zM87.75 48.57l4.32 3.6zM92.07 52.17l5.04 4.32zM97.11 56.49l.24.24zM97.35 56.73l.48.48zM97.83 57.21l.96.96zM98.79 58.17l2.16 1.92zM100.95 60.09l4.08 3.84zM105.03 63.93l4.8 4.8zM109.83 68.73l.24.24zM110.07 68.97l.48.48zM110.55 69.45l1.2 1.2zM111.75 70.65l2.4 2.4zM114.15 73.05l4.32 5.04zM118.47 78.09l6 6.72zM124.47 84.81l.96 1.2zM125.43 86.01l.48.48zM125.91 86.49l.48.72zM126.39 87.21l1.44 1.68zM127.83 88.89l2.88 3.12zM130.71 92.01l4.8 6zM135.51 98.01l6.72 8.4zM142.23 106.41l1.68 2.16zM143.91 108.57l.24.48zM144.15 109.05l.72.96zM144.87 110.01l1.68 2.16zM146.55 112.17l2.88 4.08zM149.43 116.25l5.52 7.92zM154.95 124.17l4.56 6.96zM159.51 131.13l3.36 5.28zM162.87 136.41l.48.72zM163.35 137.13l.72 1.2zM164.07 138.33l1.44 2.4zM165.51 140.73l3.12 4.8zM168.63 145.53l4.08 6.96zM172.71 152.49l3.6 6zM176.31 158.49l3.84 6.72zM180.15 165.21l.96 1.92zM181.11 167.13l.24.48zM181.35 167.61l.72 1.44zM182.07 169.05l1.44 2.4zM183.51 171.45l2.64 5.04zM186.15 176.49l5.04 9.84zM191.19 186.33l5.28 11.76zM196.47 198.09l.24.72zM196.71 198.81l.48 1.2zM197.19 200.01l1.2 2.64zM198.39 202.65l2.16 5.04zM200.55 207.69l3.84 9.36zM204.39 217.05l1.68 4.56zM206.07 221.61l.96 2.4zM207.03 224.01l1.2 2.88zM208.23 226.89l2.4 5.76zM210.63 232.65l1.2 3.12zM211.83 235.77l2.4 6.24zM214.23 242.01l1.68 4.08zM215.91 246.09l2.4 6zM218.31 252.09l3.36 9.12zM221.67 261.21l4.8 13.92zM226.47 275.13l5.04 17.28zM231.51 292.41l.72 2.64zM37.59 18.09l4.08 2.64zM41.67 20.73l4.08 3.6zM45.75 24.33l3.12 3.6zM48.87 27.93l1.44 1.68zM50.31 29.61l.72.96zM51.03 30.57l.24.24zM51.27 30.81l.24.24zM51.51 31.05l.24.48zM51.75 31.53l.96 1.2zM52.71 32.73l1.68 2.16zM54.39 34.89l3.36 4.32zM57.75 39.21l2.88 3.6zM60.63 42.81l2.4 2.88zM63.03 45.69l3.36 4.56zM66.39 50.25l4.56 6zM70.95 56.25l.24.24zM71.19 56.49l.48.48zM71.67 56.97l.96 1.2zM72.63 58.17l1.68 2.16zM74.31 60.33l3.36 4.56zM77.67 64.89l2.16 2.88zM79.83 67.77l2.64 3.36zM82.47 71.13l4.56 6.48zM87.03 77.61l3.36 4.32zM90.39 81.93l1.2 1.68zM91.59 83.61l.24.24zM91.83 83.85l.48.72zM92.31 84.57l.96 1.2zM93.27 85.77l1.92 2.64zM95.19 88.41l3.84 5.28zM99.03 93.69l4.8 6.72zM103.83 100.41l.96 1.44zM104.79 101.85l.48.48zM105.27 102.33l.48.72zM105.75 103.05l1.2 1.68zM106.95 104.73l1.44 2.16zM108.39 106.89l1.2 1.68zM109.59 108.57l1.2 1.68zM110.79 110.25l1.92 2.64zM112.71 112.89l2.64 3.6zM115.35 116.49l3.6 5.28zM118.95 121.77l2.16 3.12zM121.11 124.89l.48.48zM121.59 125.37l.72.96zM122.31 126.33l1.44 2.16zM123.75 128.49l2.64 3.84zM126.39 132.33l1.44 1.92zM127.83 134.25l.72 1.2zM128.55 135.45l1.2 1.92zM129.75 137.37l.96 1.2zM130.71 138.57l1.2 1.92zM131.91 140.49l1.92 2.64zM133.83 143.13l2.88 4.08zM136.71 147.21l3.36 4.8zM140.07 152.01l.48.72zM140.55 152.73l.72.96zM141.27 153.69l1.44 2.4zM142.71 156.09l3.36 4.56zM146.07 160.65l3.12 4.56zM149.19 165.21l1.68 2.64zM150.87 167.85l1.44 1.92zM152.31 169.77l1.44 2.16zM153.75 171.93l1.68 2.4zM155.43 174.33l2.16 3.6zM157.59 177.93l2.16 2.88zM159.75 180.81l.24.48zM159.99 181.29l.72 1.2zM160.71 182.49l1.68 2.4zM162.39 184.89l2.88 4.56zM165.27 189.45l4.8 7.2zM170.07 196.65l2.4 3.6zM172.47 200.25l1.2 1.92zM173.67 202.17l2.88 4.56zM176.55 206.73l1.44 2.16zM177.99 208.89l.24.24zM178.23 209.13l.24.72zM178.47 209.85l.96 1.2zM179.43 211.05l1.44 2.16zM180.87 213.21l2.88 4.8zM183.75 218.01l4.08 6.24zM187.83 224.25l6.24 9.36zM194.07 233.61l9.6 15.36zM203.67 248.97l9.84 15.36zM213.51 264.33l13.92 22.8zM227.43 287.13l4.56 7.92zM232.23 295.05h-.24z"/><path stroke-width=".48" d="m49.59 29.13 4.8-4.8zM60.39 42.57l8.88-8.4zM70.95 56.01l12.48-11.04zM81.27 69.69l15.6-13.44zM91.35 83.37l18.24-14.88zM101.43 97.05l20.16-15.6zM121.11 124.65l22.32-16.56zM139.83 151.77l23.04-15.36zM159.51 180.33l21.36-13.68zM177.99 208.89l18.24-11.04zM196.47 237.45l12.96-7.44zM214.71 266.25l7.44-3.84zM231.99 295.05h.24zM231.99 295.05l-7.2-16.8zM224.79 278.25l-9.12-19.44zM215.67 258.81l-3.12-6zM210.87 248.97l-1.2-2.4zM209.67 246.57l-.72-1.44zM206.79 241.29l-.24-.72zM206.55 240.57l-4.08-7.68zM202.47 232.89l-5.04-10.08zM197.43 222.81l-2.64-5.04zM194.79 217.77l-3.84-7.2zM190.95 210.57l-3.84-7.44zM187.11 203.13l-.48-.72zM186.63 202.41l-.72-1.2zM185.91 201.21l-.48-.96zM183.27 196.41l-1.2-2.64zM182.07 193.77l-.72-.96zM179.19 188.97l-2.64-4.8zM176.55 184.17l-6.48-10.8zM170.07 173.37l-.48-.72zM169.59 172.65l-.72-1.2zM168.87 171.45l-1.44-2.4zM167.43 169.05l-2.88-4.56zM164.55 164.49l-6-9.36zM158.55 155.13l-3.6-5.76zM152.55 145.77l-.96-1.44zM151.59 144.33l-.48-.48zM151.11 143.85l-.72-1.2zM150.39 142.65l-.24-.24zM147.75 138.81l-1.92-3.12zM145.83 135.69l-6.48-9.12zM139.35 126.57l-7.2-10.32zM132.15 116.25l-.48-.48zM131.67 115.77l-.72-.96zM130.95 114.81l-1.44-2.16zM129.51 112.65l-3.12-4.08zM126.39 108.57l-5.76-7.44zM117.99 97.77l-2.4-3.36zM112.95 91.05l-.48-.48zM112.47 90.57l-2.64-3.36zM109.83 87.21l-5.28-6.48zM104.55 80.73l-4.08-5.04zM100.47 75.69l-.24-.24zM100.23 75.45l-.72-.72zM99.51 74.73l-.96-1.2zM98.55 73.53l-2.16-2.4zM96.39 71.13l-4.32-4.8zM92.07 66.33l-3.12-3.36zM88.95 62.97l-.24-.24zM88.71 62.73l-.48-.72zM88.23 62.01l-.96-.96zM87.27 61.05l-1.92-2.16zM85.35 58.89l-2.88-2.88zM79.35 52.89l-2.4-2.64zM76.95 50.25l-.24-.24zM76.71 50.01l-.24-.24zM73.59 46.65l-.24-.24zM73.35 46.41l-3.6-3.36zM69.75 43.05l-5.04-4.8zM64.71 38.25l-.24-.24zM64.47 38.01l-.48-.48zM63.99 37.53l-.96-.96zM63.03 36.57l-1.92-1.68zM61.11 34.89l-2.64-2.4zM58.47 32.49l-1.44-1.2zM57.03 31.29l-1.2-1.2zM55.83 30.09l-1.2-.96zM54.63 29.13l-1.2-.96zM53.43 28.17l-.24-.24zM53.19 27.93l-.24-.24zM52.95 27.69l-.48-.48zM52.47 27.21l-.48-.48zM51.99 26.73l-.96-.72zM51.03 26.01l-1.2-.96zM49.83 25.05l-1.68-1.44zM48.15 23.61l-2.88-2.16zM45.27 21.45l-4.56-2.4zM40.71 19.05l-3.12-1.2z"/><path stroke-width="1.68" d="M37.59 17.85v.24z"/><path stroke-width=".48" d="m42.63 21.45 1.92-2.16zM37.59 18.09v-.24z"/></g></svg>