<svg xmlns="http://www.w3.org/2000/svg" width="369.987" height="384" viewBox="0 0 277.49 288"><g stroke-linecap="round" stroke-linejoin="round" fill="none" stroke="#000"><path stroke-width="1.68" d="M237.758 267.71v.24z"/><path stroke-width=".48" d="m24.158 19.55 4.32-5.04zM37.358 32.03l7.92-8.88zM50.318 44.99l11.04-12zM62.798 57.95l13.68-14.64zM74.798 70.67l16.08-16.08zM87.278 84.35l18-17.04zM109.838 109.79l20.16-18.24zM133.838 137.63l20.64-17.04zM156.638 164.99l19.44-15.36zM179.198 193.55l16.56-12.72zM201.038 221.15l11.76-8.64zM223.118 250.19l6.72-4.56zM237.758 267.95v-.24zM237.758 267.95l-8.88-16.08zM228.878 251.87l-11.28-18.24zM217.598 233.63l-3.6-5.76zM211.838 224.27l-1.44-2.16zM210.398 222.11l-.96-1.44zM207.038 217.07l-.48-.72zM206.558 216.35l-4.56-7.2zM201.998 209.15l-6.24-9.6zM195.758 199.55l-3.12-4.56zM192.638 194.99l-4.56-6.72zM188.078 188.27l-4.8-7.2zM183.278 181.07l-.24-.48zM183.038 180.59l-.96-1.2zM182.078 179.39l-.72-.96zM178.958 174.83l-1.68-2.16zM177.278 172.67l-.72-1.2zM174.158 168.11l-3.36-4.56zM170.798 163.55l-7.44-10.32zM163.358 153.23l-.48-.48zM162.878 152.75l-.72-.96zM162.158 151.79l-1.68-2.4zM160.478 149.39l-3.6-4.32zM156.878 145.07l-6.72-8.64zM150.158 136.43l-4.32-5.28zM143.198 127.79l-1.2-1.2zM141.998 126.59l-.48-.72zM141.518 125.87l-.96-.96zM140.558 124.91l-.24-.24zM137.678 121.31l-2.4-2.88zM135.278 118.43l-7.2-8.4zM128.078 110.03l-8.4-9.6zM119.678 100.43l-.48-.24zM119.198 100.19l-.72-.96zM118.478 99.23l-1.68-1.92zM116.798 97.31l-3.6-3.84zM113.198 93.47l-6.48-6.96zM103.838 83.63l-2.88-3.12zM97.838 77.39l-.24-.24zM97.598 77.15l-3.12-3.12zM94.478 74.03l-6-6zM88.478 68.03l-4.56-4.32zM83.918 63.71l-.24-.48zM83.678 63.23l-.72-.48zM82.958 62.75l-1.2-1.2zM81.758 61.55l-2.4-2.16zM79.358 59.39l-4.8-4.32zM74.558 55.07l-3.36-3.12zM71.198 51.95l-.24-.24zM70.958 51.71l-.48-.48zM70.478 51.23l-1.2-.96zM69.278 50.27l-2.16-1.68zM67.118 48.59l-3.12-2.88zM60.638 43.07l-2.64-2.4zM57.998 40.67h-.24zM57.758 40.67l-.24-.48zM54.158 37.55l-.24-.24zM53.918 37.31l-3.84-3.12zM50.078 34.19l-5.52-4.32zM44.558 29.87h-.24zM44.318 29.87l-.48-.48zM43.838 29.39l-1.2-.72zM42.638 28.67l-2.16-1.68zM40.478 26.99l-2.64-1.92zM37.838 25.07l-1.68-1.2zM36.158 23.87l-1.44-.96zM34.718 22.91l-1.2-.96zM33.518 21.95l-1.2-.72zM32.318 21.23l-.24-.24zM32.078 20.99l-.48-.24zM31.598 20.75l-.48-.48zM31.118 20.27l-.48-.24zM30.638 20.03l-.96-.72zM29.678 19.31l-1.2-.96zM28.478 18.35l-2.16-1.2zM26.318 17.15l-2.88-1.68zM23.438 15.47l-4.8-2.16zM18.638 13.31l-3.36-.72z"/><path stroke-width="1.68" d="M15.518 12.59v.24z"/><path stroke-width=".48" d="M15.518 12.83v-.24z"/><path stroke-width="1.68" d="m15.278 12.59 5.04.24zM20.318 12.83l5.28.96zM25.598 13.79l5.76 1.92zM31.358 15.71l6.48 3.12zM37.838 18.83l3.6 2.16zM41.438 20.99l1.92.96zM43.358 21.95l1.2.72zM44.558 22.67l.48.48zM45.038 23.15h.24zM45.278 23.15l.48.24zM45.758 23.39l.96.72zM46.718 24.11l1.68.96zM48.398 25.07l2.16 1.2zM50.558 26.27l2.4 1.44zM52.958 27.71l3.36 2.16zM56.318 29.87l4.56 2.88zM60.878 32.75l.48.24zM61.358 32.99l.24.24zM61.598 33.23l.72.48zM62.318 33.71l1.2.72zM63.518 34.43l2.64 1.68zM66.158 36.11l4.8 3.36zM70.958 39.47l5.76 4.08zM76.718 43.55l.24.24zM76.958 43.79l.48.24zM77.438 44.03l1.2.96zM78.638 44.99l2.64 1.92zM81.278 46.91l4.8 3.6zM86.078 50.51l5.28 4.32zM91.358 54.83l.48.24zM91.838 55.07l.48.72zM92.318 55.79l1.44.96zM93.758 56.75l2.64 2.4zM96.398 59.15l5.04 4.56zM101.438 63.71l5.52 5.28zM106.958 68.99l2.4 2.16zM109.358 71.15l.24.24zM109.598 71.39l.96.72zM110.558 72.11l1.44 1.68zM111.998 73.79l3.36 3.12zM115.358 76.91l6.24 6.24zM121.598 83.15l9.36 9.6zM130.958 92.75l.48.48zM131.438 93.23l.96.96zM132.398 94.19l1.68 1.92zM134.078 96.11l3.6 4.08zM137.678 100.19l6.96 8.16zM144.638 108.35l9.6 12zM154.238 120.35l.48.48zM154.718 120.83l.96 1.2zM155.678 122.03l1.92 2.4zM157.598 124.43l3.6 4.8zM161.198 129.23l6.96 9.6zM168.158 138.83l8.16 11.28zM176.318 150.11l.48.72zM176.798 150.83l.72 1.2zM177.518 152.03l1.68 2.4zM179.198 154.43l3.36 4.8zM182.558 159.23l5.76 9.36zM188.318 168.59l7.44 12.24zM195.758 180.83l.48.72zM196.238 181.55l.72 1.44zM196.958 182.99l1.44 2.64zM198.398 185.63l1.44 2.64zM199.838 188.27l1.2 2.16zM201.038 190.43l1.2 2.16zM202.238 192.59l1.44 2.88zM203.678 195.47l2.16 4.08zM205.838 199.55l3.12 6zM208.958 205.55l4.08 7.44zM213.038 212.99l.48.72zM213.518 213.71l.48.96zM213.998 214.67l1.2 1.92zM215.198 216.59l.48 1.2zM215.678 217.79l.48.48zM216.158 218.27v.48zM216.158 218.75l.24.24zM216.398 218.99l.24.48zM216.638 219.47l.48.72zM217.118 220.19l.72 1.2zM217.838 221.39l.96 1.92zM218.798 223.31l1.44 2.88zM220.238 226.19l2.64 4.56zM222.878 230.75l2.88 6zM225.758 236.75l1.68 3.6zM227.438 240.35l.24.72zM227.678 241.07l.72 1.44zM228.398 242.51l1.44 3.12zM229.838 245.63l.72 1.68zM230.558 247.31l.48 1.2zM231.038 248.51l.48.96zM231.518 249.47l.48 1.2zM231.998 250.67l.96 1.92zM232.958 252.59l.96 2.4zM233.918 254.99l1.44 3.6zM235.358 258.59l1.68 4.56zM237.038 263.15l.72 2.64zM237.758 265.79l.24 1.68zM237.998 267.47l-.24.48zM237.758 267.95h-.24zM237.518 267.95h-.24zM237.278 267.95l-.72-.72zM236.558 267.23l-1.44-1.2zM235.118 266.03l-1.92-2.4zM233.198 263.63l-2.88-3.6zM230.318 260.03l-2.88-4.08zM227.438 255.95l-1.68-2.16zM225.758 253.79l-.72-1.2zM225.038 252.59l-.48-.48zM224.558 252.11l-.24-.48zM224.318 251.63l-.48-.72zM223.838 250.91l-.72-.96zM223.118 249.95l-1.2-1.44zM221.918 248.51l-1.44-2.16zM220.478 246.35l-1.2-1.44zM219.278 244.91l-.48-.72zM218.798 244.19l-.72-1.2zM218.078 242.99l-1.68-2.16zM216.398 240.83l-3.12-4.08zM213.278 236.75l-3.6-4.8zM209.678 231.95l-2.4-3.12zM207.278 228.83l-1.2-1.44zM206.078 227.39l-.72-.72zM205.358 226.67l-.24-.48zM205.118 226.19l-.24-.24zM204.878 225.95l-.48-.48zM204.398 225.47l-.48-.72zM203.918 224.75l-.72-.96zM203.198 223.79l-1.44-1.68zM201.758 222.11l-.72-.96zM201.038 221.15l-.24-.48zM200.798 220.67l-.96-.96zM199.838 219.71l-1.44-1.92zM198.398 217.79l-3.12-4.08zM195.278 213.71l-6-7.2zM189.278 206.51l-2.88-3.84zM186.398 202.67l-1.44-1.92zM184.958 200.75l-.96-.96zM183.998 199.79l-.48-.72zM183.518 199.07l-.24-.48zM183.278 198.59l-.72-.72zM182.558 197.87l-.96-1.2zM181.598 196.67l-1.2-1.68zM180.398 194.99l-1.68-1.92zM178.718 193.07l-.48-.72zM178.238 192.35l-.96-1.2zM177.278 191.15l-1.68-2.16zM175.598 188.99l-3.6-4.8zM171.998 184.19l-5.28-6.72zM166.718 177.47l-3.12-3.84zM163.598 173.63l-2.4-2.88zM161.198 170.75l-2.64-3.12zM158.558 167.63l-1.92-2.64zM156.638 164.99l-.48-.72zM156.158 164.27l-.96-.96zM155.198 163.31l-1.92-2.4zM153.278 160.91l-3.6-4.32zM149.678 156.59l-7.44-9.12zM142.238 147.47l-4.8-5.52zM137.438 141.95l-3.12-3.36zM134.318 138.59l-5.52-6.72zM128.798 131.87l-13.92-16.32zM114.878 115.55l-11.52-13.2zM103.358 102.35l-10.08-11.28zM93.278 91.07l-2.64-3.12zM90.638 87.95l-.48-.24zM90.158 87.71l-.72-.96zM89.438 86.75l-1.44-1.44zM87.998 85.31l-2.88-3.36zM85.118 81.95l-5.76-6.48zM79.358 75.47l-4.32-4.56zM75.038 70.91l-.48-.48zM74.558 70.43l-.48-.48zM74.078 69.95l-1.2-1.2zM72.878 68.75l-2.4-2.64zM70.478 66.11l-4.56-4.8zM65.918 61.31l-5.76-6zM60.158 55.31l-1.44-1.68zM58.718 53.63l-2.4-2.4zM56.318 51.23l-3.36-3.6zM52.958 47.63l-2.88-2.88zM50.078 44.75l-.24-.24zM49.838 44.51l-.48-.48zM49.358 44.03l-.96-1.2zM48.398 42.83l-2.16-1.92zM46.238 40.91l-4.08-4.32zM42.158 36.59l-2.4-2.16zM39.758 34.43l-1.2-1.2zM38.558 33.23l-2.16-2.16zM36.398 31.07l-.48-.48zM35.918 30.59l-.96-.96zM34.958 29.63l-1.44-1.44zM33.518 28.19l-2.16-1.92zM31.358 26.27l-3.12-3.12zM28.238 23.15l-5.04-4.32zM23.198 18.83l-7.68-6zM15.518 12.83l-.24-.24z"/></g></svg>