<svg xmlns="http://www.w3.org/2000/svg" xmlns:xlink="http://www.w3.org/1999/xlink" width="359.481" height="418.344" viewBox="0 0 269.611 313.758"><path stroke-width="1.68" stroke-linecap="round" stroke-linejoin="round" fill="none" stroke="#000" d="m44.626 24.157 4.56 1.44zM49.186 25.597l2.64.96zM51.826 26.557l1.92.96zM53.746 27.517l1.68.72zM55.426 28.237l.24.24zM55.666 28.477l.48.24zM56.146 28.717l.96.24zM57.106 28.957l1.68.96zM58.786 29.917l1.44.72zM60.226 30.637l1.2.72zM61.426 31.357l1.2.72zM62.626 32.077l1.68.96zM64.306 33.037l2.16 1.44zM66.466 34.477l.48.24zM66.946 34.717l.48.24zM67.426 34.957l.48.48zM67.906 35.437l.96.72zM68.866 36.157l2.16 1.44zM71.026 37.597l3.12 2.16zM74.146 39.757l1.44 1.2zM75.586 40.957l.96.48zM76.546 41.437l.48.48zM77.026 41.917l.48.48zM77.506 42.397l.72.48zM78.226 42.877l.96.72zM79.186 43.597l1.44.96zM80.626 44.557l.96.72zM81.586 45.277l.24.24zM81.826 45.517l.72.48zM82.546 45.997l.96.96zM83.506 46.957l2.4 1.68zM85.906 48.637l4.08 3.12zM89.986 51.757l4.56 3.6zM94.546 55.357l.24.24zM94.786 55.597l.24.48zM95.026 56.077l.96.72zM95.986 56.797l1.92 1.68zM97.906 58.477l1.68 1.68zM99.586 60.157l1.44 1.68zM101.026 61.837l1.92 1.92zM102.946 63.757l2.4 2.4zM105.346 66.157l.24.24zM105.586 66.397l.48.72zM106.066 67.117l1.2.96zM107.266 68.077l2.16 2.4zM109.426 70.477l3.12 3.12zM112.546 73.597l1.92 1.92zM114.466 75.517l1.44 1.68zM115.906 77.197l1.68 1.92zM117.586 79.117l2.16 2.4zM119.746 81.517l1.2 1.44zM120.946 82.957l.48.48zM121.426 83.437l.72.72zM122.146 84.157l1.2 1.44zM123.346 85.597l2.4 3.12zM125.746 88.717l4.8 6.24zM130.546 94.957l6.24 8.88zM136.786 103.837l.24.48zM137.026 104.317l.72.96zM137.746 105.277l1.2 1.68zM138.946 106.957l1.92 2.88zM140.866 109.837l1.2 2.16zM142.066 111.997l1.44 1.92zM143.506 113.917l1.44 2.4zM144.946 116.317l2.16 3.6zM147.106 119.917l3.36 5.28zM150.466 125.197l1.92 3.36zM152.386 128.557l.24.48zM152.626 129.037l.48 1.2zM153.106 130.237l1.44 2.16zM154.546 132.397l2.4 4.8zM156.946 137.197l5.04 9.84zM161.986 147.037l3.36 6.96zM165.346 153.997l2.4 5.28zM167.746 159.277l.24.72zM167.986 159.997l.72 1.2zM168.706 161.197l.96 2.64zM169.666 163.837l2.16 5.28zM171.826 169.117l3.84 10.32zM175.666 179.437l3.84 11.52zM179.506 190.957l.24.24zM179.746 191.197l.24.96zM179.986 192.157l.48 1.44zM180.466 193.597l.96 3.12zM181.426 196.717l1.92 6zM183.346 202.717l.96 3.36zM184.306 206.077l.72 2.4zM185.026 208.477l.72 2.4zM185.746 210.877l.72 3.12zM186.466 213.997l1.2 4.08zM187.666 218.077l.48 1.68zM188.146 219.757l.24.72zM188.386 220.477l.24 1.44zM188.626 221.917l.96 3.36zM189.586 225.277l1.44 6.48zM191.026 231.757l2.16 9.12zM193.186 240.877l1.44 6.72zM194.626 247.597l1.2 6.96zM195.826 254.557l1.44 8.4zM197.266 262.957l.96 7.68zM42.946 28.237l2.16 2.16zM45.106 30.397l1.2.96zM46.306 31.357l.72.96zM47.026 32.317l.72.72zM47.746 33.037l.72.72zM48.466 33.757l.96.96zM49.426 34.717l.24.48zM49.666 35.197l.72.48zM50.386 35.677l1.2 1.2zM51.586 36.877l.96.96zM52.546 37.837l.48.48zM53.026 38.317l.24.24zM53.266 38.557l.24.24zM53.506 38.797l.48.24zM53.986 39.037l.24.48zM54.226 39.517l.72.48zM54.946 39.997l.72.96zM55.666 40.957l1.44 1.44zM57.106 42.397l.96.96zM58.066 43.357v.24zM58.066 43.597l.48.24zM58.546 43.837l.72.96zM59.266 44.797l1.68 1.92zM60.946 46.717l2.4 2.64zM63.346 49.357l1.2 1.44zM64.546 50.797l.48.72zM65.026 51.517l.48.48zM65.506 51.997l.24.24zM65.746 52.237l.24.48zM65.986 52.717l.72.72zM66.706 53.437l.72.96zM67.426 54.397l.96 1.44zM68.386 55.837l.72.48zM69.106 56.317v.24zM69.106 56.557l.48.48zM69.586 57.037l.96 1.2zM70.546 58.237l1.68 1.92zM72.226 60.157l3.12 3.84zM75.346 63.997l3.36 4.56zM78.706 68.557l.24.24zM78.946 68.797l.24.24zM79.186 69.037l.72.96zM79.906 69.997l1.2 1.92zM81.106 71.917l.72.96zM81.826 72.877l.48.96zM82.306 73.837l.48.72zM82.786 74.557l.72 1.2zM83.506 75.757l1.2 1.68zM84.706 77.437l1.68 2.4zM86.386 79.837l.48.72zM86.866 80.557l.24.24zM87.106 80.797l.48.72zM87.586 81.517l.72 1.2zM88.306 82.717l1.92 2.4zM90.226 85.117l2.4 3.12zM92.626 88.237l1.44 1.44zM94.066 89.677l.72.96zM94.786 90.637l.48.72zM95.266 91.357l.48.72zM95.746 92.077l.72.96zM96.466 93.037l1.2 1.44zM97.666 94.477l1.44 1.92zM99.106 96.397l1.2 1.68zM100.306 98.077l.24.24zM100.546 98.317l.72.96zM101.266 99.277l.96 1.44zM102.226 100.717l2.16 3.12zM104.386 103.837l4.08 6.24zM108.466 110.077l3.6 6.24zM112.066 116.317l1.92 2.88zM113.986 119.197l.24.48zM114.226 119.677l.48.72zM114.706 120.397l1.2 1.68zM115.906 122.077l1.68 2.64zM117.586 124.717l.72 1.44zM118.306 126.157l.72.96zM119.026 127.117l.48.72zM119.506 127.837l.48.96zM119.986 128.797l.96 1.2zM120.946 129.997l1.2 1.92zM122.146 131.917l1.68 2.88zM123.826 134.797l2.88 4.32zM126.706 139.117l2.4 3.6zM129.106 142.717l.24.72zM129.346 143.437l.72.96zM130.066 144.397l1.2 2.16zM131.266 146.557l2.64 4.56zM133.906 151.117l5.28 8.88zM139.186 159.997l2.88 4.8zM142.066 164.797l1.68 3.12zM143.746 167.917l1.44 2.4zM145.186 170.317l.72 1.44zM145.906 171.757l.24.48zM146.146 172.237l.72 1.2zM146.866 173.437l1.2 2.64zM148.066 176.077l2.64 4.8zM150.706 180.877l4.32 7.92zM155.026 188.797l5.76 11.04zM160.786 199.837l.48.96zM161.266 200.797l.24.48zM161.506 201.277l.48 1.2zM161.986 202.477l1.2 1.92zM163.186 204.397l1.92 4.32zM165.106 208.717l1.92 3.6zM167.026 212.317l.96 1.92zM167.986 214.237l.48.96zM168.466 215.197l.24.72zM168.706 215.917l.48.48zM169.186 216.397l.24.72zM169.426 217.117l.72 1.2zM170.146 218.317l.72 1.68zM170.866 219.997l1.2 2.4zM172.066 222.397l1.92 3.6zM173.986 225.997l.24.48zM174.226 226.477l.24.72zM174.466 227.197l.72 1.44zM175.186 228.637l1.44 2.64zM176.626 231.277l2.88 6zM179.506 237.277l3.12 6.72zM182.626 243.997l2.16 4.32zM184.786 248.317l1.92 4.08zM186.706 252.397l1.92 4.56zM188.626 256.957l2.64 6zM191.266 262.957l3.6 8.4zM194.866 271.357v.24zM42.946 28.237l-.96-1.2zM41.986 27.037l.24-1.44zM42.226 25.597l.96-1.2zM43.186 24.397l1.44-.24zM194.866 271.597l.96.96zM195.826 272.557h1.2zM197.026 272.557l.96-.96zM197.986 271.597l.24-.96z"/><path stroke-width=".48" stroke-linecap="round" stroke-linejoin="round" fill="none" stroke="#000" d="m42.946 28.237 1.68-4.08zM47.986 32.797l5.28-5.28zM57.826 43.117l9.12-8.4zM68.866 56.317l12.72-11.04zM78.706 68.317l15.6-12.96zM86.626 80.317l18.72-14.16zM96.706 93.277l20.64-14.64zM113.746 118.957l22.8-15.36zM128.866 142.477l23.28-14.16zM145.666 171.277l21.84-12.24zM161.026 200.557l18.48-9.84zM173.986 225.997l13.92-6.96zM187.426 253.837l7.68-3.6zM194.866 271.597l3.36-.96zM196.546 271.117l-4.56-16.8zM191.986 254.317l-6.24-18.48zM185.746 235.837l-.48-1.44zM183.826 230.317l-1.44-3.84zM180.946 222.397l-.24-.24zM180.706 222.157l-.24-.72zM180.466 221.437l-.48-1.44zM179.986 219.997l-1.2-3.12zM178.786 216.877l-2.4-6.24zM176.386 210.637l-5.04-12.48zM171.346 198.157l-2.16-4.8zM169.186 193.357l-.24-.72zM168.946 192.637l-.48-1.2zM168.466 191.437l-.96-2.16zM167.506 189.277l-.96-2.64zM164.866 182.797l-1.68-3.84zM161.266 175.117l-4.8-10.32zM156.466 164.797l-.24-.48zM156.226 164.317l-.48-1.2zM155.746 163.117l-1.2-2.16zM154.546 160.957l-2.4-4.56zM152.146 156.397l-4.8-8.88zM147.346 147.517l-3.6-6.48zM141.586 137.197l-.24-.24zM141.346 136.957l-.72-1.2zM140.626 135.757l-1.2-2.16zM137.266 129.997l-.48-.72zM136.786 129.277l-5.28-8.64zM131.506 120.637l-6.48-9.6zM125.026 111.037l-.24-.48zM124.786 110.557l-.72-.96zM124.066 109.597l-1.2-1.92zM122.866 107.677l-2.64-3.84zM120.226 103.837l-4.32-5.76zM113.506 94.477l-2.64-3.36zM108.226 87.757l-.24-.48zM107.986 87.277l-2.4-3.12zM105.586 84.157l-4.8-6zM100.786 78.157l-3.84-4.56zM96.946 73.597l-.24-.48zM96.706 73.117l-.48-.48zM96.226 72.637l-.96-1.2zM95.266 71.437l-1.92-2.16zM93.346 69.277l-4.08-4.56zM89.266 64.717l-2.88-2.88zM86.386 61.837l-.24-.24zM86.146 61.597l-.48-.48zM85.666 61.117l-.96-.96zM84.706 60.157l-1.44-1.68zM80.146 55.597l-.96-.96zM79.186 54.637l-1.92-1.92zM74.146 49.597l-.48-.24zM73.666 49.357l-.72-.72zM72.946 48.637l-1.2-1.2zM71.746 47.437l-1.92-1.68zM69.826 45.757l-2.64-2.64zM67.186 43.117l-3.84-3.36zM63.346 39.757l-.24-.24zM63.106 39.517l-.72-.48zM62.386 39.037l-1.2-1.2zM61.186 37.837l-2.64-1.92zM58.546 35.917l-5.04-3.84zM53.506 32.077l-8.16-5.04zM45.346 27.037l-1.44-.72z"/><symbol id="a"><path d="M.049.26V.025A.025.025 0 0 0 .042.006.026.026 0 0 0 .024 0a.053.053 0 0 0-.017.006C.002.01 0 .016 0 .024V.66c0 .005.002.01.007.016s.01.009.017.009A.026.026 0 0 0 .041.677.022.022 0 0 0 .049.66V.342l.25.332c.004.007.01.01.018.01A.025.025 0 0 0 .334.676.022.022 0 0 0 .343.66.023.023 0 0 0 .337.645L.164.414.34.034.34.029.342.023A.023.023 0 0 0 .334.007.026.026 0 0 0 .317 0L.306.003l-.01.011L.13.37.05.26z"/></symbol><symbol id="b"><path d="M.244.195H.098c-.027 0-.05.01-.07.029A.095.095 0 0 0 0 .293v.366c0 .005.002.01.007.016s.01.009.017.009A.026.026 0 0 0 .041.677.022.022 0 0 0 .049.66V.293c0-.014.005-.025.014-.035A.05.05 0 0 1 .098.244h.146v.415c0 .005.003.01.007.016.005.006.011.009.018.009A.026.026 0 0 0 .285.677.022.022 0 0 0 .293.66V.098c0-.027-.01-.05-.028-.07A.092.092 0 0 0 .195 0H.05A.039.039 0 0 0 .03.007a.027.027 0 0 0-.007.017L.03.042C.034.046.04.049.05.049h.147C.209.049.22.054.23.063c.01.01.014.021.014.035v.097z"/></symbol><symbol id="c"><path d="M.049.244h.147c.012 0 .024.005.033.014.01.01.015.022.015.035v.293A.047.047 0 0 1 .23.621a.047.047 0 0 1-.034.014H.049V.244m0-.05v-.17A.023.023 0 0 0 .04.008.023.023 0 0 0 .024 0a.026.026 0 0 0-.016.006A.022.022 0 0 0 0 .024V.66c0 .016.008.025.024.025h.172c.026 0 .049-.01.068-.029A.092.092 0 0 0 .293.586V.293c0-.027-.01-.05-.028-.07a.092.092 0 0 0-.07-.028H.05z"/></symbol><symbol id="d"><path d="M.269 0H.098C.07 0 .048.01.028.028A.094.094 0 0 0 0 .098V.39c0 .024.01.046.028.067a.09.09 0 0 0 .07.03h.17A.023.023 0 0 0 .286.48.023.023 0 0 0 .293.464.026.026 0 0 0 .287.447.022.022 0 0 0 .269.44H.098A.047.047 0 0 1 .063.425.047.047 0 0 1 .049.391V.098c0-.014.005-.026.014-.035A.047.047 0 0 1 .098.049h.17A.023.023 0 0 0 .286.04.023.023 0 0 0 .293.024.026.026 0 0 0 .287.008.022.022 0 0 0 .269 0z"/></symbol><symbol id="e"><path d="M.293.098c0-.028-.01-.05-.028-.07A.094.094 0 0 0 .195 0H.098C.07 0 .048.01.028.028A.094.094 0 0 0 0 .098V.39c0 .024.01.046.028.067a.09.09 0 0 0 .07.03h.097c.027 0 .05-.01.07-.028A.092.092 0 0 0 .292.39V.099m-.049 0V.39A.047.047 0 0 1 .23.425.047.047 0 0 1 .195.44H.098A.047.047 0 0 1 .063.425.047.047 0 0 1 .049.391V.098c0-.014.005-.026.014-.035A.047.047 0 0 1 .098.049h.097C.21.049.221.054.23.063c.01.01.014.021.014.035z"/></symbol><symbol id="f"><path d="m.049.488.037.026c.01.007.025.02.042.036a.052.052 0 0 1 .018.038.042.042 0 0 1-.014.034.048.048 0 0 1-.034.013.05.05 0 0 1-.035-.013C.053.614.049.602.049.586V.488m.195-.39V.39A.047.047 0 0 1 .23.425.048.048 0 0 1 .195.44H.098A.048.048 0 0 1 .063.425.047.047 0 0 1 .049.39V.098a.048.048 0 0 1 .05-.049h.096c.013 0 .025.005.034.014.01.01.015.021.015.035m-.116.39h.067c.027 0 .05-.01.07-.028A.092.092 0 0 0 .292.39V.099c0-.027-.01-.05-.028-.07A.093.093 0 0 0 .195 0H.098c-.027 0-.05.01-.07.029A.094.094 0 0 0 0 .098v.488c0 .03.01.055.03.073a.1.1 0 0 0 .068.024A.098.098 0 0 0 .165.66.089.089 0 0 0 .195.6C.196.569.19.545.174.528A.19.19 0 0 0 .156.51L.128.488z"/></symbol><symbol id="g"><path d="M.195.635H.098A.024.024 0 0 0 .08.642a.027.027 0 0 0-.006.017.03.03 0 0 0 .006.015.02.02 0 0 0 .018.01h.097A.023.023 0 0 0 .21.676.023.023 0 0 0 .22.659.026.026 0 0 0 .213.643.022.022 0 0 0 .195.635m.098-.61C.293.007.285 0 .269 0h-.17C.07 0 .047.01.028.029A.094.094 0 0 0 0 .098v.366c0 .005.002.01.007.016s.01.008.017.008A.026.026 0 0 0 .041.482.022.022 0 0 0 .049.464V.098a.048.048 0 0 1 .05-.049h.145v.415c0 .005.003.01.007.016.005.006.011.008.018.008A.026.026 0 0 0 .285.482.022.022 0 0 0 .293.464v-.44z"/></symbol><use xlink:href="#a" transform="matrix(-29.16288 0 -10.61532 29.16288 61.141 -731.423)"/><use xlink:href="#b" transform="matrix(-29.16288 0 -10.61532 29.16288 50.61 -737.105)"/><use xlink:href="#c" transform="matrix(-29.16288 0 -10.61532 29.16288 39.592 -737.12)"/><use xlink:href="#d" transform="matrix(-29.16288 0 -10.61532 29.16288 26.494 -731.423)"/><use xlink:href="#e" transform="matrix(-29.16288 0 -10.61532 29.16288 15.471 -731.423)"/><use xlink:href="#f" transform="matrix(-29.16288 0 -10.61532 29.16288 4.446 -731.423)"/><use xlink:href="#e" transform="matrix(-29.16288 0 -10.61532 29.16288 -6.577 -731.423)"/><use xlink:href="#g" transform="matrix(-29.16288 0 -10.61532 29.16288 -17.602 -731.423)"/><symbol id="h"><path d="M0 0z"/></symbol><use xlink:href="#h" transform="matrix(-29.16288 0 -10.61532 29.16288 -27.214 -731.423)"/><symbol id="i"><path d="M.293.024A.025.025 0 0 0 .286.006.026.026 0 0 0 .27 0 .053.053 0 0 0 .25.006C.247.01.244.016.244.024v.367A.047.047 0 0 1 .23.425.047.047 0 0 1 .195.44H.05V.024A.025.025 0 0 0 .042.006.026.026 0 0 0 .024 0a.053.053 0 0 0-.017.006C.002.01 0 .016 0 .024v.44C0 .48.008.488.024.488h.171c.027 0 .05-.01.07-.028A.092.092 0 0 0 .292.39V.025z"/></symbol><symbol id="j"><path d="M.049.269h.195V.39A.047.047 0 0 1 .23.425.047.047 0 0 1 .195.44H.098A.047.047 0 0 1 .063.425.047.047 0 0 1 .049.391V.269m0-.05V.099c0-.014.005-.026.014-.035A.047.047 0 0 1 .098.049h.17A.023.023 0 0 0 .286.04.023.023 0 0 0 .293.024.026.026 0 0 0 .287.008.022.022 0 0 0 .269 0H.098C.07 0 .048.01.028.028A.094.094 0 0 0 0 .098V.39c0 .024.01.046.028.067a.09.09 0 0 0 .07.03h.097c.027 0 .05-.01.07-.028A.092.092 0 0 0 .292.39V.245C.293.228.285.22.269.22h-.22z"/></symbol><symbol id="k"><path d="M.136.28.289.038.293.024A.025.025 0 0 0 .268 0C.263 0 .26 0 .257.002a.028.028 0 0 0-.009.01l-.146.23L.05.183V.024A.025.025 0 0 0 .042.006.026.026 0 0 0 .024 0a.053.053 0 0 0-.017.006C.002.01 0 .016 0 .024v.44c0 .005.002.01.007.016s.01.008.017.008A.026.026 0 0 0 .041.482.022.022 0 0 0 .049.464V.256L.25.48a.025.025 0 0 0 .018.008A.023.023 0 0 0 .286.48.023.023 0 0 0 .294.462.024.024 0 0 0 .287.445L.136.28z"/></symbol><symbol id="l"><path d="M.195.44H.05V.023A.025.025 0 0 0 .042.006.026.026 0 0 0 .024 0a.053.053 0 0 0-.017.006C.002.01 0 .016 0 .024v.44C0 .48.008.488.024.488h.318C.369.488.392.478.41.46A.092.092 0 0 0 .439.39V.025A.025.025 0 0 0 .433.006.026.026 0 0 0 .415 0a.053.053 0 0 0-.017.006C.393.01.39.016.39.024v.367a.047.047 0 0 1-.015.034.047.047 0 0 1-.034.014H.244V.024A.025.025 0 0 0 .237.006.026.026 0 0 0 .22 0a.053.053 0 0 0-.017.006C.198.01.195.016.195.024V.44z"/></symbol><use xlink:href="#i" transform="matrix(-29.16288 0 -10.61532 29.16288 -37.044 -731.423)"/><use xlink:href="#c" transform="matrix(-29.16288 0 -10.61532 29.16288 -45.996 -737.12)"/><use xlink:href="#e" transform="matrix(-29.16288 0 -10.61532 29.16288 -59.092 -731.423)"/><use xlink:href="#j" transform="matrix(-29.16288 0 -10.61532 29.16288 -70.117 -731.423)"/><use xlink:href="#k" transform="matrix(-29.16288 0 -10.61532 29.16288 -81.154 -731.423)"/><use xlink:href="#l" transform="matrix(-29.16288 0 -10.61532 29.16288 -92.165 -731.423)"/><symbol id="m"><path d="M.293.024C.293.008.285 0 .269 0H.098C.07 0 .048.01.028.028A.094.094 0 0 0 0 .098v.366c0 .005.002.01.007.016s.01.008.017.008A.026.026 0 0 0 .041.482.022.022 0 0 0 .049.464V.098c0-.014.005-.026.014-.035A.047.047 0 0 1 .098.049h.146v.415c0 .005.003.01.007.016.005.006.011.008.018.008A.026.026 0 0 0 .285.482.022.022 0 0 0 .293.464v-.44z"/></symbol><symbol id="n"><path d="M.244.1v.34H.098A.047.047 0 0 1 .063.428.047.047 0 0 1 .049.392V.1c0-.014.005-.025.014-.035A.047.047 0 0 1 .098.05h.097C.21.05.221.055.23.064.24.074.244.085.244.1M.326.05C.338.043.344.036.344.024A.025.025 0 0 0 .337.007.02.02 0 0 0 .32 0L.312.001a.064.064 0 0 0-.024.014.127.127 0 0 0-.02.02A.093.093 0 0 0 .196 0H.098c-.028 0-.05.01-.07.029A.094.094 0 0 0 0 .1v.292C0 .417.01.44.028.46a.09.09 0 0 0 .07.03h.17C.286.49.294.483.294.466V.1c0-.01.003-.02.009-.03a.062.062 0 0 1 .024-.02z"/></symbol><symbol id="o"><path d="M.293.024A.025.025 0 0 0 .286.006.026.026 0 0 0 .27 0 .053.053 0 0 0 .25.006C.247.01.244.016.244.024V.44H.142L.048.02C.045.006.038 0 .025 0a.028.028 0 0 0-.018.006A.023.023 0 0 0 0 .024V.03l.098.44C.101.481.11.487.122.487H.27C.285.488.293.48.293.464v-.44z"/></symbol><symbol id="p"><path d="M.293.537V.195h.049c.037 0 .071.014.101.043C.473.266.49.3.49.342V.39a.14.14 0 0 1-.043.103.14.14 0 0 1-.104.043H.293M.245.195v.342h-.05A.143.143 0 0 1 .093.494.155.155 0 0 1 .06.447L.052.421.05.406.049.39V.34c0-.04.014-.075.043-.103A.144.144 0 0 1 .196.195h.049m0-.049h-.05A.194.194 0 0 0 0 .341l.001.05a.197.197 0 0 0 .196.195h.049v.073c0 .005.002.01.007.016s.01.009.017.009A.026.026 0 0 0 .286.677.022.022 0 0 0 .293.66V.586h.049A.19.19 0 0 0 .48.529.188.188 0 0 0 .538.391V.34A.19.19 0 0 0 .48.205.204.204 0 0 0 .362.147a.188.188 0 0 0-.02 0H.293V.023A.025.025 0 0 0 .287.006.026.026 0 0 0 .269 0a.053.053 0 0 0-.017.006C.247.01.245.016.245.024v.122z"/></symbol><symbol id="q"><path d="M.342.024A.025.025 0 0 0 .335.006.026.026 0 0 0 .317 0 .053.053 0 0 0 .3.006C.295.01.293.016.293.024v.359L.191.23C.186.221.18.216.171.216S.157.221.15.23L.048.383V.024A.025.025 0 0 0 .042.006.026.026 0 0 0 .024 0a.053.053 0 0 0-.017.006C.002.01 0 .016 0 .024v.44C0 .47.002.477.007.48.012.486.018.49.025.49a.024.024 0 0 0 .01-.003C.04.485.042.482.045.478L.17.288l.126.19a.025.025 0 0 0 .02.011C.322.49.327.487.333.482a.021.021 0 0 0 .01-.018v-.44z"/></symbol><use xlink:href="#a" transform="matrix(14.40576 0 5.24376 -14.40576 1878.597 926.334)"/><use xlink:href="#e" transform="matrix(14.40576 0 5.24376 -14.40576 1884.896 926.334)"/><use xlink:href="#i" transform="matrix(14.40576 0 5.24376 -14.40576 1890.408 926.334)"/><use xlink:href="#m" transform="matrix(14.40576 0 5.24376 -14.40576 1895.92 926.334)"/><use xlink:href="#c" transform="matrix(14.40576 0 5.24376 -14.40576 1900.408 929.148)"/><use xlink:href="#e" transform="matrix(14.40576 0 5.24376 -14.40576 1906.944 926.334)"/><use xlink:href="#f" transform="matrix(14.40576 0 5.24376 -14.40576 1912.456 926.334)"/><use xlink:href="#n" transform="matrix(14.40576 0 5.24376 -14.40576 1917.96 926.355)"/><use xlink:href="#o" transform="matrix(14.40576 0 5.24376 -14.40576 1923.48 926.334)"/><use xlink:href="#p" transform="matrix(14.40576 0 5.24376 -14.40576 2077.013 926.334)"/><use xlink:href="#e" transform="matrix(14.40576 0 5.24376 -14.40576 2086.207 926.334)"/><use xlink:href="#c" transform="matrix(14.40576 0 5.24376 -14.40576 2090.695 929.148)"/><use xlink:href="#q" transform="matrix(14.40576 0 5.24376 -14.40576 2097.23 926.334)"/><use xlink:href="#n" transform="matrix(14.40576 0 5.24376 -14.40576 2103.523 926.355)"/><use xlink:href="#l" transform="matrix(14.40576 0 5.24376 -14.40576 2109.042 926.334)"/><symbol id="r"><path d="M.096.195.048.018A.02.02 0 0 0 .04.005.023.023 0 0 0 .025 0a.027.027 0 0 0-.018.006A.023.023 0 0 0 0 .024L.001.03l.17.63c.005.014.013.022.024.022C.207.683.215.675.22.66l.17-.63.002-.008A.025.025 0 0 0 .383.006.027.027 0 0 0 .352.004a.027.027 0 0 0-.01.014L.296.195h-.2m.187.05-.087.32L.11.246h.173z"/></symbol><symbol id="s"><path d="M.195.024A.025.025 0 0 0 .188.006.026.026 0 0 0 .17 0a.053.053 0 0 0-.017.006C.148.01.146.016.146.024v.577L.042.496A.023.023 0 0 0 .025.488a.024.024 0 0 0-.018.008A.024.024 0 0 0 0 .513C0 .516.002.521.007.53l.146.146c.005.005.01.007.017.007A.024.024 0 0 0 .187.676.02.02 0 0 0 .195.66V.024z"/></symbol><use xlink:href="#r" transform="matrix(14.40576 0 5.24376 -14.40576 2133.697 926.327)"/><use xlink:href="#s" transform="matrix(14.40576 0 5.24376 -14.40576 2140.803 926.334)"/><symbol id="t"><path d="M.293.39v.27c0 .015.009.024.025.024S.342.675.342.659V.024C.342.008.334 0 .318 0S.293.008.293.024v.317H.05V.024C.049.008.04 0 .024 0 .008 0 0 .008 0 .024V.66c0 .016.008.025.024.025C.041.684.05.675.05.659V.39h.244z"/></symbol><symbol id="u"><path d="M.049.268h.195V.39A.046.046 0 0 1 .23.424.046.046 0 0 1 .195.44H.097A.046.046 0 0 1 .063.424.047.047 0 0 1 .049.39V.268m0-.048V.098a.048.048 0 0 1 .048-.05h.171C.284.049.292.042.292.025.292.008.284 0 .268 0h-.17C.07 0 .047.01.027.028A.095.095 0 0 0 0 .098V.39C0 .417.01.44.028.46c.02.02.042.029.07.029h.097c.027 0 .05-.01.07-.029A.093.093 0 0 0 .292.39V.244C.293.228.285.22.268.22h-.22z"/></symbol><use xlink:href="#t" transform="matrix(13.68547 0 4.98155 -14.40576 -158.131 926.268)"/><use xlink:href="#u" transform="matrix(13.68547 0 4.98155 -14.40576 -153.02 926.268)"/><symbol id="v"><path d="M0 0z"/></symbol><use xlink:href="#v" transform="matrix(13.68547 0 4.98155 -14.40576 -149.246 926.268)"/><symbol id="w"><path d="M.293.098c0-.027-.01-.05-.029-.07A.093.093 0 0 0 .194 0H.099c-.027 0-.05.01-.07.029A.095.095 0 0 0 0 .098V.39c0 .027.01.05.028.068.02.02.043.03.07.03h.146v.097A.046.046 0 0 1 .23.62a.047.047 0 0 1-.034.014h-.17C.007.635 0 .643 0 .659s.008.025.024.025h.17c.028 0 .051-.01.07-.03A.094.094 0 0 0 .293.587V.098m-.049 0v.341H.098A.048.048 0 0 1 .063.425.047.047 0 0 1 .049.39V.098a.048.048 0 0 1 .05-.05h.096c.013 0 .025.006.034.015.01.01.015.021.015.035z"/></symbol><symbol id="x"><path d="M.293.024C.293.008.285 0 .269 0 .252 0 .244.008.244.024V.44H.142L.048.02C.045.006.038 0 .025 0 .008 0 0 .008 0 .023V.03l.098.44C.101.481.11.487.122.487H.27C.285.488.293.48.293.464v-.44z"/></symbol><symbol id="y"><path d="M.245.269v.17H.098A.047.047 0 0 1 .063.425.047.047 0 0 1 .05.39V.317A.048.048 0 0 1 .1.27h.146M.293.024C.293.008.285 0 .27 0S.245.008.245.024V.22H.16L.046.013C.042.004.035 0 .026 0 .009 0 0 .008 0 .024l.003.012.102.184H.098c-.027 0-.05.01-.07.028A.095.095 0 0 0 0 .318V.39C0 .417.01.44.03.459c.019.02.042.03.07.03h.17C.285.488.293.48.293.463v-.44z"/></symbol><symbol id="z"><path d="M.294.462A.025.025 0 0 0 .287.445L.136.28.289.038A.025.025 0 0 0 .293.024.023.023 0 0 0 .285.007.026.026 0 0 0 .268 0a.022.022 0 0 0-.02.011L.102.242.05.183V.024C.049.008.04 0 .024 0 .008 0 0 .008 0 .024v.44C0 .48.008.488.024.488.041.488.05.48.05.464V.256L.25.48a.024.024 0 0 0 .018.008.023.023 0 0 0 .017-.008.023.023 0 0 0 .008-.017z"/></symbol><symbol id="A"><path d="M.293.098c0-.027-.01-.05-.029-.07A.094.094 0 0 0 .195 0H.098C.07 0 .048.01.028.028A.095.095 0 0 0 0 .098V.39c0 .026.01.05.029.068.019.02.042.03.069.03h.097c.027 0 .05-.01.07-.03A.094.094 0 0 0 .292.391V.098m-.049 0V.39A.046.046 0 0 1 .23.425a.046.046 0 0 1-.034.014H.098A.047.047 0 0 1 .063.425.047.047 0 0 1 .049.39V.098a.048.048 0 0 1 .049-.05h.097C.21.049.22.055.23.064c.01.01.015.021.015.035z"/></symbol><symbol id="B"><path d="M.342.024C.342.008.334 0 .317 0 .301 0 .293.008.293.024v.359L.191.23C.185.221.178.216.171.216.163.216.157.221.15.23L.048.383V.024C.049.008.04 0 .024 0 .008 0 0 .008 0 .024v.44C0 .48.008.489.024.489a.023.023 0 0 0 .02-.011l.127-.19.126.19a.024.024 0 0 0 .02.011C.334.49.342.481.342.464v-.44z"/></symbol><symbol id="C"><path d="M.049.244h.147a.048.048 0 0 1 .048.05v.292A.045.045 0 0 1 .23.62a.045.045 0 0 1-.033.015H.049V.244m0-.05v-.17C.049.008.04 0 .024 0 .008 0 0 .008 0 .024V.66c0 .016.008.025.024.025h.172c.026 0 .05-.01.068-.03A.092.092 0 0 0 .293.587V.293c0-.027-.01-.05-.029-.07A.092.092 0 0 0 .196.196H.049z"/></symbol><symbol id="D"><path d="M.293.024C.293.008.285 0 .269 0 .252 0 .244.008.244.024V.22H.098C.07.22.048.23.028.248A.095.095 0 0 0 0 .318v.146C0 .48.008.488.024.488.041.488.05.48.05.464V.317A.048.048 0 0 1 .098.27h.146v.195c0 .016.008.024.025.024C.285.488.293.48.293.464v-.44z"/></symbol><symbol id="E"><path d="M.269 0H.098C.07 0 .048.01.028.028A.095.095 0 0 0 0 .098V.39c0 .026.01.05.029.068.019.02.042.03.069.03h.17C.286.488.294.48.294.463S.285.439.269.439H.098A.047.047 0 0 1 .063.425.047.047 0 0 1 .049.39V.098a.048.048 0 0 1 .049-.05h.17C.286.049.294.042.294.025.293.008.285 0 .269 0z"/></symbol><symbol id="F"><path d="M.297.074c0-.003 0-.006-.002-.01A.107.107 0 0 0 .197 0L.1.001a.093.093 0 0 0-.071.03A.097.097 0 0 0 .002.1c0 .027.01.05.03.07l.2.186c.01.01.015.021.015.035a.048.048 0 0 1-.015.034.045.045 0 0 1-.035.015H.1A.06.06 0 0 1 .068.43a.047.047 0 0 1-.02-.023C.044.396.036.39.025.39.008.39 0 .398 0 .414c0 .003 0 .006.002.01.007.018.02.034.039.046A.105.105 0 0 0 .1.488h.097C.226.488.25.478.27.458A.098.098 0 0 0 .265.32l-.2-.187A.046.046 0 0 1 .052.1C.05.085.055.074.064.064A.046.046 0 0 1 .1.05h.097c.027 0 .044.01.053.033.004.01.011.016.022.016C.289.098.297.09.297.074z"/></symbol><use xlink:href="#w" transform="matrix(13.68547 0 4.98155 -14.40576 -145.24 926.268)"/><use xlink:href="#x" transform="matrix(13.68547 0 4.98155 -14.40576 -140.796 926.268)"/><use xlink:href="#y" transform="matrix(13.68547 0 4.98155 -14.40576 -136.358 926.268)"/><use xlink:href="#z" transform="matrix(13.68547 0 4.98155 -14.40576 -128.566 926.268)"/><use xlink:href="#A" transform="matrix(13.68547 0 4.98155 -14.40576 -124.128 926.268)"/><use xlink:href="#B" transform="matrix(13.68547 0 4.98155 -14.40576 -119.684 926.268)"/><use xlink:href="#B" transform="matrix(13.68547 0 4.98155 -14.40576 -114.572 926.268)"/><use xlink:href="#u" transform="matrix(13.68547 0 4.98155 -14.40576 -109.462 926.268)"/><use xlink:href="#C" transform="matrix(13.68547 0 4.98155 -14.40576 -105.99 929.082)"/><use xlink:href="#D" transform="matrix(13.68547 0 4.98155 -14.40576 -100.572 926.268)"/><use xlink:href="#u" transform="matrix(13.68547 0 4.98155 -14.40576 -96.128 926.268)"/><use xlink:href="#E" transform="matrix(13.68547 0 4.98155 -14.40576 -91.683 926.268)"/><use xlink:href="#z" transform="matrix(13.68547 0 4.98155 -14.40576 -87.232 926.268)"/><use xlink:href="#A" transform="matrix(13.68547 0 4.98155 -14.40576 -82.794 926.268)"/><use xlink:href="#F" transform="matrix(13.68547 0 4.98155 -14.40576 -78.376 926.268)"/><use xlink:href="#A" transform="matrix(13.68547 0 4.98155 -14.40576 -73.904 926.268)"/><use xlink:href="#v" transform="matrix(13.68547 0 4.98155 -14.40576 -70.124 926.268)"/><symbol id="G"><path d="M.293.024C.293.008.285 0 .269 0H.098C.07 0 .048.01.028.028A.095.095 0 0 0 0 .098v.366C0 .48.008.488.024.488.041.488.05.48.05.464V.098a.048.048 0 0 1 .049-.05h.146v.416c0 .016.008.024.025.024C.285.488.293.48.293.464v-.44z"/></symbol><symbol id="H"><path d="M.293.024C.293.008.285 0 .269 0 .252 0 .244.008.244.024v.367A.046.046 0 0 1 .23.425a.046.046 0 0 1-.034.014H.05V.024C.049.008.04 0 .024 0 .008 0 0 .008 0 .024v.44C0 .48.008.488.024.488h.171c.027 0 .05-.01.07-.029A.094.094 0 0 0 .292.391V.024z"/></symbol><symbol id="I"><path d="M.293.098c0-.027-.01-.05-.029-.07A.094.094 0 0 0 .195 0h-.17C.007 0 0 .008 0 .024v.44C0 .48.008.488.024.488.041.488.05.48.05.464V.269h.146c.027 0 .05-.01.07-.03A.094.094 0 0 0 .292.172V.098m-.049 0V.17A.046.046 0 0 1 .23.205.046.046 0 0 1 .195.22H.05V.049h.146C.21.049.22.054.23.063c.01.01.015.021.015.035z"/></symbol><symbol id="J"><path d="M.27.098a.09.09 0 0 0-.03-.07A.102.102 0 0 0 .166 0H.094c-.02 0-.04.006-.057.019a.094.094 0 0 0-.036.048.028.028 0 0 0-.001.01C0 .091.008.1.025.1.037.1.045.094.048.082.055.06.07.049.094.049h.073c.014 0 .027.005.038.014.011.01.017.022.017.035V.17a.044.044 0 0 1-.017.034.055.055 0 0 1-.038.015H.12C.102.22.094.228.094.244S.102.27.12.27h.048c.014 0 .027.004.038.014s.017.021.017.034v.074a.044.044 0 0 1-.017.034.055.055 0 0 1-.038.014H.12C.095.44.079.43.072.406.07.395.062.389.05.389.033.39.025.397.025.413L.026.42A.096.096 0 0 0 .12.488h.048A.1.1 0 0 0 .24.46.09.09 0 0 0 .271.391V.317A.092.092 0 0 0 .237.244.094.094 0 0 0 .271.171V.098z"/></symbol><symbol id="K"><path d="M.293.098c0-.027-.01-.05-.029-.07A.093.093 0 0 0 .194 0H.099c-.027 0-.05.01-.07.029A.095.095 0 0 0 0 .098v.488c0 .03.01.055.03.073.019.016.04.024.067.024A.092.092 0 0 0 .195.586a.09.09 0 0 0-.022-.06A3.89 3.89 0 0 1 .128.487h.067c.027 0 .05-.01.07-.029A.093.093 0 0 0 .292.391V.098M.146.586a.045.045 0 0 1-.014.036.05.05 0 0 1-.034.013.049.049 0 0 1-.034-.012.046.046 0 0 1-.015-.037V.488C.082.51.109.53.129.55.14.562.145.574.145.586M.244.098V.39A.046.046 0 0 1 .23.425a.046.046 0 0 1-.034.014H.098A.048.048 0 0 1 .063.425.047.047 0 0 1 .049.39V.098a.048.048 0 0 1 .05-.05h.096c.013 0 .025.006.034.015.01.01.015.021.015.035z"/></symbol><symbol id="L"><path d="M.244.1v.34H.098A.047.047 0 0 1 .063.427.047.047 0 0 1 .049.392V.1A.048.048 0 0 1 .098.05h.097C.21.05.22.055.23.064.24.074.244.086.244.1m.1-.074C.344.008.336 0 .32 0 .306 0 .289.011.269.034A.093.093 0 0 0 .195.001H.098c-.027 0-.05.01-.07.029A.095.095 0 0 0 0 .1v.292c0 .027.01.05.029.069C.048.48.07.49.098.49h.17C.286.49.294.482.294.465V.098c0-.024.011-.04.033-.05C.338.044.344.036.344.025z"/></symbol><symbol id="M"><path d="M.293.024C.293.008.285 0 .269 0 .252 0 .244.008.244.024V.22H.05V.024C.049.008.04 0 .024 0 .008 0 0 .008 0 .024v.44C0 .48.008.488.024.488.041.488.05.48.05.464V.269h.195v.195c0 .016.008.024.025.024C.285.488.293.48.293.464v-.44z"/></symbol><use xlink:href="#G" transform="matrix(13.68547 0 4.98155 -14.40576 -66.119 926.268)"/><use xlink:href="#E" transform="matrix(13.68547 0 4.98155 -14.40576 -61.674 926.268)"/><use xlink:href="#H" transform="matrix(13.68547 0 4.98155 -14.40576 -57.23 926.268)"/><use xlink:href="#A" transform="matrix(13.68547 0 4.98155 -14.40576 -52.785 926.268)"/><use xlink:href="#x" transform="matrix(13.68547 0 4.98155 -14.40576 -48.34 926.268)"/><use xlink:href="#I" transform="matrix(13.68547 0 4.98155 -14.40576 -43.896 926.268)"/><use xlink:href="#J" transform="matrix(13.68547 0 4.98155 -14.40576 -39.479 926.268)"/><use xlink:href="#A" transform="matrix(13.68547 0 4.98155 -14.40576 -35.229 926.268)"/><use xlink:href="#K" transform="matrix(13.68547 0 4.98155 -14.40576 -30.784 926.268)"/><use xlink:href="#L" transform="matrix(13.68547 0 4.98155 -14.40576 -26.42 926.289)"/><use xlink:href="#M" transform="matrix(13.68547 0 4.98155 -14.40576 -21.895 926.268)"/><use xlink:href="#G" transform="matrix(13.68547 0 4.98155 -14.40576 -17.45 926.268)"/><use xlink:href="#y" transform="matrix(13.68547 0 4.98155 -14.40576 -13.012 926.268)"/><symbol id="N"><path d="M.049.26V.025C.049.008.04 0 .024 0 .008 0 0 .008 0 .024V.66c0 .016.008.025.024.025C.041.684.05.675.05.659V.342l.25.332c.004.007.01.01.018.01A.024.024 0 0 0 .335.676.023.023 0 0 0 .337.645L.164.414.34.034a.027.027 0 0 0 .002-.01C.342.007.334 0 .317 0 .307 0 .3.005.296.014L.13.37.05.26z"/></symbol><symbol id="O"><path d="M.342.146A.142.142 0 0 0 .3.042.142.142 0 0 0 .195 0H.146a.141.141 0 0 0-.103.043A.141.141 0 0 0 0 .146v.391c0 .04.014.075.043.104a.141.141 0 0 0 .103.043h.05C.235.684.27.669.298.64A.14.14 0 0 0 .342.537v-.39m-.049 0v.39c0 .027-.01.05-.028.069a.095.095 0 0 1-.07.029H.146A.094.094 0 0 1 .078.606a.094.094 0 0 1-.03-.069v-.39c0-.027.01-.05.03-.07A.094.094 0 0 1 .146.05h.05c.026 0 .05.01.069.028.019.02.028.042.028.07z"/></symbol><symbol id="P"><path d="M.439.024C.439.008.431 0 .415 0 .398 0 .39.008.39.024v.547L.24.33C.234.319.227.313.22.313.21.313.203.32.197.33L.048.57V.024C.049.008.042 0 .025 0 .008 0 0 .008 0 .024v.634c0 .02.007.029.022.029C.032.687.039.68.045.67L.22.388.394.67C.4.68.408.687.417.687c.015 0 .022-.01.022-.029V.024z"/></symbol><symbol id="Q"><path d="M.342.024C.342.008.334 0 .318 0S.293.008.293.024v.61H.05v-.61C.049.008.04 0 .024 0 .008 0 0 .008 0 .024V.66c0 .016.008.025.024.025h.294C.334.684.342.675.342.659V.024z"/></symbol><symbol id="R"><path d="M.096.195.048.018C.045.006.037 0 .025 0 .008 0 0 .008 0 .023l.001.008.17.63c.005.014.013.022.024.022C.207.683.215.675.22.66l.17-.63A.03.03 0 0 0 .392.023C.39.008.382 0 .366 0 .354 0 .346.006.343.018L.295.195h-.2m.187.05-.087.32L.11.246h.173z"/></symbol><symbol id="S"><path d="M.269 0H.147a.142.142 0 0 0-.104.042A.142.142 0 0 0 0 .146v.391c0 .04.014.075.043.104a.142.142 0 0 0 .104.043h.122C.285.684.293.675.293.659S.285.635.269.635H.147a.095.095 0 0 1-.07-.029A.093.093 0 0 1 .05.537v-.39c0-.028.01-.05.029-.07A.095.095 0 0 1 .147.05h.122C.285.049.293.04.293.024.293.008.285 0 .269 0z"/></symbol><use xlink:href="#N" transform="matrix(0 -13.68547 -14.40576 -4.98155 -161.634 913.553)"/><use xlink:href="#O" transform="matrix(0 -13.68547 -14.40576 -4.98155 -161.634 908.44)"/><use xlink:href="#P" transform="matrix(0 -13.68547 -14.40576 -4.98155 -161.641 903.327)"/><use xlink:href="#Q" transform="matrix(0 -13.68547 -14.40576 -4.98155 -161.634 897.108)"/><use xlink:href="#R" transform="matrix(0 -13.68547 -14.40576 -4.98155 -161.641 892.007)"/><use xlink:href="#S" transform="matrix(0 -13.68547 -14.40576 -4.98155 -161.634 886.44)"/><symbol id="T"><path d="M.279 0H.02C.007 0 0 .007 0 .021c0 .015.007.022.021.022H.28C.293.043.3.036.3.021.3.007.293 0 .28 0z"/></symbol><symbol id="U"><path d="M.214.374A.143.143 0 0 0 .271.32.141.141 0 0 0 .293.244V.146A.142.142 0 0 0 .25.042.14.14 0 0 0 .146 0H.024C.008 0 0 .008 0 .024 0 .041.008.05.024.05h.122c.028 0 .05.01.07.028.019.02.028.042.028.07v.097c0 .027-.01.05-.029.069a.093.093 0 0 1-.069.029H.122C.106.342.098.35.098.366s.008.025.024.025C.15.39.172.4.191.419.21.439.22.46.22.489v.048c0 .027-.01.05-.03.069a.093.093 0 0 1-.068.029H.024C.008.635 0 .643 0 .659s.008.025.024.025h.098A.14.14 0 0 0 .226.64.14.14 0 0 0 .269.537V.488A.14.14 0 0 0 .214.374z"/></symbol><symbol id="V"><path d="M.342.146A.142.142 0 0 0 .3.042.142.142 0 0 0 .195 0h-.17C.007 0 0 .008 0 .024V.66c0 .016.008.025.024.025h.171C.236.684.271.669.3.64A.14.14 0 0 0 .342.537v-.39m-.049 0v.39c0 .027-.01.05-.028.069a.095.095 0 0 1-.07.029H.05V.049h.146c.027 0 .05.01.07.028.019.02.028.042.028.07z"/></symbol><symbol id="W"><path d="M.146 0C.135 0 .127.007.123.021L.001.458A.03.03 0 0 0 0 .466C0 .48.008.489.025.489.037.49.045.483.048.471L.146.12l.1.352C.247.483.255.49.267.49.285.49.293.481.293.466A.03.03 0 0 0 .292.458L.17.021C.166.007.158 0 .146 0z"/></symbol><symbol id="X"><path d="M.316 0H.024C.008 0 0 .009 0 .026 0 .03.001.035.003.038l.268.406a.127.127 0 0 1 .024.07A.11.11 0 0 1 .254.6a.134.134 0 0 1-.09.034C.115.634.08.607.055.551.051.541.043.535.033.535.016.535.008.543.008.56l.001.009c.028.077.078.116.152.116.047 0 .09-.016.127-.048a.154.154 0 0 0 .057-.12.179.179 0 0 0-.032-.1L.07.05h.246C.332.049.34.04.34.024.34.008.332 0 .316 0z"/></symbol><use xlink:href="#T" transform="matrix(0 -13.68547 -14.40576 -4.98155 -164.413 881.033)"/><use xlink:href="#U" transform="matrix(0 -13.68547 -14.40576 -4.98155 -161.634 877.549)"/><use xlink:href="#V" transform="matrix(0 -13.68547 -14.40576 -4.98155 -161.634 873.104)"/><use xlink:href="#v" transform="matrix(0 -13.68547 -14.40576 -4.98155 -161.634 868.661)"/><use xlink:href="#W" transform="matrix(0 -13.68547 -14.40576 -4.98155 -161.62 864.664)"/><use xlink:href="#X" transform="matrix(0 -13.68547 -14.40576 -4.98155 -161.634 860.208)"/><use xlink:href="#X" transform="matrix(0 -13.68547 -14.40576 -4.98155 -161.634 855.097)"/><symbol id="Y"><path d="M.293.293H.146a.142.142 0 0 0-.104.043A.142.142 0 0 0 0 .439v.22c0 .016.008.025.024.025C.041.684.05.675.05.659V.44c0-.026.01-.05.028-.068a.095.095 0 0 1 .07-.029h.146V.66c0 .016.009.025.025.025S.342.675.342.659V.146A.142.142 0 0 0 .3.042.142.142 0 0 0 .195 0H.073C.057 0 .05.008.05.024c0 .017.008.025.024.025h.122c.027 0 .05.01.07.028.019.02.028.042.028.07v.146z"/></symbol><symbol id="Z"><path d="M.248.098V.39a.046.046 0 0 1-.015.034.046.046 0 0 1-.035.014H.102A.048.048 0 0 1 .066.425.047.047 0 0 1 .052.39V.098a.048.048 0 0 1 .05-.05h.096c.014 0 .025.006.035.015.01.01.015.021.015.035m.048 0c0-.027-.01-.05-.028-.07A.093.093 0 0 0 .198 0H.102C.074 0 .05.01.032.029a.095.095 0 0 0-.029.069V.39c0 .027.01.05.029.068.019.02.042.03.07.03h.066L.011.641C.004.648 0 .656 0 .663c0 .014.01.02.028.02h.244C.288.684.296.676.296.66S.288.635.272.635H.088L.269.458A.092.092 0 0 0 .296.391V.098z"/></symbol><use xlink:href="#Y" transform="matrix(0 -13.68547 -14.40576 -4.98155 -161.634 846.658)"/><use xlink:href="#D" transform="matrix(0 -13.68547 -14.40576 -4.98155 -161.634 841.547)"/><use xlink:href="#u" transform="matrix(0 -13.68547 -14.40576 -4.98155 -161.634 837.102)"/><use xlink:href="#Z" transform="matrix(0 -13.68547 -14.40576 -4.98155 -161.634 832.704)"/><use xlink:href="#M" transform="matrix(0 -13.68547 -14.40576 -4.98155 -161.634 828.213)"/><use xlink:href="#L" transform="matrix(0 -13.68547 -14.40576 -4.98155 -161.613 823.849)"/><use xlink:href="#y" transform="matrix(0 -13.68547 -14.40576 -4.98155 -161.634 819.33)"/><use xlink:href="#v" transform="matrix(0 -13.68547 -14.40576 -4.98155 -161.634 815.543)"/><use xlink:href="#K" transform="matrix(0 -13.68547 -14.40576 -4.98155 -161.634 811.538)"/><use xlink:href="#u" transform="matrix(0 -13.68547 -14.40576 -4.98155 -161.634 807.093)"/><use xlink:href="#C" transform="matrix(0 -13.68547 -14.40576 -4.98155 -158.82 803.621)"/><use xlink:href="#E" transform="matrix(0 -13.68547 -14.40576 -4.98155 -161.634 798.204)"/><use xlink:href="#G" transform="matrix(0 -13.68547 -14.40576 -4.98155 -161.634 793.76)"/><use xlink:href="#y" transform="matrix(0 -13.68547 -14.40576 -4.98155 -161.634 789.321)"/><symbol id="aa"><path d="M.289.397A.074.074 0 0 1 .234.375.074.074 0 0 1 .212.321V.256C.212.234.22.216.234.2A.072.072 0 0 1 .29.178h.066C.37.178.377.171.377.156.377.14.37.133.355.133H.289A.12.12 0 0 0 .2.168a.119.119 0 0 0-.035.088V.32C.166.356.177.385.2.41A.119.119 0 0 0 .29.444h.066C.37.444.377.437.377.421S.37.397.355.397H.289m0 .134A.233.233 0 0 1 .117.46a.236.236 0 0 1-.07-.172c0-.066.023-.123.07-.17A.233.233 0 0 1 .29.046C.356.046.413.07.46.117c.047.047.07.104.07.171A.236.236 0 0 1 .46.46a.233.233 0 0 1-.171.07m0 .047c.08 0 .148-.028.204-.084A.278.278 0 0 0 .577.288.278.278 0 0 0 .492.084.278.278 0 0 0 .29 0a.278.278 0 0 0-.205.085A.277.277 0 0 0 0 .288c0 .08.028.148.084.204A.278.278 0 0 0 .29.577z"/></symbol><symbol id="ab"><path d="M.342.146A.142.142 0 0 0 .3.042.142.142 0 0 0 .195 0H.146a.141.141 0 0 0-.103.043A.141.141 0 0 0 0 .146v.391c0 .04.014.075.043.104a.141.141 0 0 0 .103.043h.05C.235.684.27.669.298.64A.14.14 0 0 0 .342.537v-.39m-.049 0v.39c0 .027-.01.05-.028.069a.095.095 0 0 1-.07.029H.146A.094.094 0 0 1 .078.606a.094.094 0 0 1-.03-.069v-.39c0-.027.01-.05.03-.07A.094.094 0 0 1 .146.05h.05c.026 0 .05.01.069.028.019.02.028.042.028.07z"/></symbol><use xlink:href="#v" transform="matrix(0 -13.68547 -14.40576 -4.98155 -161.634 785.536)"/><use xlink:href="#aa" transform="matrix(0 -13.68547 -14.40576 -4.98155 -163.26 780.946)"/><use xlink:href="#X" transform="matrix(0 -13.68547 -14.40576 -4.98155 -161.634 770.416)"/><use xlink:href="#ab" transform="matrix(0 -13.68547 -14.40576 -4.98155 -161.634 765.311)"/><use xlink:href="#X" transform="matrix(0 -13.68547 -14.40576 -4.98155 -161.634 760.194)"/><use xlink:href="#U" transform="matrix(0 -13.68547 -14.40576 -4.98155 -161.634 755.09)"/><use xlink:href="#O" transform="matrix(0 -13.68547 -14.40576 -4.98155 -161.634 747.308)"/><use xlink:href="#O" transform="matrix(0 -13.68547 -14.40576 -4.98155 -161.634 742.196)"/><use xlink:href="#O" transform="matrix(0 -13.68547 -14.40576 -4.98155 -161.634 737.085)"/><symbol id="ac"><path d="M.074.123a.227.227 0 0 0-.01-.051A3.207 3.207 0 0 1 .049.019C.046.006.038 0 .025 0 .008 0 0 .008 0 .023c0 .01.003.027.01.052l.015.052C.03.14.036.147.05.147.066.146.074.138.074.122m.098 0a.227.227 0 0 0-.01-.051A3.207 3.207 0 0 1 .146.019C.143.006.136 0 .123 0 .106 0 .098.008.098.023c0 .01.003.027.01.052l.015.052c.003.013.011.02.023.02.017 0 .026-.008.026-.024z"/></symbol><use xlink:href="#v" transform="matrix(0 -13.68547 -14.40576 -4.98155 -161.634 732.645)"/><use xlink:href="#ac" transform="matrix(0 -13.68547 -14.40576 -4.98155 -169.372 726.315)"/><use xlink:href="#R" transform="matrix(0 -13.68547 -14.40576 -4.98155 -161.641 725.762)"/><use xlink:href="#S" transform="matrix(0 -13.68547 -14.40576 -4.98155 -161.634 720.195)"/><use xlink:href="#N" transform="matrix(0 -13.68547 -14.40576 -4.98155 -161.634 715.75)"/><use xlink:href="#O" transform="matrix(0 -13.68547 -14.40576 -4.98155 -161.634 710.64)"/><use xlink:href="#t" transform="matrix(0 -13.68547 -14.40576 -4.98155 -161.634 705.528)"/><use xlink:href="#T" transform="matrix(0 -13.68547 -14.40576 -4.98155 -164.413 699.457)"/><symbol id="ad"><path d="M.195.44H.05V.023C.049.008.04 0 .024 0 .008 0 0 .008 0 .024v.44C0 .48.008.488.024.488h.318C.368.488.392.478.41.46A.094.094 0 0 0 .439.391V.024C.44.008.431 0 .415 0S.391.008.391.024v.367a.046.046 0 0 1-.015.034.046.046 0 0 1-.034.014H.244V.024C.244.008.236 0 .22 0 .203 0 .195.008.195.024V.44z"/></symbol><symbol id="ae"><path d="M.342.024C.342.008.334 0 .317 0 .301 0 .293.008.293.024v.44c0 .016.008.024.024.024C.334.488.342.48.342.464v-.44M.244.098c0-.027-.01-.05-.029-.07A.094.094 0 0 0 .146 0H.024C.008 0 0 .008 0 .024v.44C0 .48.008.488.024.488.041.488.05.48.05.464V.269h.097c.028 0 .05-.01.07-.03A.094.094 0 0 0 .243.172V.098m-.049 0V.17a.046.046 0 0 1-.014.034.046.046 0 0 1-.035.015H.05V.049h.097c.014 0 .025.005.035.014.01.01.014.021.014.035z"/></symbol><use xlink:href="#S" transform="matrix(0 -13.68547 -14.40576 -4.98155 -161.634 695.978)"/><use xlink:href="#G" transform="matrix(0 -13.68547 -14.40576 -4.98155 -161.634 691.533)"/><use xlink:href="#E" transform="matrix(0 -13.68547 -14.40576 -4.98155 -161.634 687.088)"/><use xlink:href="#ad" transform="matrix(0 -13.68547 -14.40576 -4.98155 -161.634 682.644)"/><use xlink:href="#u" transform="matrix(0 -13.68547 -14.40576 -4.98155 -161.634 676.421)"/><use xlink:href="#B" transform="matrix(0 -13.68547 -14.40576 -4.98155 -161.634 671.976)"/><use xlink:href="#ae" transform="matrix(0 -13.68547 -14.40576 -4.98155 -161.634 666.866)"/><use xlink:href="#v" transform="matrix(0 -13.68547 -14.40576 -4.98155 -161.634 662.423)"/><use xlink:href="#H" transform="matrix(0 -13.68547 -14.40576 -4.98155 -161.634 658.418)"/><use xlink:href="#C" transform="matrix(0 -13.68547 -14.40576 -4.98155 -158.82 654.946)"/><use xlink:href="#A" transform="matrix(0 -13.68547 -14.40576 -4.98155 -161.634 649.528)"/><use xlink:href="#u" transform="matrix(0 -13.68547 -14.40576 -4.98155 -161.634 645.083)"/><use xlink:href="#z" transform="matrix(0 -13.68547 -14.40576 -4.98155 -161.634 640.632)"/><use xlink:href="#ad" transform="matrix(0 -13.68547 -14.40576 -4.98155 -161.634 636.194)"/><use xlink:href="#G" transform="matrix(0 -13.68547 -14.40576 -4.98155 -161.634 629.972)"/><use xlink:href="#C" transform="matrix(0 -13.68547 -14.40576 -4.98155 -158.82 626.5)"/><use xlink:href="#A" transform="matrix(0 -13.68547 -14.40576 -4.98155 -161.634 621.083)"/><use xlink:href="#K" transform="matrix(0 -13.68547 -14.40576 -4.98155 -161.634 616.638)"/><use xlink:href="#L" transform="matrix(0 -13.68547 -14.40576 -4.98155 -161.613 612.274)"/><use xlink:href="#M" transform="matrix(0 -13.68547 -14.40576 -4.98155 -161.634 607.749)"/><use xlink:href="#G" transform="matrix(0 -13.68547 -14.40576 -4.98155 -161.634 603.304)"/><use xlink:href="#y" transform="matrix(0 -13.68547 -14.40576 -4.98155 -161.634 598.866)"/><symbol id="af"><path d="M.074.123.05.019C.046.006.038 0 .025 0 .008 0 0 .008 0 .023l.025.104C.03.14.036.147.05.147.066.146.074.138.074.122z"/></symbol><use xlink:href="#ac" transform="matrix(0 -13.68547 -14.40576 -4.98155 -169.372 592.084)"/><use xlink:href="#af" transform="matrix(0 -13.68547 -14.40576 -4.98155 -160.157 592.381)"/><use xlink:href="#v" transform="matrix(0 -13.68547 -14.40576 -4.98155 -161.634 590.413)"/><symbol id="ag"><path d="M.049.342h.146c.027 0 .05.01.07.028.019.019.028.042.028.068v.099c0 .026-.01.05-.029.068a.094.094 0 0 1-.069.029H.05V.342m0-.049V.024C.049.008.04 0 .024 0 .008 0 0 .008 0 .024v.634c0 .016.008.025.024.025h.171C.235.683.27.668.3.64A.139.139 0 0 0 .342.537V.438A.14.14 0 0 0 .3.335.142.142 0 0 0 .195.293H.05z"/></symbol><use xlink:href="#ag" transform="matrix(0 -13.68547 -14.40576 -4.98155 -161.641 586.407)"/><use xlink:href="#A" transform="matrix(0 -13.68547 -14.40576 -4.98155 -161.634 581.298)"/><use xlink:href="#E" transform="matrix(0 -13.68547 -14.40576 -4.98155 -161.634 576.854)"/><use xlink:href="#E" transform="matrix(0 -13.68547 -14.40576 -4.98155 -161.634 572.409)"/><use xlink:href="#G" transform="matrix(0 -13.68547 -14.40576 -4.98155 -161.634 567.964)"/><use xlink:href="#y" transform="matrix(0 -13.68547 -14.40576 -4.98155 -161.634 563.526)"/><symbol id="ah"><path d="M.024.049C.041.049.05.04.05.024.049.008.04 0 .024 0 .008 0 0 .008 0 .024 0 .041.008.05.024.05z"/></symbol><use xlink:href="#ah" transform="matrix(0 -13.68547 -14.40576 -4.98155 -161.634 559.076)"/><use xlink:href="#v" transform="matrix(0 -13.68547 -14.40576 -4.98155 -161.634 557.967)"/><symbol id="ai"><path d="M.049.39H.17C.198.39.22.4.24.42c.019.02.029.043.029.07v.048c0 .027-.01.05-.03.069a.094.094 0 0 1-.068.029H.049V.39m0-.341h.146c.027 0 .05.01.07.028.019.02.028.042.028.07v.097c0 .027-.01.05-.028.069a.095.095 0 0 1-.07.028H.05V.05M.024 0C.008 0 0 .008 0 .024V.66c0 .016.008.025.024.025h.147C.21.684.246.669.274.64A.141.141 0 0 0 .317.537V.488A.141.141 0 0 0 .263.374a.143.143 0 0 0 .08-.13V.146A.14.14 0 0 0 .297.044.14.14 0 0 0 .195 0h-.17z"/></symbol><use xlink:href="#ai" transform="matrix(0 -13.68547 -14.40576 -4.98155 -161.634 553.963)"/><use xlink:href="#E" transform="matrix(0 -13.68547 -14.40576 -4.98155 -161.634 548.851)"/><use xlink:href="#u" transform="matrix(0 -13.68547 -14.40576 -4.98155 -161.634 544.407)"/><use xlink:href="#H" transform="matrix(0 -13.68547 -14.40576 -4.98155 -161.634 536.629)"/><use xlink:href="#C" transform="matrix(0 -13.68547 -14.40576 -4.98155 -158.82 533.157)"/><use xlink:href="#L" transform="matrix(0 -13.68547 -14.40576 -4.98155 -161.613 527.82)"/><use xlink:href="#K" transform="matrix(0 -13.68547 -14.40576 -4.98155 -161.634 523.295)"/><use xlink:href="#L" transform="matrix(0 -13.68547 -14.40576 -4.98155 -161.613 518.931)"/><use xlink:href="#v" transform="matrix(0 -13.68547 -14.40576 -4.98155 -161.634 515.07)"/><symbol id="aj"><path d="M.489.024C.489.008.48 0 .464 0 .448 0 .44.008.44.024v.073H.098c-.027 0-.05.01-.07.028A.095.095 0 0 0 0 .195v.367c0 .016.008.024.024.024C.041.586.05.578.05.562V.195A.048.048 0 0 1 .098.146h.097v.416c0 .016.008.024.025.024.016 0 .024-.008.024-.024V.146h.147v.416c0 .016.008.024.025.024C.432.586.44.578.44.562V.146h.024C.481.146.49.138.49.122V.024z"/></symbol><use xlink:href="#J" transform="matrix(0 -13.68547 -14.40576 -4.98155 -161.634 511.092)"/><use xlink:href="#L" transform="matrix(0 -13.68547 -14.40576 -4.98155 -161.613 506.923)"/><use xlink:href="#aj" transform="matrix(0 -13.68547 -14.40576 -4.98155 -160.234 502.882)"/><use xlink:href="#G" transform="matrix(0 -13.68547 -14.40576 -4.98155 -161.634 495.73)"/><use xlink:href="#aj" transform="matrix(0 -13.68547 -14.40576 -4.98155 -160.234 491.77)"/><use xlink:href="#u" transform="matrix(0 -13.68547 -14.40576 -4.98155 -161.634 484.62)"/><use xlink:href="#M" transform="matrix(0 -13.68547 -14.40576 -4.98155 -161.634 480.175)"/><use xlink:href="#ae" transform="matrix(0 -13.68547 -14.40576 -4.98155 -161.634 475.73)"/><use xlink:href="#ah" transform="matrix(0 -13.68547 -14.40576 -4.98155 -161.634 470.616)"/></svg>