<svg xmlns="http://www.w3.org/2000/svg" width="239.64" height="371.388" viewBox="0 0 179.73 278.541"><g stroke-linecap="round" stroke-linejoin="round" fill="none" stroke="#000"><path stroke-width="1.68" d="m46.13 15.172 3.6 1.44zM49.73 16.612l2.88 1.44zM52.61 18.052l1.44.96zM54.05 19.012l.72.48zM54.77 19.492h.24zM55.01 19.492v.24zM55.01 19.732l.48.24zM55.49 19.972l.72.48zM56.21 20.452l1.68.96zM57.89 21.412l2.4 1.68zM60.29 23.092l3.36 2.4zM63.65 25.492l1.44 1.2zM65.09 26.692l.24.24zM65.33 26.932l.48.48zM65.81 27.412l.72.72zM66.53 28.132l1.68 1.44zM68.21 29.572l2.64 2.64zM70.85 32.212l1.44 1.2zM72.29 33.412l.48.72zM72.77 34.132l.48.48zM73.25 34.612l.24.24zM73.49 34.852h.24zM73.73 34.852l.24.48zM73.97 35.332l.48.24zM74.45 35.572l.48.72zM74.93 36.292l.24.24zM75.17 36.532l.24.24zM75.41 36.772l.24.24zM75.65 37.012l.48.48zM76.13 37.492l.24.24zM76.37 37.732l.48.48zM76.85 38.212l.24.24zM77.09 38.452l.24.24zM77.33 38.692l.48.48zM77.81 39.172l.96.96zM78.77 40.132l.96.96zM79.73 41.092l1.68 1.92zM81.41 43.012l2.4 2.88zM83.81 45.892l.72.48zM84.53 46.372v.24zM84.53 46.612l.48.48zM85.01 47.092l.48.96zM85.49 48.052l1.44 1.68zM86.93 49.732l1.92 3.12zM88.85 52.852l.96 1.68zM89.81 54.532l.48.96zM90.29 55.492l.48.24zM90.77 55.732v.24zM90.77 55.972l.24.48zM91.01 56.452l.24.24zM91.25 56.692l.24.48zM91.49 57.172l.48.72zM91.97 57.892v.24zM91.97 58.132l.48.48zM92.45 58.612l.48.96zM92.93 59.572l.48.72zM93.41 60.292l.24.48zM93.65 60.772l.48.48zM94.13 61.252l.24.48zM94.37 61.732l.48.72zM94.85 62.452l.48.96zM95.33 63.412l.96 1.68zM96.29 65.092l1.44 2.16zM97.73 67.252l1.92 3.6zM99.65 70.852l1.2 2.16zM100.85 73.012l.24.24zM101.09 73.252l.24.72zM101.33 73.972l.72 1.68zM102.05 75.652l1.44 2.88zM103.49 78.532l1.68 4.32zM105.17 82.852l1.44 4.08zM106.61 86.932l1.68 4.56zM108.29 91.492l.48 1.68zM108.77 93.172l.24.24zM109.01 93.412l.24.96zM109.25 94.372l.48 1.68zM109.73 96.052l.96 3.12zM110.69 99.172l.48 1.92zM111.17 101.092l.48 1.44zM111.65 102.532l.48 1.68zM112.13 104.212l.48 2.16zM112.61 106.372l.72 3.12zM113.33 109.492l.96 5.04zM114.29 114.532l.24.48zM114.53 115.012v.48zM114.53 115.492l.24.96zM114.77 116.452l.48 2.16zM115.25 118.612l.72 4.56zM115.97 123.172l.72 5.04zM116.69 128.212l.24 3.12zM116.93 131.332l.48 2.64zM117.41 133.972l.24 2.88zM117.65 136.852l.48 3.84zM118.13 140.692v2.88zM118.13 143.572l.24.48zM118.37 144.052v1.2zM118.37 145.252v2.16zM118.37 147.412l.24 4.32zM118.61 151.732l-.24 8.16zM118.37 159.892l-.48 4.8zM117.89 164.692l-.24 3.6zM117.65 168.292v.96zM117.65 169.252l-.24.48zM117.41 169.732v.96zM117.41 170.692l-.24 2.16zM117.17 172.852l-.48 4.08zM116.69 176.932l-1.2 8.16zM115.49 185.092l-1.44 9.84zM114.05 194.932l-.24.72zM113.81 195.652l-.24 1.44zM113.57 197.092l-.48 2.64zM113.09 199.732l-1.2 5.52zM111.89 205.252l-2.64 10.56zM109.25 215.812l-4.32 14.64zM104.93 230.452l-1.68 5.04zM42.53 20.452l1.2 1.44zM43.73 21.892l.48.72zM44.21 22.612l.48.48zM44.69 23.092v.24zM44.69 23.332h.24zM44.93 23.332v.24zM44.93 23.572h.24zM45.17 23.572l.24.24zM45.41 23.812l.24.48zM45.65 24.292l.48.48zM46.13 24.772l.24.48zM46.37 25.252l.24.24zM46.61 25.492l.24.24zM46.85 25.732l.24.48zM47.09 26.212l.96 1.2zM48.05 27.412l1.44 2.16zM49.49 29.572l2.88 4.56zM52.37 34.132v.24zM52.37 34.372l.24.24zM52.61 34.612l.24.24zM52.85 34.852l.24.96zM53.09 35.812l.96 1.68zM54.05 37.492l1.44 2.64zM55.49 40.132l.48 1.44zM55.97 41.572l.48.72zM56.45 42.292v.24zM56.45 42.532l.48.96zM56.93 43.492l.24.48zM57.17 43.972l.48.72zM57.65 44.692l.24.72zM57.89 45.412l.24.24zM58.13 45.652l.24.48zM58.37 46.132l.24.96zM58.61 47.092l.48.72zM59.09 47.812l.24.24zM59.33 48.052l.24.72zM59.57 48.772l.24.48zM59.81 49.252l.24.72zM60.05 49.972l.48.96zM60.53 50.932l.72 1.44zM61.25 52.372l1.2 2.16zM62.45 54.532l.72 2.16zM63.17 56.692h.24zM63.41 56.692v.48zM63.41 57.172l.48.96zM63.89 58.132l.72 1.92zM64.61 60.052l1.2 2.88zM65.81 62.932l.48 1.68zM66.29 64.612l.24.72zM66.53 65.332l.24.48zM66.77 65.812l.24.72zM67.01 66.532l.24.48zM67.25 67.012l.48.96zM67.73 67.972v.24zM67.73 68.212l.24.72zM67.97 68.932l.24.96zM68.21 69.892l.48 1.2zM68.69 71.092l.24.48zM68.93 71.572l.72 1.68zM69.65 73.252l.24.96zM69.89 74.212l.48 1.2zM70.37 75.412l.96 2.16zM71.33 77.572l.96 3.36zM72.29 80.932l.96 2.4zM73.25 83.332v.24zM73.25 83.572l.24.72zM73.49 84.292l.48 1.44zM73.97 85.732l.96 2.4zM74.93 88.132l.48 2.16zM75.41 90.292l.72 2.4zM76.13 92.692l.96 3.12zM77.09 95.812l1.2 4.32zM78.29 100.132l.72 2.16zM79.01 102.292v.48zM79.01 102.772l.24.72zM79.25 103.492l.48 1.44zM79.73 104.932l.72 2.88zM80.45 107.812l.48 1.2zM80.93 109.012v.72zM80.93 109.732l.24.48zM81.17 110.212l.24.48zM81.41 110.692v.72zM81.41 111.412l.24.96zM81.65 112.372l.48 1.44zM82.13 113.812l.72 2.4zM82.85 116.212l.72 3.6zM83.57 119.812l.72 2.64zM84.29 122.452l.24.48zM84.53 122.932l.24.96zM84.77 123.892l.48 1.92zM85.25 125.812l.96 4.32zM86.21 130.132l.96 4.32zM87.17 134.452l.48 2.4zM87.65 136.852l.24 1.44zM87.89 138.292l.24 1.2zM88.13 139.492l.24 1.2zM88.37 140.692l.48 1.92zM88.85 142.612l.48 2.64zM89.33 145.252l.72 3.6zM90.05 148.852v.48zM90.05 149.332l.24.96zM90.29 150.292l.24 1.68zM90.53 151.972l.48 3.36zM91.01 155.332l1.2 6.48zM92.21 161.812l.48 3.6zM92.69 165.412l.24 1.92zM92.93 167.332l.24 1.44zM93.17 168.772v1.68zM93.17 170.452l.24 1.92zM93.41 172.372l.24.48zM93.65 172.852v.48zM93.65 173.332v.72zM93.65 174.052l.24 1.92zM93.89 175.972l.48 3.84zM94.37 179.812l.72 6zM95.09 185.812l.24 3.12zM95.33 188.932l.24 1.44zM95.57 190.372l.24 3.6zM95.81 193.972l.24 1.68zM96.05 195.652l.24 1.2zM96.29 196.852v.72zM96.29 197.572v1.2zM96.29 198.772l.24 2.64zM96.53 201.412l.48 3.36zM97.01 204.772l.48 4.08zM97.49 208.852l.48 5.52zM97.97 214.372l.48 8.4zM98.45 222.772l.48 11.76zM46.13 15.172h-1.92zM44.21 15.172l-1.44.96zM42.77 16.132l-.96 1.44zM41.81 17.572l.24 1.92zM42.05 19.492l.48.96zM98.93 234.532l.48 1.44zM99.41 235.972l1.2.72zM100.61 236.692h1.44zM102.05 236.692l.96-1.2zM103.01 235.492h.24z"/><path stroke-width=".48" d="m42.53 20.452 3.6-5.28zM52.37 34.372l12.72-7.44zM45.17 23.812l8.4-5.28zM57.89 45.412l17.28-8.88zM63.17 56.452l21.12-10.08zM67.49 67.972l24.24-10.32zM71.81 79.252l26.88-10.08zM79.01 102.052l29.76-9.12zM84.29 122.212l30.24-7.44zM90.05 148.612l28.08-5.28zM93.41 172.372l24.24-3.36zM96.05 196.372l18-1.92zM98.45 220.612l9.84-.72zM98.93 234.532l4.32.96zM101.09 235.012l1.92-12zM103.01 223.012l1.2-13.92zM104.21 209.092l.72-10.56zM105.17 194.212v-.96zM105.17 193.252v-2.64zM105.17 190.612l.24-.48zM105.41 185.812v-.48zM105.41 185.332l.24-10.32zM105.65 175.012v-4.56zM105.65 170.452v-.48zM105.65 169.972l-.24-.96zM105.41 169.012v-2.16zM105.41 166.852v-3.84zM105.41 163.012l-.48-8.16zM104.93 154.852l-.48-5.76zM103.97 145.012v-.72zM103.97 144.292l-.24-1.92zM103.73 142.372l-.24-1.68zM102.77 136.612l-.96-6.24zM101.81 130.372l-1.92-9.12zM99.89 121.252v-.48zM99.89 120.772l-.24-.96zM99.65 119.812l-.48-1.92zM99.17 117.892l-.96-3.84zM98.21 114.052l-1.92-7.92zM96.29 106.132l-1.68-5.28zM93.65 96.772l-.24-.72zM93.41 96.052l-.72-1.92zM92.69 94.132l-.48-1.44zM91.01 88.612l-1.68-5.04zM89.33 83.572l-2.4-5.76zM86.93 77.812l-.24-.48zM86.69 77.332l-.24-.72zM86.45 76.612l-.72-1.44zM85.73 75.172l-1.2-2.64zM84.53 72.532l-1.68-3.36zM82.85 69.172l-.72-1.68zM82.13 67.492l-.48-.72zM81.65 66.772l-.24-.48zM81.41 66.292l-.48-1.2zM80.93 65.092l-.48-.72zM80.45 64.372l-.48-.96zM79.97 63.412l-.48-.72zM79.49 62.692v-.24zM79.49 62.452l-.24-.72zM79.25 61.732l-.24-.48zM79.01 61.252l-.24-.24zM78.77 61.012l-.24-.48zM78.53 60.532l-.24-.48zM78.29 60.052l-.24-.48zM78.05 59.572l-.48-.96zM77.57 58.612l-.48-1.2zM77.09 57.412l-1.2-1.92zM75.89 55.492v-.24zM73.73 51.412l-.24-.24zM73.49 51.172l-.24-.48zM73.25 50.692l-.48-.96zM72.77 49.732l-1.2-1.68zM71.57 48.052v-.24zM69.17 44.452l-.72-.72zM68.45 43.732l-.48-.72zM67.97 43.012l-.24-.24zM67.73 42.772l-.24-.48zM67.49 42.292l-.24-.24zM67.25 42.052l-.24-.48zM67.01 41.572l-.48-.48zM66.53 41.092l-.24-.24zM66.29 40.852v-.24zM66.29 40.612l-.48-.48zM65.81 40.132l-.48-.72zM65.33 39.412l-.24-.48zM65.09 38.932l-.24-.48zM64.85 38.452l-.24-.24zM64.61 38.212l-.48-.48zM64.13 37.732l-.48-.72zM63.65 37.012l-.72-.96zM62.93 36.052l-1.2-1.68zM61.73 34.372l-1.68-2.16zM60.05 32.212l-1.44-1.92zM58.61 30.292l-.24-.24zM58.37 30.052l-.48-.48zM57.89 29.572l-.72-.96zM57.17 28.612l-1.92-1.92zM55.25 26.692l-3.6-3.6zM51.65 23.092l-5.76-4.32zM45.89 18.772l-1.68-.96z"/></g></svg>