<svg xmlns="http://www.w3.org/2000/svg" width="376.3" height="381.56" viewBox="0 0 282.225 286.17"><g stroke-linecap="round" stroke-linejoin="round" fill="none" stroke="#000"><path stroke-width="1.68" d="M32.243 17.79h4.56zM36.803 17.79l4.8 1.2zM41.603 18.99l5.28 1.92zM46.883 20.91l2.4.96zM49.283 21.87l1.44.72zM50.723 22.59l.72.24zM51.443 22.83l.24.24zM51.683 23.07h.24zM51.923 23.07l.72.24zM52.643 23.31l.96.48zM53.603 23.79l1.44.72zM55.043 24.51l1.92.96zM56.963 25.47l2.64 1.2zM59.603 26.67l4.08 2.16zM63.683 28.83l2.16.96zM65.843 29.79l.24.24zM66.083 30.03l.48.24zM66.563 30.27l1.2.72zM67.763 30.99l2.4 1.2zM70.163 32.19l4.8 2.64zM74.963 34.83l5.04 3.36zM80.003 38.19l1.2.48zM81.203 38.67l.24.24zM81.443 38.91l.72.48zM82.163 39.39l1.2.72zM83.363 40.11l2.4 1.44zM85.763 41.55l4.8 3.12zM90.563 44.67l5.28 3.6zM95.843 48.27l.48.24zM96.323 48.51l.48.24zM96.803 48.75l1.2.96zM98.003 49.71l2.4 1.44zM100.403 51.15l4.56 3.36zM104.963 54.51l5.28 4.08zM110.243 58.59l.24.24zM110.483 58.83l.72.48zM111.203 59.31l1.2.96zM112.403 60.27l2.64 2.16zM115.043 62.43l5.04 4.32zM120.083 66.75l6.96 6zM127.043 72.75l.96.96zM128.003 73.71l.48.24zM128.483 73.95l.72.72zM129.203 74.67l1.68 1.44zM130.883 76.11l3.12 2.88zM134.003 78.99l6.24 5.76zM140.243 84.75l9.12 8.64zM149.363 93.39l.48.48zM149.843 93.87l.96.96zM150.803 94.83l1.68 1.92zM152.483 96.75l3.6 3.6zM156.083 100.35l6.96 7.68zM163.043 108.03l9.6 11.04zM172.643 119.07l.48.48zM173.123 119.55l.96 1.2zM174.083 120.75l1.68 2.16zM175.763 122.91l3.6 4.32zM179.363 127.23l7.2 8.64zM186.563 135.87l7.92 10.32zM194.483 146.19l.24.48zM194.723 146.67l.96 1.2zM195.683 147.87l1.68 2.16zM197.363 150.03l3.36 4.56zM200.723 154.59l6.24 9.12zM206.963 163.71l7.2 10.8zM214.163 174.51l.24.72zM214.403 175.23l.72 1.2zM215.123 176.43l1.44 2.4zM216.563 178.83l2.88 4.8zM219.443 183.63l5.04 8.4zM224.483 192.03l2.64 4.32zM227.123 196.35l1.2 2.16zM228.323 198.51l1.68 2.88zM230.003 201.39l3.84 6.48zM233.843 207.87l3.6 6.48zM237.443 214.35l1.68 3.12zM239.123 217.47l2.88 4.8zM242.003 222.27l4.08 7.2zM246.083 229.47l5.76 10.8zM251.843 240.27l8.16 16.56zM260.003 256.83l3.6 8.16zM32.243 17.79l4.32 2.16zM36.563 19.95l4.56 2.88zM41.123 22.83l2.88 2.64zM44.003 25.47l1.44 1.44zM45.443 26.91l.72.48zM46.163 27.39l.48.48zM46.643 27.87h.24zM46.883 27.87l.24.24zM47.123 28.11l.24.24zM47.363 28.35l.24.24zM47.603 28.59l.24.24zM47.843 28.83l.48.48zM48.323 29.31l.96.96zM49.283 30.27l1.68 1.44zM50.963 31.71l.96.72zM51.923 32.43l.24.48zM52.163 32.91l.96.72zM53.123 33.63l.72.48zM53.843 34.11l.72.72zM54.563 34.83l1.2 1.2zM55.763 36.03l1.68 1.44zM57.443 37.47l1.2 1.2zM58.643 38.67l.24.24zM58.883 38.91l.48.48zM59.363 39.39l.96.72zM60.323 40.11l1.92 1.92zM62.243 42.03l3.84 3.6zM66.083 45.63l3.6 3.36zM69.683 48.99l1.44 1.44zM71.123 50.43l.24.24zM71.363 50.67l.48.48zM71.843 51.15l.96 1.2zM72.803 52.35l2.16 1.92zM74.963 54.27l4.08 4.08zM79.043 58.35l8.16 7.92zM87.203 66.27l5.76 5.76zM92.963 72.03l2.4 2.64zM95.363 74.67l.24.24zM95.603 74.91l.72.48zM96.323 75.39l.96 1.2zM97.283 76.59l2.4 2.4zM99.683 78.99l4.56 4.56zM104.243 83.55l9.12 9.36zM113.363 92.91l2.4 2.64zM115.763 95.55l4.8 5.04zM120.563 100.59l9.6 10.32zM130.163 110.91l.48.48zM130.643 111.39l.48.48zM131.123 111.87l.96.96zM132.083 112.83l1.68 1.92zM133.763 114.75l3.36 3.6zM137.123 118.35l6.96 7.44zM144.083 125.79l13.92 15.12zM158.003 140.91l7.92 8.88zM165.923 149.79l7.44 7.92zM173.363 157.71l3.12 3.6zM176.483 161.31l.48.72zM176.963 162.03l.96.96zM177.923 162.99l1.68 1.92zM179.603 164.91l3.6 4.32zM183.203 169.23l7.44 8.4zM190.643 177.63l3.84 4.56zM194.483 182.19l9.36 10.8zM203.843 192.99l18.72 22.08zM222.563 215.07l6.72 7.92zM229.283 222.99l10.08 12zM239.363 234.99l14.64 18.24zM254.003 253.23l9.36 12zM263.603 264.99l-.24.24z"/><path stroke-width=".48" d="m45.683 26.91 3.84-4.8zM58.643 38.43l6.96-8.64zM70.883 50.43l10.08-11.76zM83.123 62.43l12.72-14.4zM95.363 74.43l14.64-16.08zM107.123 86.43l16.56-16.8zM130.403 111.15l18.48-18zM153.443 136.11l19.2-17.04zM176.243 161.07l18-15.36zM198.563 186.75l15.36-12.48zM220.643 212.67l10.8-8.4zM242.483 239.07l6.24-4.8zM263.363 265.23l.24-.24zM263.363 264.99l-9.36-15.6zM254.003 249.39l-11.76-18zM242.243 231.39l-3.84-5.52zM236.003 222.51l-1.68-2.16zM234.323 220.35l-.96-1.44zM230.963 215.55l-.48-.96zM230.483 214.59l-5.04-6.96zM225.443 207.63l-6.48-9.36zM218.963 198.27l-3.12-4.32zM215.843 193.95l-4.8-6.72zM211.043 187.23l-5.04-6.96zM206.003 180.27l-.48-.48zM205.523 179.79l-.72-1.2zM204.803 178.59l-.72-.96zM201.443 174.27l-1.68-2.4zM199.763 171.87l-.96-.96zM196.403 167.55l-3.36-4.32zM193.043 163.23l-7.92-10.08zM185.123 153.15l-.48-.48zM184.643 152.67l-.96-.96zM183.683 151.71l-1.68-2.16zM182.003 149.55l-3.6-4.32zM178.403 145.23l-7.2-8.4zM171.203 136.83l-4.56-5.28zM163.763 128.43l-.96-1.2zM162.803 127.23l-.48-.72zM162.323 126.51l-.96-.96zM161.363 125.55l-.24-.24zM158.243 122.19l-2.4-2.88zM155.843 119.31l-7.68-8.16zM148.163 111.15l-8.64-9.12zM139.523 102.03l-.48-.48zM139.043 101.55l-.72-.96zM138.323 100.59l-1.92-1.92zM136.403 98.67l-3.6-3.6zM132.803 95.07l-6.72-6.48zM122.963 85.47l-2.88-2.88zM116.963 79.71l-.48-.48zM116.483 79.23l-2.88-2.88zM113.603 76.35l-6.24-5.76zM107.363 70.59l-4.8-4.32zM102.563 66.27l-.24-.24zM102.323 66.03l-.72-.48zM101.603 65.55l-1.2-1.2zM100.403 64.35l-2.4-2.16zM98.003 62.19l-5.04-4.08zM92.963 58.11l-3.6-2.88zM89.363 55.23l-.24-.24zM89.123 54.99l-.48-.48zM88.643 54.51l-1.2-.96zM87.443 53.55l-2.16-1.68zM85.283 51.87l-3.36-2.64zM78.563 46.59l-2.64-2.16zM75.923 44.43l-.48-.24zM75.443 44.19l-.24-.24zM71.843 41.31l-.24-.24zM71.603 41.07l-3.84-2.88zM67.763 38.19l-5.76-4.08zM62.003 34.11l-.24-.24zM61.763 33.87l-.48-.48zM61.283 33.39l-1.2-.72zM60.083 32.67l-2.16-1.44zM57.923 31.23l-2.88-1.92zM55.043 29.31l-1.68-.96zM53.363 28.35l-1.44-.96zM51.923 27.39l-1.44-.96zM50.483 26.43l-.96-.72zM49.523 25.71l-.48-.24zM49.043 25.47l-.24-.24zM48.803 25.23l-.48-.24zM48.323 24.99l-.72-.48zM47.603 24.51l-.72-.48zM46.883 24.03l-1.44-.96zM45.443 23.07l-1.92-1.2zM43.523 21.87l-3.12-1.68zM40.403 20.19l-5.04-1.92zM35.363 18.27l-3.12-.48zM37.523 20.43l1.68-2.16z"/></g></svg>